<svg width="54" height="54" viewBox="0 0 54 54" fill="none" xmlns="http://www.w3.org/2000/svg">
<g id="Github">
<path id="Fill-4" d="M27.0002 0C12.0904 0 0 12.3941 0 27.6836C0 39.9149 7.73638 50.2919 18.4644 53.9524C19.8138 54.2087 20.3092 53.3519 20.3092 52.6207C20.3092 51.9606 20.2841 49.7798 20.2725 47.4666C12.761 49.1412 11.176 44.2003 11.176 44.2003C9.9478 41.0004 8.17813 40.1496 8.17813 40.1496C5.7284 38.4314 8.36279 38.4667 8.36279 38.4667C11.0741 38.662 12.5017 41.3195 12.5017 41.3195C14.9099 45.5517 18.8181 44.3282 20.3588 43.6208C20.6012 41.8316 21.3009 40.6103 22.073 39.919C16.0759 39.219 9.77164 36.8453 9.77164 26.2377C9.77164 23.2153 10.8264 20.7457 12.5536 18.807C12.2732 18.1097 11.3491 15.2941 12.8151 11.4809C12.8151 11.4809 15.0824 10.7368 20.2421 14.3185C22.3959 13.7052 24.7056 13.3976 27.0002 13.387C29.2948 13.3976 31.6064 13.7052 33.7641 14.3185C38.9176 10.7368 41.1817 11.4809 41.1817 11.4809C42.6514 15.2941 41.7268 18.1097 41.4464 18.807C43.1776 20.7457 44.2252 23.2153 44.2252 26.2377C44.2252 36.8705 37.9089 39.2117 31.8966 39.897C32.865 40.7561 33.7279 42.4408 33.7279 45.0236C33.7279 48.7277 33.6966 51.7089 33.6966 52.6207C33.6966 53.3574 34.1826 54.2206 35.5513 53.9487C46.2735 50.2841 54 39.9108 54 27.6836C54 12.3941 41.9114 0 27.0002 0Z" fill="white"/>
<path id="Fill-5" d="M10.3057 39.5576C10.2464 39.6937 10.0357 39.7346 9.84384 39.6411C9.64837 39.5517 9.53858 39.366 9.60196 39.2294C9.65997 39.0891 9.87106 39.0501 10.0661 39.1441C10.262 39.2335 10.3736 39.4209 10.3057 39.5576Z" fill="#161514"/>
<path id="Fill-6" d="M11.3975 40.7959C11.269 40.9171 11.0177 40.8608 10.8473 40.6693C10.671 40.4782 10.6379 40.2226 10.7683 40.0996C10.9008 39.9784 11.1445 40.0352 11.3212 40.2263C11.4975 40.4196 11.5319 40.6734 11.3975 40.7959Z" fill="#161514"/>
<path id="Fill-7" d="M12.4603 42.3746C12.2952 42.4913 12.0252 42.3819 11.8583 42.1381C11.6931 41.8944 11.6931 41.6021 11.8618 41.485C12.0292 41.3678 12.2952 41.4732 12.4643 41.7151C12.629 41.9629 12.629 42.2552 12.4603 42.3746Z" fill="#161514"/>
<path id="Fill-8" d="M13.9159 43.8998C13.7681 44.0655 13.4535 44.021 13.2232 43.7949C12.9876 43.5739 12.922 43.2602 13.0702 43.0946C13.2197 42.9284 13.5361 42.9752 13.7681 43.1994C14.002 43.42 14.0734 43.7359 13.9159 43.8998Z" fill="#161514"/>
<path id="Fill-9" d="M15.9242 44.7852C15.859 44.9999 15.556 45.0975 15.2508 45.0063C14.9459 44.9123 14.7465 44.6608 14.808 44.4439C14.8714 44.2278 15.1758 44.1261 15.4833 44.2237C15.7876 44.3172 15.9876 44.5669 15.9242 44.7852Z" fill="#161514"/>
<path id="Fill-10" d="M18.1298 44.9496C18.1374 45.1757 17.8785 45.3631 17.5581 45.3672C17.2359 45.3745 16.9752 45.1915 16.9717 44.9691C16.9717 44.7408 17.2247 44.5552 17.5469 44.5497C17.8674 44.5434 18.1298 44.7249 18.1298 44.9496Z" fill="#161514"/>
<path id="Fill-11" d="M20.1822 44.5942C20.2206 44.8148 19.9979 45.0413 19.6797 45.1016C19.3669 45.1597 19.0773 45.0236 19.0375 44.8048C18.9987 44.5787 19.2254 44.3522 19.5378 44.2937C19.8565 44.2374 20.1416 44.3699 20.1822 44.5942Z" fill="#161514"/>
</g>
</svg>
