<svg width="42" height="38" viewBox="0 0 42 38" fill="none" xmlns="http://www.w3.org/2000/svg">
<g id="Case">
<path id="Rectangle 2" d="M20.8891 10.4766C21.9937 10.4766 22.8891 9.58113 22.8891 8.47656C22.8891 7.37199 21.9937 6.47656 20.8891 6.47656V10.4766ZM22.0385 23.5128L21.4638 21.5971L22.0385 23.5128ZM19.7397 23.5128L20.3144 21.5971L19.7397 23.5128ZM38.3529 18.6185L38.9276 20.5341L38.3529 18.6185ZM37.7782 10.4766V16.7028H41.7782V10.4766H37.7782ZM4 16.7028V10.4766H0V16.7028H4ZM37.7782 16.7028L21.4638 21.5971L22.6132 25.4284L38.9276 20.5341L37.7782 16.7028ZM20.3144 21.5971L4 16.7028L2.85062 20.5341L19.165 25.4284L20.3144 21.5971ZM4 10.4766H20.8891V6.47656H4V10.4766ZM30.3336 10.4766H37.7782V6.47656H30.3336V10.4766ZM25.7663 10.4766H30.3336V6.47656H25.7663V10.4766ZM21.4638 21.5971C21.0889 21.7096 20.6893 21.7096 20.3144 21.5971L19.165 25.4284C20.2896 25.7658 21.4885 25.7658 22.6132 25.4284L21.4638 21.5971ZM0 16.7028C0 18.4693 1.15868 20.0266 2.85062 20.5341L4 16.7028H4H0ZM37.7782 16.7028V16.7028L38.9276 20.5341C40.6195 20.0266 41.7782 18.4693 41.7782 16.7028H37.7782ZM41.7782 10.4766C41.7782 8.26743 39.9873 6.47656 37.7782 6.47656V10.4766H41.7782ZM4 10.4766L4 10.4766V6.47656C1.79086 6.47656 0 8.26743 0 10.4766H4Z" fill="white"/>
<path id="Line" d="M20.8892 18.1912L20.8892 14.9531" stroke="white" stroke-width="4" stroke-linecap="round" stroke-linejoin="round"/>
<path id="Rectangle 5" d="M5.57422 25.6114C5.57422 24.5068 4.67879 23.6114 3.57422 23.6114C2.46965 23.6114 1.57422 24.5068 1.57422 25.6114H5.57422ZM36.2042 18.1904V32H40.2042V18.1904H36.2042ZM34.2042 34H7.57422V38H34.2042V34ZM5.57422 32V25.6114H1.57422V32H5.57422ZM7.57422 34C6.46965 34 5.57422 33.1046 5.57422 32H1.57422C1.57422 35.3137 4.26051 38 7.57422 38V34ZM36.2042 32C36.2042 33.1046 35.3088 34 34.2042 34V38C37.5179 38 40.2042 35.3137 40.2042 32H36.2042Z" fill="white"/>
<path id="Rectangle 4" d="M27.1853 8.47622V4C27.1853 2.89543 26.2898 2 25.1853 2H16.5925C15.488 2 14.5925 2.89543 14.5925 4L14.5925 8.47622" stroke="white" stroke-width="4"/>
</g>
</svg>
