<svg width="39" height="39" viewBox="0 0 39 39" fill="none" xmlns="http://www.w3.org/2000/svg">
<g id="Edit 2">
<path id="Rectangle 74" d="M34.3999 20.9944V31.9443C34.3999 34.7058 32.1613 36.9444 29.3999 36.9444H7.5C4.73858 36.9444 2.5 34.7058 2.5 31.9444V10.0444C2.5 7.28301 4.73858 5.04443 7.5 5.04443H18.45" stroke="white" stroke-width="3.5" stroke-linecap="round"/>
<g id="Group 236">
<path id="Rectangle 74_2" d="M20.7463 10.1392L27.9531 2.92151C28.7335 2.13987 29.9994 2.13939 30.7804 2.92044L35.8925 8.03247C36.6668 8.80686 36.6749 10.0605 35.9105 10.8448L20.998 26.145C20.4336 26.7241 19.6595 27.0507 18.8511 27.0506L13.342 27.0504C12.4892 27.0504 11.8081 26.3395 11.844 25.4867L11.8653 24.9808L11.9523 22.9112L12.0394 20.8417L12.0773 19.9402C12.1089 19.189 12.4211 18.477 12.9522 17.9451L16.4364 14.4557" stroke="white" stroke-width="3.5" stroke-linecap="round"/>
<path id="Line" d="M28.5126 11.4365L31.5007 14.4247" stroke="white" stroke-width="3.5" stroke-linecap="round" stroke-linejoin="round"/>
</g>
</g>
</svg>
