<svg width="36" height="36" viewBox="0 0 36 36" fill="none" xmlns="http://www.w3.org/2000/svg">
<g id="heroicons:server-20-solid">
<g id="Group">
<path id="Vector" d="M9.34242 8.52944C9.51551 7.80864 9.92625 7.16712 10.5084 6.70825C11.0906 6.24938 11.8104 5.99989 12.5517 6H23.8475C24.5888 5.99989 25.3085 6.24938 25.8907 6.70825C26.4729 7.16712 26.8837 7.80864 27.0568 8.52944L30.3171 22.1155C29.6143 21.8235 28.8606 21.6738 28.0996 21.6749H8.29962C7.51423 21.6749 6.76513 21.8317 6.08203 22.1155L9.34242 8.52944Z" fill="white"/>
<path id="Vector_2" fill-rule="evenodd" clip-rule="evenodd" d="M8.29999 24.1499C7.42478 24.1499 6.58541 24.4976 5.96654 25.1164C5.34768 25.7353 5 26.5747 5 27.4499C5 28.3251 5.34768 29.1645 5.96654 29.7833C6.58541 30.4022 7.42478 30.7499 8.29999 30.7499H28.0999C28.9751 30.7499 29.8145 30.4022 30.4334 29.7833C31.0522 29.1645 31.3999 28.3251 31.3999 27.4499C31.3999 26.5747 31.0522 25.7353 30.4334 25.1164C29.8145 24.4976 28.9751 24.1499 28.0999 24.1499H8.29999ZM26.8459 27.4499C26.8459 27.1217 26.9763 26.8069 27.2084 26.5748C27.4404 26.3428 27.7552 26.2124 28.0834 26.2124H28.0999C28.4281 26.2124 28.7429 26.3428 28.975 26.5748C29.207 26.8069 29.3374 27.1217 29.3374 27.4499V27.4664C29.3374 27.7946 29.207 28.1094 28.975 28.3414C28.7429 28.5735 28.4281 28.7039 28.0999 28.7039H28.0834C27.7552 28.7039 27.4404 28.5735 27.2084 28.3414C26.9763 28.1094 26.8459 27.7946 26.8459 27.4664V27.4499ZM23.1334 26.2124C22.8052 26.2124 22.4905 26.3428 22.2584 26.5748C22.0263 26.8069 21.8959 27.1217 21.8959 27.4499V27.4664C21.8959 28.1495 22.4503 28.7039 23.1334 28.7039H23.1499C23.4781 28.7039 23.7929 28.5735 24.025 28.3414C24.257 28.1094 24.3874 27.7946 24.3874 27.4664V27.4499C24.3874 27.1217 24.257 26.8069 24.025 26.5748C23.7929 26.3428 23.4781 26.2124 23.1499 26.2124H23.1334Z" fill="white"/>
</g>
</g>
</svg>
