<svg width="54" height="54" viewBox="0 0 54 54" fill="none" xmlns="http://www.w3.org/2000/svg">
<g id="LinkedIn">
<path id="Subtract" fill-rule="evenodd" clip-rule="evenodd" d="M8.98529 0C4.02285 0 0 4.02944 0 9V45C0 49.9706 4.02286 54 8.9853 54H43.8897C48.8521 54 52.875 49.9706 52.875 45V9C52.875 4.02944 48.8521 0 43.8897 0H8.98529ZM7.25674 12.0798C7.25674 14.7949 9.31189 16.779 11.847 16.779C14.3824 16.779 16.4376 14.7949 16.4376 12.0798C16.4376 9.3651 14.3824 7.37869 11.847 7.37869C9.31189 7.37869 7.25674 9.3651 7.25674 12.0798ZM37.2193 46.4091H45.1813V30.3246C45.1813 22.3809 40.3803 19.6715 35.9375 19.6715C31.8295 19.6715 29.0388 22.4047 28.2683 24.0058V20.4024H20.6111V46.4091H28.5732V32.3091C28.5732 28.5496 30.8891 26.7213 33.2517 26.7213C35.4863 26.7213 37.2193 28.0138 37.2193 32.2048V46.4091ZM15.8278 20.3824V46.389H7.86616V20.3824H15.8278Z" fill="white"/>
</g>
</svg>
