<svg width="54" height="54" viewBox="0 0 54 54" fill="none" xmlns="http://www.w3.org/2000/svg">
<g id="Mega">
<path id="path3" d="M27 0C12.088 0 0 12.088 0 27C0 41.912 12.088 54 27 54C41.912 54 54 41.912 54 27C54 12.088 41.912 0 27 0ZM41.0155 36.5479C41.0155 37.0111 40.6419 37.3846 40.1787 37.3846H36.6525C36.1893 37.3846 35.8157 37.0111 35.8157 36.5479V25.6851C35.8157 25.5955 35.7111 25.5506 35.6364 25.6104L28.1655 33.0813C27.523 33.7239 26.4621 33.7239 25.8196 33.0813L18.3486 25.6104C18.2889 25.5506 18.1693 25.5955 18.1693 25.6851V36.5479C18.1693 37.0111 17.7958 37.3846 17.3326 37.3846H13.8063C13.3431 37.3846 12.9696 37.0111 12.9696 36.5479V17.4521C12.9696 16.9889 13.3431 16.6154 13.8063 16.6154H16.2269C16.6602 16.6154 17.0935 16.7947 17.4073 17.1085L26.7012 26.4023C26.8655 26.5667 27.1195 26.5667 27.2839 26.4023L36.5778 17.1085C36.8915 16.7947 37.3099 16.6154 37.7582 16.6154H40.1787C40.6419 16.6154 41.0155 16.9889 41.0155 17.4521V36.5479Z" fill="white"/>
</g>
</svg>
