<svg width="54" height="54" viewBox="0 0 54 54" fill="none" xmlns="http://www.w3.org/2000/svg">
<g id="Telegram">
<path id="Shape" fill-rule="evenodd" clip-rule="evenodd" d="M54 27C54 41.9117 41.9117 54 27 54C12.0884 54 0 41.9117 0 27C0 12.0884 12.0884 0 27 0C41.9117 0 54 12.0884 54 27ZM18.0804 24.5267C15.3757 25.7076 12.5967 26.921 10.0555 28.3207C8.72862 29.2923 10.4922 29.9796 12.1467 30.6242C12.4098 30.7267 12.67 30.828 12.9147 30.9293C13.1183 30.992 13.3253 31.0579 13.5351 31.1247C15.3753 31.7109 17.427 32.3647 19.2135 31.3813C22.1482 29.6955 24.9176 27.7465 27.685 25.7991C28.5917 25.161 29.4981 24.5231 30.41 23.8947C30.4527 23.8673 30.5009 23.836 30.5537 23.802C31.3305 23.2983 33.0777 22.1658 32.4314 23.7264C30.9032 25.3977 29.2662 26.877 27.6204 28.3646C26.5112 29.3671 25.3979 30.3733 24.3111 31.4443C23.3647 32.2134 22.3818 33.7599 23.4416 34.8369C25.8828 36.5457 28.362 38.2132 30.8399 39.8798C31.6461 40.422 32.4524 40.9643 33.257 41.5079C34.6208 42.5967 36.7521 41.7159 37.0519 40.0146C37.1852 39.2319 37.3191 38.4493 37.4529 37.6667C38.1927 33.3414 38.9328 29.0145 39.5865 24.6752C39.6754 23.9944 39.7761 23.3138 39.8769 22.6329C40.1211 20.9824 40.3657 19.3299 40.4421 17.6705C40.2452 16.0145 38.2373 16.3787 37.1199 16.751C31.3766 18.9365 25.6906 21.2839 20.0271 23.6727C19.3855 23.9569 18.7352 24.2408 18.0804 24.5267Z" fill="white"/>
</g>
</svg>
