<svg width="150" height="150" viewBox="0 0 150 150" fill="none" xmlns="http://www.w3.org/2000/svg">
<g id="firebase" clip-path="url(#clip0_3456_4413)">
<path id="Vector" d="M41.1493 0H42.2342C43.846 1.53899 44.4803 3.0364 45.4335 4.96707C51.1805 16.5858 56.9217 28.208 62.6571 39.8336C62.6917 39.9053 62.7322 39.9746 62.7784 40.0416C62.7876 40.1386 62.7749 40.2207 62.7403 40.2877C61.6241 42.5292 60.4849 44.7591 59.3226 46.9775C47.0245 70.4183 34.7068 93.8475 22.3694 117.265C22.1499 117.679 22.1926 118.143 22.4976 118.659C22.1256 119.218 21.5976 119.727 20.9136 120.187C21.0384 118.62 21.4092 116.867 21.5999 115.671C22.1591 112.158 22.7391 108.647 23.3399 105.137C23.4162 104.693 23.4867 104.125 23.5514 103.432C23.6068 102.856 23.6808 102.284 23.7732 101.716C25.9846 88.1768 28.1868 74.6355 30.3798 61.0919C30.9159 57.7735 31.452 54.4564 31.9881 51.1404C33.4185 42.3016 34.8223 33.4593 36.1995 24.6135C37.2047 18.1421 38.2134 11.6638 39.2429 5.19237C39.5479 3.27556 39.7559 1.13345 41.1493 0Z" fill="#FF9E00"/>
<path id="Vector_2" d="M90.0296 50.8908L75.5547 65.4142L63.0764 40.2634C63.0625 40.2334 63.059 40.201 63.066 40.1664C63.0752 40.134 63.0741 40.104 63.0625 40.0763C63.468 39.5459 63.6448 38.8354 63.8459 38.3743C65.847 33.7782 67.8794 29.197 69.9429 24.6308C71.007 22.2738 72.5495 20.6412 75.2566 22.1768C75.7973 22.4853 76.5738 23.8475 76.9516 24.617C80.3531 31.5378 83.7973 38.4379 87.2843 45.3172C88.0885 46.9047 89.0521 49.0676 90.0296 50.8908Z" fill="#FF9E00"/>
<path id="Vector_3" d="M75.3884 150.087H73.8772C73.3596 149.851 72.5196 149.626 71.3572 149.411C70.0782 149.172 68.5669 148.426 67.2637 147.653C58.5288 142.47 49.7905 137.293 41.0488 132.121C33.467 127.641 27.3526 124.081 22.7056 121.442C21.9014 120.987 21.3041 120.568 20.9136 120.187C21.5976 119.727 22.1256 119.218 22.4976 118.659C40.0274 101.124 57.5641 83.5887 75.1077 66.052C75.3388 65.8209 75.4878 65.6083 75.5548 65.4142L90.0297 50.8908C90.6952 51.0295 91.1839 50.1386 91.6103 49.7088C97.1054 44.1722 102.605 38.6401 108.109 33.1126C109.333 31.8856 111.142 30.7452 112.765 31.9272C113.943 32.7834 114.21 33.9827 114.466 35.5217C116.327 46.5927 118.216 57.6592 120.134 68.721C121.405 76.0531 122.679 83.3842 123.957 90.714C124.881 95.9965 125.777 101.284 126.643 106.575C127.242 110.226 127.874 113.872 128.539 117.511C128.652 118.128 128.731 118.711 128.775 119.258C128.785 119.381 128.76 119.505 128.703 119.616C128.645 119.726 128.557 119.819 128.449 119.882C125.376 121.671 122.359 123.448 119.399 125.213C104.178 134.281 92.1256 141.541 83.2429 146.995C81.8379 147.857 80.523 148.533 79.2983 149.023C78.1718 149.473 76.6779 149.667 75.3884 150.087Z" fill="#FFC928"/>
<path id="Vector_4" d="M62.7783 40.0416L63.0625 40.0763C63.074 40.104 63.0752 40.1341 63.066 40.1664C63.059 40.2011 63.0625 40.2334 63.0764 40.2635L75.5547 65.4142C75.4877 65.6084 75.3386 65.8209 75.1076 66.052C57.5639 83.5887 40.0273 101.124 22.4975 118.659C22.1925 118.143 22.1497 117.679 22.3693 117.265C34.7066 93.8475 47.0244 70.4183 59.3225 46.9775C60.4848 44.7591 61.624 42.5292 62.7401 40.2877C62.7748 40.2207 62.7875 40.1387 62.7783 40.0416Z" fill="#F67F17"/>
</g>
<defs>
<clipPath id="clip0_3456_4413">
<rect width="200" height="150.087" fill="white" transform="translate(-25)"/>
</clipPath>
</defs>
</svg>
