<svg width="150" height="150" viewBox="0 0 150 150" fill="none" xmlns="http://www.w3.org/2000/svg">
<g id="NestJS" opacity="0.7" clip-path="url(#clip0_3456_4381)">
<path id="Vector" d="M90.0189 13.0302C90.1988 12.6893 90.3405 12.2821 90.4438 11.8084C91.1917 8.39167 89.7889 5.0047 86.9318 3.04913C86.9283 3.0469 86.9256 3.04372 86.9239 3.03994C86.9223 3.03617 86.9217 3.03195 86.9224 3.02777C86.9231 3.02359 86.9249 3.01962 86.9277 3.01631C86.9305 3.01299 86.9342 3.01046 86.9382 3.00901C89.8238 2.03576 92.4782 2.43481 94.9014 4.20617C96.5017 5.37614 97.9807 7.01203 98.0414 9.06208C98.0474 9.25707 98.0001 9.43611 97.8993 9.59918C97.5144 10.223 96.9112 10.7213 96.2899 11.1911C94.9853 12.1734 93.921 12.959 92.8915 13.9309C90.3017 16.377 89.4557 19.6967 89.9969 23.1846C90.0245 23.3623 89.9956 23.3723 89.9104 23.2144C89.5526 22.5569 89.1418 21.8192 88.8951 21.1553C88.2019 19.2916 88.2049 17.4012 88.9041 15.484C89.1728 14.748 89.5444 13.9301 90.0189 13.0302Z" fill="#E0234E"/>
<path id="Vector_2" d="M92.1334 25.8766C90.1701 21.761 91.6697 16.8119 95.2877 14.2287C96.1828 13.5906 97.4176 12.9319 98.1887 12.3404C99.8602 11.0574 100.985 9.38657 101.564 7.32789C101.82 6.42065 101.702 5.59235 101.862 4.69804C101.867 4.66698 101.885 4.65619 101.915 4.66569C102.622 4.89002 103.31 5.15016 103.978 5.4461C104.513 5.68294 105.153 6.0738 105.753 6.38182C106.023 6.52073 106.256 6.65274 106.45 6.77785C107.832 7.66223 109.178 8.59839 110.488 9.58631C111.246 10.1584 111.898 10.72 112.444 11.2714C120 18.9099 122.011 30.5462 117.304 40.2386C116.521 41.8486 115.553 43.4767 114.45 44.8861C109.926 50.6726 103.225 54.2589 95.9425 54.8296C95.772 54.8434 95.7686 54.8745 95.9322 54.9228C103.868 57.2731 112.246 55.8055 118.932 50.9534C119.9 50.2507 120.979 49.3357 121.857 48.4543C126.382 43.9155 129.074 37.9957 129.395 31.5906C129.398 31.5406 129.416 31.5337 129.451 31.5699C131.997 34.2239 134.347 37.1691 136.501 40.4055C144.842 52.9414 150.129 67.7382 150.1 82.8948C150.075 96.2796 145.58 108.978 137.802 119.818C137.774 119.856 137.762 119.852 137.767 119.805C138.311 113.721 137.948 107.695 136.679 101.726C136.664 101.657 136.652 101.658 136.64 101.727C133.995 118.324 124.625 132.87 110.732 142.208C110.659 142.257 110.646 142.244 110.693 142.17C110.816 141.977 110.953 141.77 111.104 141.551C115.999 134.39 119.218 126.562 120.763 118.066C120.786 117.943 120.766 117.936 120.704 118.046C113.726 130.503 102.685 139.943 89.3989 145.047C83.9365 147.145 78.1059 148.358 72.2482 148.736C72.1922 148.739 72.1896 148.729 72.2404 148.706C81.599 144.311 89.3624 137.966 95.5305 129.668C95.608 129.563 95.5869 129.535 95.4672 129.586C89.6642 132.044 83.6213 133.704 77.3387 134.566C77.281 134.574 77.2254 134.566 77.172 134.542C77.1509 134.532 77.1327 134.518 77.1192 134.499C77.1057 134.48 77.0974 134.458 77.0951 134.435C77.0929 134.412 77.0968 134.389 77.1065 134.368C77.1161 134.347 77.1312 134.329 77.1501 134.315C77.6943 133.929 78.2463 133.53 78.806 133.118C83.512 129.662 87.1682 125.316 89.7748 120.082C90.0271 119.574 90.2674 119.062 90.4956 118.544C92.551 113.873 93.5973 108.978 93.6343 103.86C93.6533 101.205 93.3674 98.6036 92.7767 96.0557C92.7525 95.9521 92.7327 95.953 92.7172 96.0583C89.6986 115.673 71.397 129.659 51.6138 126.296C50.8733 126.17 50.0358 125.973 49.1015 125.705C47.0465 125.116 44.8713 124.558 42.9506 123.711C41.5952 123.112 40.2919 122.438 39.0407 121.69C38.9624 121.643 38.9637 121.597 39.0446 121.553C39.4717 121.322 39.9066 121.148 40.3492 121.03C41.6176 120.694 42.8813 120.416 44.1402 120.197C44.216 120.184 44.2225 120.155 44.1596 120.11C37.864 115.702 33.8469 103.68 40.6786 97.8365C43.2399 95.6454 46.5789 95.129 49.7177 96.4621C51.3374 97.1506 51.3374 98.9224 50.8879 100.385C50.8371 100.551 50.6735 100.912 50.3971 101.466C49.7073 102.847 49.6156 104.241 50.1219 105.648C50.3536 106.293 50.7355 106.908 51.2677 107.493C53.4118 109.853 56.5402 111.031 59.6932 110.886C59.738 110.884 59.7741 110.865 59.8017 110.83C62.0191 108.036 63.5648 104.905 64.4388 101.438C64.4569 101.367 64.4732 101.367 64.4879 101.44C64.983 103.886 65.1023 106.352 64.8457 108.837C64.8451 108.844 64.8464 108.851 64.8496 108.857C64.8527 108.863 64.8575 108.868 64.8634 108.871C64.8693 108.874 64.876 108.876 64.8827 108.875C64.8894 108.875 64.8958 108.872 64.9012 108.868C67.7584 106.728 69.6494 103.609 70.9888 100.324C71.0052 100.284 71.0345 100.261 71.0767 100.253C71.5907 100.153 72.0747 100.144 72.5285 100.226C75.2772 100.725 78.0284 102.615 78.7324 105.449C78.7367 105.466 78.7474 105.472 78.7646 105.47H78.7659C78.7823 105.466 78.7896 105.456 78.7879 105.439C75.7189 78.9565 51.0713 61.4263 25.0236 67.4314C24.9946 67.438 24.9673 67.4506 24.9433 67.4684C24.9193 67.4862 24.8991 67.5089 24.8841 67.535C24.2718 68.5703 21.7079 72.7468 20.5583 72.8956C20.4986 72.9031 20.4382 72.8893 20.3878 72.8566C20.3375 72.8239 20.3004 72.7745 20.2832 72.717C20.1884 72.3969 20.1307 72.0686 20.1101 71.7321C19.9977 69.884 20.1695 68.0941 20.2689 66.255C20.2724 66.1808 20.2543 66.1752 20.2147 66.2382C19.3777 67.5596 18.52 68.9237 17.4544 70.0665C17.2934 70.2399 17.1134 70.3706 16.9145 70.4586C16.8878 70.4704 16.8589 70.4767 16.8297 70.4771C16.8005 70.4774 16.7715 70.4719 16.7445 70.4608C16.7175 70.4496 16.693 70.4332 16.6725 70.4124C16.652 70.3915 16.6359 70.3668 16.6252 70.3395C16.3901 69.7287 16.3694 68.8706 16.3784 68.2209C16.3896 67.396 16.4198 66.5721 16.4689 65.7489C16.4704 65.7295 16.465 65.7101 16.4537 65.6943C16.4423 65.6784 16.4257 65.667 16.4069 65.6622C13.6194 64.9362 11.412 63.1411 10.1255 60.5824C9.67857 59.6933 9.49516 58.874 9.27686 57.915C9.272 57.8948 9.26262 57.876 9.24943 57.8598C9.23624 57.8437 9.21957 57.8307 9.20066 57.8218C8.30768 57.4172 7.69371 57.0751 7.35874 56.7955C5.71316 55.4211 3.88932 54.1721 3.56124 51.8451C3.48245 51.2951 3.57932 50.6829 3.64391 50.0824C4.0637 46.1467 6.88728 42.4918 10.8088 41.3891C11.8227 41.1044 12.9814 41.1096 14.0522 40.8106C15.4045 40.434 16.9106 40.0872 18.1157 39.6575C22.1604 38.2114 25.6509 35.8766 28.5873 32.6532C29.7989 31.3236 31.1198 29.997 32.5501 28.6734C33.0874 28.1765 33.7436 27.7131 34.3339 27.22C35.0495 26.6221 36.1655 25.9185 37.6819 25.1092C39.4782 24.1497 41.3085 23.2615 43.1728 22.4444C43.8324 22.1562 44.4954 21.9245 45.1619 21.7494C55.4914 19.0483 66.2665 18.8011 76.7251 20.8952C77.9419 21.1394 79.8001 21.5971 82.2999 22.2684C83.0637 22.4737 83.8336 22.7278 84.6094 23.0307C87.0998 24.003 89.5927 24.9681 92.0882 25.9258C92.1433 25.9465 92.1584 25.9301 92.1334 25.8766Z" fill="#E0234E"/>
</g>
<defs>
<clipPath id="clip0_3456_4381">
<rect width="150" height="150" fill="white"/>
</clipPath>
</defs>
</svg>
