<svg width="131" height="147" viewBox="0 0 131 147" fill="none" xmlns="http://www.w3.org/2000/svg">
<g id="nodejs" clip-path="url(#clip0_3559_4889)">
<path id="Vector" d="M64.2047 0H67.2088C68.9358 0.320133 70.5314 0.903233 71.9957 1.7493C89.7513 12.0164 107.515 22.2721 125.287 32.5164C128.485 34.3621 130.389 37.2237 131 41.1012V106.07C130.143 111.098 127.676 113.161 123.076 115.812C106.732 125.246 90.3899 134.676 74.0494 144.104C71.5902 145.525 69.663 146.368 68.2676 146.632C64.2884 147.397 61.6142 146.422 57.9452 144.241C52.2948 140.89 46.5919 137.514 40.8364 134.113C40.3275 133.809 40.1896 133.386 40.4228 132.844C40.4917 132.687 40.7609 132.54 41.2304 132.403C44.251 131.527 47.0007 130.302 49.4795 128.728C49.6485 128.62 49.8445 128.562 50.0455 128.56C50.2464 128.557 50.4444 128.61 50.6171 128.713L64.6577 137.097C64.904 137.243 65.1849 137.321 65.4715 137.322C65.758 137.324 66.0398 137.25 66.2879 137.107L120.259 105.962C120.81 105.642 121.086 105.164 121.086 104.527V42.1106C121.086 41.8648 121.022 41.6236 120.899 41.4111C120.776 41.1987 120.6 41.0225 120.387 40.9003L66.1549 9.7461C65.9532 9.62859 65.7234 9.56667 65.4889 9.56667C65.2544 9.56667 65.0237 9.62859 64.8203 9.7461L10.7163 40.8317C10.4617 40.9779 10.2503 41.188 10.1033 41.4409C9.95632 41.6938 9.87899 41.9805 9.87907 42.2723V104.6C9.87895 104.864 9.94891 105.124 10.082 105.353C10.215 105.583 10.4066 105.774 10.6375 105.909C15.6903 108.845 20.8171 111.793 26.0177 114.753C30.0856 117.066 36.3056 116.243 38.0047 111.367C38.264 110.622 38.3937 109.453 38.3937 107.859C38.4003 87.7165 38.4019 67.6445 38.3987 47.6427C38.3987 47.2177 38.5683 46.8102 38.8703 46.5097C39.1723 46.2092 39.582 46.0404 40.0091 46.0404L46.9038 46.0306C47.3596 46.0306 47.7968 46.2103 48.1191 46.53C48.4415 46.8498 48.6226 47.2836 48.6226 47.7358C48.6291 68.3811 48.6258 89.0559 48.6127 109.76C48.6078 116.919 44.9487 123.789 37.5467 125.415C30.0018 127.077 24.3679 125.009 17.9164 121.344C13.8386 119.024 9.76251 116.705 5.68805 114.386C3.26833 113.007 1.65299 111.029 0.842038 108.452C0.441487 107.188 0.241211 104.772 0.241211 101.205C0.241211 82.5846 0.241211 63.9646 0.241211 45.3446C0.241211 42.0714 0.466111 39.7962 0.91591 38.5189C2.08802 35.1967 4.14659 33.5748 7.42159 31.6834C25.0918 21.4816 42.7637 11.2831 60.4372 1.0878C61.1135 0.6958 62.3693 0.3332 64.2047 0Z" fill="#539E43"/>
<path id="Vector_2" d="M97.2108 63.8274C95.6694 58.1581 93.463 55.3063 87.4055 54.3361C81.9341 53.459 65.4359 52.1507 66.3618 61.9899C66.677 65.3856 70.4149 66.1794 73.1433 66.7037C82.0523 68.4236 91.6162 68.8401 99.9786 71.7801C104.406 73.3383 108.07 76.5576 108.932 81.5605C111.542 96.6574 100.062 102.753 87.1691 103.9C74.601 105.017 54.9018 102.876 53.7986 86.24C53.7149 84.9317 53.183 82.5895 55.281 82.5258C57.6974 82.454 60.1401 82.4311 62.6091 82.4572C62.905 82.4609 63.1902 82.5692 63.4138 82.763C63.6374 82.9568 63.7851 83.2235 63.8305 83.5156C64.579 88.3568 66.2387 91.7819 71.2965 93.2372C77.1915 94.9277 96.2357 96.4467 98.3386 88.2196C99.4467 83.8635 97.7575 81.7957 93.6797 80.556C87.5385 78.6891 81.1953 78.2873 74.862 77.4837C67.3172 76.5282 57.7976 74.1566 55.9458 65.4395C54.1286 56.8792 58.3245 49.6027 66.3717 46.4863C71.4738 44.5116 76.5414 44.0608 82.1901 44.1686C94.7878 44.4185 106.701 48.8628 107.174 63.3374C107.203 64.2782 106.648 64.765 105.509 64.7976C103.152 64.863 100.857 64.8989 98.6242 64.9054C98.3035 64.9056 97.9914 64.8001 97.736 64.6053C97.4806 64.4106 97.2961 64.1372 97.2108 63.8274Z" fill="#539E43"/>
</g>
<defs>
<clipPath id="clip0_3559_4889">
<rect width="131" height="147" fill="white"/>
</clipPath>
</defs>
</svg>
