<svg width="150" height="143" viewBox="0 0 150 143" fill="none" xmlns="http://www.w3.org/2000/svg">
<g id="redux 1" clip-path="url(#clip0_3559_5005)">
<path id="Vector" d="M103.934 99.5467C109.47 98.9736 113.669 94.2018 113.478 88.4748C113.287 82.7484 108.515 78.167 102.789 78.167H102.407C96.4892 78.358 91.9084 83.3209 92.0994 89.2383C92.2904 92.1018 93.4353 94.5832 95.1533 96.3012C88.6635 109.091 78.7377 118.444 63.849 126.271C53.7322 131.616 43.234 133.525 32.7357 132.189C24.1459 131.043 17.465 127.226 13.265 120.926C7.15722 111.572 6.58476 101.455 11.7387 91.3383C15.3656 84.0844 21.0914 78.7394 24.7184 76.067C23.9549 73.5855 22.8094 69.3861 22.2369 66.3322C-5.44102 86.3754 -2.57755 113.481 5.82128 126.271C12.1201 135.816 24.9094 141.733 39.0346 141.733C42.8519 141.733 46.6693 141.351 50.4873 140.397C74.9203 135.625 93.4359 121.117 103.934 99.5467ZM137.529 75.8766C123.022 58.8873 101.644 49.534 77.2107 49.534H74.1568C72.4389 46.098 68.8119 43.807 64.8035 43.807H64.4215C58.5047 43.998 53.9238 48.9609 54.1142 54.8789C54.3053 60.6053 59.0771 65.1867 64.8035 65.1867H65.1849C69.3844 64.9957 73.0113 62.3232 74.5383 58.6963H77.9742C92.4814 58.6963 106.225 62.8957 118.632 71.1041C128.176 77.4035 135.048 85.6119 138.865 95.5377C142.11 103.555 141.919 111.381 138.483 118.063C133.139 128.18 124.168 133.716 112.333 133.716C104.698 133.716 97.4443 131.425 93.6264 129.707C91.5269 131.616 87.709 134.67 85.0365 136.579C93.2449 140.396 101.644 142.496 109.661 142.496C127.985 142.496 141.538 132.379 146.692 122.262C152.227 111.19 151.845 92.1018 137.529 75.8766ZM40.5615 102.791C40.7525 108.518 45.5244 113.099 51.2508 113.099H51.6328C57.5502 112.908 62.131 107.945 61.94 102.028C61.7496 96.3006 56.9771 91.7197 51.2508 91.7197H50.8693C50.4873 91.7197 49.9142 91.7197 49.5334 91.9102C41.707 78.9299 38.4621 64.8047 39.6076 49.5334C40.3705 38.0801 44.1885 28.1537 50.8693 19.9453C56.4047 12.8824 67.0939 9.44648 74.3478 9.25605C94.5808 8.87402 103.17 34.0711 103.743 44.1885C106.225 44.7609 110.424 46.0975 113.287 47.052C110.996 16.1285 91.9084 0.09375 73.5844 0.09375C56.4047 0.09375 40.5615 12.5016 34.2621 30.8268C25.4818 55.2604 31.2082 78.7394 41.8974 97.2557C40.9435 98.5916 40.3705 100.691 40.5615 102.791Z" fill="#764ABC"/>
</g>
<defs>
<clipPath id="clip0_3559_5005">
<rect width="150" height="143" fill="white"/>
</clipPath>
</defs>
</svg>
