<svg width="150" height="129" viewBox="0 0 150 129" fill="none" xmlns="http://www.w3.org/2000/svg">
<g id="Vue" clip-path="url(#clip0_3456_4368)">
<path id="Vector" d="M29.9775 0.132568L74.8913 77.6113C74.903 77.6307 74.9194 77.6468 74.9392 77.6579C74.9589 77.6691 74.9811 77.675 75.0038 77.675C75.0264 77.675 75.0487 77.6691 75.0684 77.6579C75.0881 77.6468 75.1046 77.6307 75.1163 77.6113L120.026 0.132568" stroke="#3B8171" stroke-width="2"/>
<path id="Vector_2" d="M0 0.128678L29.9775 0.132428L74.8912 77.6112C74.9029 77.6306 74.9194 77.6467 74.9391 77.6578C74.9588 77.669 74.9811 77.6748 75.0037 77.6748C75.0264 77.6748 75.0487 77.669 75.0684 77.6578C75.0881 77.6467 75.1046 77.6306 75.1162 77.6112L120.026 0.132428L149.809 0.128678C149.829 0.128345 149.848 0.133385 149.865 0.143292C149.882 0.153199 149.897 0.167623 149.906 0.185111C149.916 0.202599 149.921 0.222535 149.921 0.24291C149.921 0.263286 149.916 0.283382 149.906 0.301177L75.1087 129.331C75.0976 129.351 75.0815 129.367 75.062 129.378C75.0426 129.389 75.0206 129.395 74.9981 129.395C74.9757 129.395 74.9536 129.389 74.9342 129.378C74.9148 129.367 74.8987 129.351 74.8875 129.331L0 0.267427V0.128678Z" fill="#41B883"/>
<path id="Vector_3" d="M29.9775 0.132413L57.5663 0.128662C57.6277 0.128573 57.6881 0.144819 57.7414 0.175763C57.7947 0.206708 57.8391 0.251255 57.87 0.304912L74.8875 29.6562C74.8993 29.6763 74.9172 29.691 74.9394 29.6987C74.9616 29.7064 74.9874 29.7069 75.0143 29.7001C75.0411 29.6933 75.0681 29.6794 75.0926 29.6599C75.117 29.6404 75.1381 29.6158 75.1538 29.5887L92.1338 0.297412C92.1634 0.246042 92.2057 0.20339 92.2564 0.173761C92.3071 0.144132 92.3644 0.128576 92.4225 0.128662L120.026 0.132413L75.1163 77.6112C75.1046 77.6306 75.0881 77.6466 75.0684 77.6578C75.0487 77.6689 75.0264 77.6748 75.0038 77.6748C74.9811 77.6748 74.9589 77.6689 74.9392 77.6578C74.9194 77.6466 74.903 77.6306 74.8913 77.6112L29.9775 0.132413Z" fill="#35495E"/>
</g>
<defs>
<clipPath id="clip0_3456_4368">
<rect width="150" height="129" fill="white"/>
</clipPath>
</defs>
</svg>
