<svg width="101" height="150" viewBox="0 0 101 150" fill="none" xmlns="http://www.w3.org/2000/svg">
<g id="Pinia" clip-path="url(#clip0_3559_4948)">
<g id="Group">
<path id="Vector" d="M69.1912 21.6113C69.1732 21.7112 69.1347 21.7807 69.0758 21.82C69.0251 21.8527 68.9891 21.8413 68.9678 21.7856C68.9498 21.7398 68.9236 21.712 68.8892 21.7022C68.6061 21.6187 68.309 21.631 67.9981 21.739C67.9211 21.7668 67.8426 21.7693 67.7624 21.7464C67.5202 21.6776 67.1912 21.6563 66.7755 21.6825C66.5071 21.6989 66.0619 21.6588 65.44 21.5622C64.9522 21.4853 64.5103 21.4321 64.1143 21.4027C62.6151 21.2897 61.1208 21.1318 59.6315 20.9288C59.2452 20.8748 58.2951 20.7734 56.7812 20.6244C55.8254 20.5295 54.8794 20.3732 53.9432 20.1555C53.6315 20.0843 53.3074 20.1089 52.9735 20.0279C52.6675 19.9542 52.431 19.9149 52.264 19.91C50.9203 19.8675 49.8041 19.7693 48.9154 19.6154C48.228 19.4959 47.6216 19.419 47.0963 19.3847C46.3868 19.3356 45.7362 19.2251 45.0488 19.1833C44.7231 19.1653 44.1716 18.9763 43.3941 18.6162C43.3025 18.572 43.2067 18.5835 43.1069 18.6506C43.1003 18.6553 43.0924 18.6575 43.0844 18.6569C43.0765 18.6564 43.0689 18.6531 43.0628 18.6475C43.0567 18.642 43.0524 18.6345 43.0507 18.6262C43.0489 18.6179 43.0497 18.6092 43.0529 18.6015C43.0627 18.5802 43.075 18.559 43.0897 18.5377C43.1225 18.4869 43.1077 18.4796 43.0455 18.5156C43.0112 18.5352 42.9743 18.5401 42.9351 18.5303" stroke="#66D877" stroke-width="2"/>
<path id="Vector_2" d="M70.3355 35.1678C70.0507 40.6572 69.1637 46.0729 67.6743 51.415" stroke="#53BA5E" stroke-width="2"/>
<path id="Vector_3" d="M67.6742 51.4149C64.8771 49.7259 62.3231 48.4493 60.0121 47.5851C52.7454 44.8699 45.1316 44.5712 37.1709 46.689" stroke="#AAD764" stroke-width="2"/>
<path id="Vector_4" d="M37.171 46.6891C37.1628 41.2341 37.6522 35.8732 38.6391 30.6064" stroke="#53C060" stroke-width="2"/>
<path id="Vector_5" d="M37.171 46.6891C35.8829 47.095 35.0532 47.3691 34.6816 47.5115C31.2152 48.8249 27.8617 50.6343 24.7414 52.8708C22.0139 54.8249 20.6121 56.2734 18.297 58.4362C17.8191 58.883 17.3338 59.4411 16.8412 60.1105C16.8101 60.1547 16.7283 60.2022 16.5957 60.2529" stroke="#A8C85F" stroke-width="2"/>
<path id="Vector_6" d="M90.1791 62.9214C90.1185 62.8969 90.085 62.8715 90.0784 62.8453C90.0621 62.7766 90.0833 62.7234 90.1423 62.6857C90.1553 62.6776 90.1553 62.6694 90.1423 62.6612C90.0997 62.6366 90.0514 62.6276 89.9974 62.6342C89.9874 62.6352 89.9773 62.6335 89.9681 62.6293C89.959 62.6251 89.9511 62.6186 89.9453 62.6103C89.9396 62.602 89.9361 62.5924 89.9354 62.5823C89.9346 62.5723 89.9365 62.5622 89.9409 62.5532C89.9524 62.5286 89.9647 62.5041 89.9778 62.4795C89.9925 62.4517 89.9884 62.4263 89.9655 62.4034C89.7331 62.1743 89.5727 61.9738 89.4843 61.802C89.4581 61.7496 89.4581 61.6849 89.4843 61.608C89.5138 61.5229 89.5031 61.4427 89.4524 61.3674C89.4066 61.297 89.3861 61.2193 89.391 61.1342C89.3927 61.0884 89.3894 61.0434 89.3812 60.9992L89.1455 59.8085C89.1357 59.7578 89.1177 59.7111 89.0915 59.6686C89.0637 59.6211 89.0506 59.5761 89.0522 59.5335C89.0555 59.3846 89.0563 59.3052 89.0547 59.2954C88.968 58.9157 88.8411 58.5491 88.6742 58.1956C88.5146 57.8543 88.193 57.7635 88.0948 57.3265C88.0821 57.276 88.0515 57.2323 88.0089 57.2037C87.8763 57.1137 87.8051 56.9844 87.7953 56.8159C87.7887 56.7209 87.7642 56.6326 87.7216 56.5507C87.5383 56.2005 87.3984 55.8322 87.3018 55.446C87.2806 55.3592 87.2446 55.2799 87.1938 55.2078C87.0989 55.0769 87.0252 54.9312 86.9729 54.7709C86.9467 54.6939 86.95 54.6178 86.9827 54.5425C87.0318 54.4312 87.0113 54.338 86.9213 54.2627C86.8591 54.2103 86.8149 54.1456 86.7887 54.0687C86.7265 53.8887 86.6635 53.7111 86.5997 53.536C86.4745 53.1923 86.2315 52.8952 86.0621 52.5565C85.9917 52.4124 85.8845 52.2594 85.7405 52.0974C85.5899 51.9288 85.4712 51.7398 85.3845 51.5303C85.1635 51.0024 84.8174 50.6514 84.675 50.0794C84.657 50.0041 84.621 49.9386 84.567 49.883C84.2282 49.5393 84.058 49.1227 84.0563 48.6334C84.0564 48.593 84.0484 48.5531 84.0328 48.516C84.0171 48.4789 83.9943 48.4453 83.9655 48.4173C83.8084 48.2668 83.7593 48.0826 83.8182 47.865C83.8264 47.8371 83.8182 47.815 83.7937 47.7987C83.7724 47.7839 83.7544 47.7659 83.7396 47.7447C83.7085 47.6939 83.7225 47.6645 83.7814 47.6563C83.9303 47.6366 83.9737 47.5515 83.9115 47.401C83.9 47.3699 83.8771 47.3535 83.8427 47.3519C83.8182 47.3502 83.7945 47.3494 83.7716 47.3494C83.6979 47.351 83.6504 47.3167 83.6292 47.2463C83.6013 47.1546 83.5981 47.0614 83.6193 46.9664C83.6373 46.8879 83.6243 46.815 83.5801 46.7479C83.3526 46.4042 83.2241 46.027 83.1946 45.6162C83.1897 45.5344 83.1537 45.4689 83.0866 45.4198C82.959 45.3265 82.8976 45.2078 82.9025 45.0638C82.9197 44.6244 82.8976 44.4083 82.5932 44.1137C82.5375 44.0597 82.499 43.9951 82.4778 43.9198C82.3845 43.5933 81.9549 43.0777 81.9647 42.8224C81.9662 42.7459 81.942 42.6707 81.8959 42.6088C81.6652 42.3044 81.4892 41.9697 81.3681 41.6047C81.3599 41.5785 81.3567 41.5425 81.3583 41.4967C81.3599 41.4509 81.3477 41.4116 81.3215 41.3789C81.274 41.3183 81.2568 41.2512 81.2699 41.1776C81.319 40.8993 81.2552 40.644 81.0784 40.4116C81.031 40.3494 81.0031 40.2782 80.995 40.198C80.9737 39.9967 80.8992 39.8142 80.7716 39.6506C80.7669 39.6391 80.7597 39.6206 80.751 39.5974C80.7422 39.5742 80.7323 39.5473 80.7225 39.5204C80.711 39.4893 80.6824 39.4705 80.6365 39.464C80.5662 39.4542 80.5285 39.4141 80.5236 39.3437C80.4958 38.9231 80.3943 38.5237 80.2192 38.1456C79.6889 36.9943 79.3869 35.973 79.0162 35.0352C78.5891 33.9574 78.2896 32.8183 77.99 31.6988C77.9851 31.6759 77.986 31.6563 77.9925 31.6399C77.9991 31.6219 78.0195 31.6039 78.0539 31.5859C78.0735 31.5761 78.0727 31.572 78.0514 31.5736C77.9483 31.5867 77.8509 31.5704 77.7593 31.5245" stroke="#51AB59" stroke-width="2"/>
<path id="Vector_7" d="M84.5843 69.5966C83.8233 68.4157 83.1162 67.1195 82.338 66.0221C79.1637 61.5491 75.7439 57.626 71.4771 54.1547C70.9894 53.7586 69.7218 52.8454 67.6743 51.4149" stroke="#A8C25D" stroke-width="2"/>
<path id="Vector_8" d="M93.1519 93.3584L93.2575 94.3134C93.2673 94.3903 93.2346 94.4411 93.1593 94.4656C92.9907 94.5196 92.8802 94.4722 92.8279 94.3232C92.8017 94.2414 92.7485 94.2152 92.6683 94.2447C92.5406 94.2938 92.4072 94.32 92.2681 94.3232C92.1896 94.3249 92.1355 94.2889 92.1061 94.2152C92.0341 94.0319 91.9089 93.9403 91.7305 93.9403C91.4572 93.9403 91.3082 93.9378 91.2837 93.9329C90.9989 93.8674 90.7207 93.7864 90.449 93.6899C90.4408 93.6866 90.4334 93.6882 90.4269 93.6948L90.3557 93.766C90.3457 93.7767 90.3335 93.7851 90.3199 93.7906C90.3064 93.7961 90.2917 93.7986 90.2771 93.7979L88.1094 93.6874C88.0324 93.6825 87.9563 93.6882 87.881 93.7046C87.7665 93.7308 87.6511 93.7324 87.5349 93.7095C87.4563 93.6948 87.377 93.6956 87.2968 93.7119C87.0251 93.766 86.7575 93.7676 86.494 93.7169C86.0684 93.6383 85.8499 93.5982 85.8385 93.5966C85.1069 93.5229 84.4244 93.4591 83.6879 93.4885C83.2853 93.5057 82.8311 93.3412 82.4359 93.5499C82.3929 93.5723 82.3437 93.58 82.2959 93.572L81.6012 93.4444C81.5177 93.428 81.4391 93.4411 81.3655 93.4836C81.2231 93.5638 81.0766 93.5728 80.9261 93.5106C80.8393 93.473 80.7738 93.4574 80.7297 93.464C80.6331 93.4804 80.5374 93.5221 80.4424 93.5892C80.3868 93.6301 80.3246 93.6416 80.2558 93.6236C79.8369 93.5123 79.4056 93.5016 78.9621 93.5917C78.9412 93.5956 78.9198 93.5917 78.902 93.5808C78.8842 93.5698 78.8715 93.5526 78.8663 93.5327C78.8581 93.4984 78.8418 93.4714 78.8172 93.4517C78.7812 93.4206 78.7297 93.4002 78.6626 93.3903C78.0865 93.2987 77.5202 93.1628 76.9637 92.9828C76.5496 92.8502 75.71 92.757 74.4449 92.7029C74.3581 92.6997 74.2984 92.6571 74.2657 92.5753C74.2509 92.5344 74.2297 92.5016 74.2018 92.4771C74.1527 92.4313 74.1085 92.4362 74.0693 92.4918L73.7673 92.919C73.7509 92.9419 73.7468 92.9574 73.755 92.9656C73.7763 92.9902 73.8017 93.0131 73.8311 93.0344C73.8786 93.0687 73.8737 93.0941 73.8164 93.1105L73.5562 93.1866C73.5414 93.1899 73.5357 93.1997 73.539 93.216L73.5586 93.3191C73.5734 93.401 73.5398 93.446 73.458 93.4542L73.2886 93.4738" stroke="#FFDA5A" stroke-width="2"/>
<path id="Vector_9" d="M73.289 93.4738C74.9093 91.009 75.1671 88.3691 74.0623 85.554C73.2497 83.482 71.2293 81.6457 69.1081 81.0221C65.5852 79.9837 62.2023 81.0418 60.005 83.9607C58.3111 86.2095 57.9707 88.8609 58.9838 91.9149" stroke="#FFEFB1" stroke-width="2"/>
<path id="Vector_10" d="M58.9836 91.915C58.5646 92.1097 58.3502 92.0672 58.3404 91.7873C58.3393 91.7472 58.3299 91.7079 58.3128 91.6716C58.2956 91.6354 58.2712 91.6031 58.241 91.5768C58.2107 91.5505 58.1754 91.5308 58.1372 91.5188C58.0989 91.5069 58.0586 91.503 58.0188 91.5074C57.5392 91.5598 57.0712 91.5344 56.6145 91.4313C56.5687 91.4215 56.5343 91.3953 56.5114 91.3528L56.477 91.2889C56.4476 91.2349 56.4018 91.2055 56.3396 91.2005C55.7577 91.1539 55.2275 90.9673 54.6554 90.9501C53.995 90.9305 53.2954 90.7979 52.635 90.8765C52.1612 90.933 51.788 90.7906 51.3117 90.8004C51.2332 90.802 51.1603 90.7816 51.0932 90.739C50.5851 90.4174 49.9615 90.55 49.3993 90.4714C48.9296 90.4027 48.563 90.3708 48.2995 90.3757C46.5973 90.4084 44.8952 90.4174 43.1931 90.4027C43.1194 90.401 43.0589 90.428 43.0114 90.4837C42.9656 90.5377 42.9124 90.5623 42.8518 90.5573C42.806 90.5541 42.7757 90.5303 42.761 90.4861C42.7479 90.442 42.7185 90.4141 42.6726 90.4027C42.6072 90.3863 42.5458 90.3978 42.4885 90.4371C42.3641 90.5238 42.2225 90.5344 42.0638 90.469C41.9983 90.4428 41.9869 90.401 42.0294 90.3438C42.0965 90.2488 42.0662 90.1621 41.9386 90.0835C41.6014 89.8757 41.243 89.6965 40.8633 89.5459C40.8027 89.5213 40.7577 89.5377 40.7283 89.595C40.7135 89.6228 40.6996 89.6506 40.6865 89.6785C40.6771 89.6971 40.6623 89.7123 40.644 89.7223C40.6257 89.7323 40.6048 89.7365 40.584 89.7344C40.5633 89.7323 40.5437 89.7239 40.5278 89.7104C40.5119 89.6969 40.5005 89.6789 40.495 89.6588C40.4541 89.505 40.3829 89.4796 40.2815 89.5827C40.2127 89.6531 40.1415 89.6555 40.0679 89.5901C39.9271 89.4657 39.8101 89.4927 39.7168 89.6711C39.7112 89.6822 39.7019 89.6911 39.6904 89.6964C39.6788 89.7018 39.6657 89.7032 39.653 89.7006C39.6055 89.6875 39.5695 89.6596 39.545 89.6171C39.509 89.5582 39.4787 89.5614 39.4541 89.6269L39.3731 89.8454C39.3453 89.9207 39.2921 89.9501 39.2135 89.9338C38.9533 89.883 38.6931 89.8282 38.4329 89.7693C37.8633 89.6416 37.3281 89.8086 36.7266 89.7251C36 89.6244 35.5065 89.7104 34.8584 89.8601C34.662 89.906 34.5433 89.8413 34.5024 89.6662C34.5003 89.6555 34.4957 89.6456 34.489 89.637C34.4823 89.6285 34.4736 89.6216 34.4637 89.6168C34.4538 89.6121 34.4428 89.6097 34.4316 89.6097C34.4205 89.6098 34.4094 89.6123 34.3993 89.6171C34.1784 89.7284 34.0106 89.7783 33.896 89.7668C33.8322 89.7603 33.7782 89.7799 33.734 89.8258C33.6538 89.9109 33.6456 89.9952 33.7094 90.0786C33.7218 90.0959 33.7289 90.1165 33.7298 90.1378C33.7308 90.159 33.7255 90.18 33.7148 90.1981C33.704 90.2162 33.6882 90.2306 33.6694 90.2395C33.6505 90.2484 33.6294 90.2513 33.6088 90.248C33.5531 90.2398 33.5098 90.2505 33.4787 90.2799C33.4181 90.3372 33.4165 90.3953 33.4738 90.4542C33.572 90.5524 33.5777 90.6719 33.491 90.8127C33.3797 90.9943 33.2389 91.149 33.0687 91.2767C33.0556 91.2848 33.0564 91.2914 33.0712 91.2963C33.0908 91.3012 33.1104 91.3094 33.1301 91.3208C33.1546 91.3389 33.1579 91.3601 33.1399 91.3847C32.8944 91.7071 32.581 91.9469 32.1996 92.104C32.1905 92.1078 32.1825 92.1137 32.1762 92.1214C32.17 92.1291 32.1657 92.1383 32.1638 92.1482C32.1619 92.158 32.1623 92.1683 32.1652 92.1782C32.168 92.188 32.1731 92.1971 32.18 92.2046C32.2864 92.3127 32.2766 92.4027 32.1505 92.4747C32.0114 92.5549 31.8854 92.5827 31.7725 92.5582" stroke="#FFDA5A" stroke-width="2"/>
<path id="Vector_11" d="M31.7723 92.5581C32.3925 91.7496 32.7649 91.2145 32.8893 90.9526C34.5734 87.3757 33.9547 83.3446 30.9179 80.8208C27.8074 78.2333 23.0104 78.2455 20.0546 81.1203C17.0718 84.0197 16.3991 89.158 19.5341 92.4452" stroke="#FFEFB1" stroke-width="2"/>
<path id="Vector_12" d="M19.5342 92.4452C19.6062 92.6629 19.5399 92.7709 19.3354 92.7693C17.5481 92.7668 14.3689 93.4542 14.8943 95.8822" stroke="#F5C697" stroke-width="2"/>
<path id="Vector_13" d="M14.8944 95.8822C14.5704 95.6416 14.3298 95.5597 14.1727 95.6367C13.8208 95.8085 13.4476 95.9108 13.0532 95.9435C12.9681 95.9517 12.8961 95.9853 12.8372 96.0442L12.7365 96.1448C12.6629 96.2168 12.608 96.2054 12.572 96.1105C12.4378 95.7635 12.1866 95.5974 11.8183 95.6121C11.3601 95.6301 10.9975 95.6424 10.7308 95.6489C10.0925 95.6661 9.65303 95.288 8.93863 95.3494C8.85516 95.356 8.77414 95.3453 8.69558 95.3175C8.49427 95.2422 8.28478 95.1964 8.06711 95.18C7.99346 95.1751 7.95336 95.1367 7.94681 95.0646C7.91899 94.8028 7.78642 94.6727 7.5491 94.6743C6.71932 94.6743 5.89035 94.6735 5.0622 94.6718C4.95418 94.6702 4.91326 94.6285 4.93945 94.5466C4.96072 94.4779 4.94272 94.4214 4.88544 94.3772L4.53683 94.1146C4.52688 94.1072 4.51453 94.1039 4.50224 94.1053C4.48996 94.1066 4.47863 94.1126 4.47054 94.1219C4.41326 94.1923 4.3658 94.1923 4.32815 94.1219C4.29215 94.0548 4.23814 94.0131 4.16612 93.9967L2.88953 93.6972C2.80933 93.6776 2.73732 93.6931 2.67349 93.7439C2.61948 93.788 2.55729 93.7905 2.48691 93.7512C2.37398 93.6841 2.2856 93.6137 2.22177 93.5401C2.15794 93.4648 2.08347 93.4509 1.99837 93.4984C1.97054 93.5131 1.93863 93.5172 1.90262 93.5106C1.82734 93.4959 1.77333 93.5221 1.74059 93.5892C1.69149 93.689 1.6203 93.7627 1.52701 93.8101C1.45827 93.8445 1.41981 93.8993 1.41162 93.9746C1.40671 94.0188 1.40999 94.063 1.42144 94.1072C1.44272 94.1956 1.40835 94.2332 1.31833 94.2201L1.14648 94.1931" stroke="#FFDA5A" stroke-width="2"/>
<path id="Vector_14" d="M44.8847 67.068C44.8389 67.1515 44.7587 67.2472 44.6441 67.3552C43.1466 68.7497 41.7039 70.203 40.316 71.7153C39.8921 72.1768 39.6441 72.5451 39.5721 72.82C39.2775 73.9395 40.6597 75.0344 41.7055 74.7227C42.0116 74.631 42.4322 74.3372 42.9674 73.8413C44.4322 72.4845 45.8193 71.0705 47.1286 69.5991C47.1662 69.5569 47.2178 69.5297 47.2741 69.5225C47.3305 69.5153 47.3877 69.5285 47.4355 69.5598C47.6728 69.7169 47.9027 69.9117 48.1253 70.1441C49.3823 71.4665 50.6703 72.7554 51.9895 74.0107C52.5615 74.5533 53.3667 74.9927 54.1523 74.6785C55.2816 74.2292 55.613 72.9109 54.798 71.9927C53.3495 70.3552 51.6556 68.7742 49.9445 67.1048C49.9261 67.0866 49.9116 67.0649 49.9018 67.041C49.892 67.0171 49.8871 66.9914 49.8873 66.9656C49.8875 66.9398 49.8929 66.9142 49.9032 66.8905C49.9134 66.8668 49.9283 66.8453 49.9469 66.8274C51.9044 64.9583 53.8365 63.0434 55.7432 61.0827C56.3545 60.4567 57.798 59.3323 58.1687 58.5934C58.8512 57.2308 57.7833 55.7259 56.3152 56.0672C55.9387 56.1556 55.5468 56.4051 55.1392 56.8159C52.681 59.2922 50.1818 61.7988 47.6417 64.3356C47.6092 64.3679 47.5705 64.3934 47.528 64.4105C47.4855 64.4275 47.4399 64.4359 47.3941 64.4349C47.3483 64.434 47.3031 64.4239 47.2613 64.4051C47.2195 64.3864 47.1819 64.3594 47.1507 64.3258C46.1147 63.2014 45.0312 62.0925 43.9003 60.9993C42.4666 59.6122 40.9838 57.9772 39.442 56.5484C38.708 55.8683 37.6941 55.8094 36.9551 56.514C35.9977 57.4272 36.5132 58.4412 37.3062 59.2955C38.6736 60.7709 40.235 62.1875 41.5582 63.5549C42.6122 64.6433 43.7047 65.7153 44.8356 66.7709C44.9273 66.8577 44.9437 66.9567 44.8847 67.068Z" stroke="#FFD655" stroke-width="2"/>
<path id="Vector_15" d="M31.7725 92.5581C30.4591 93.7095 29.261 94.721 27.5303 95.0696" stroke="#FFEAA8" stroke-width="2"/>
<path id="Vector_16" d="M27.5301 95.0696C24.3501 95.6882 21.6848 94.8134 19.5342 92.4452" stroke="#F5D6E5" stroke-width="2"/>
<path id="Vector_17" d="M30.9917 87.0737C30.9917 85.6576 30.4292 84.2994 29.4278 83.2981C28.4264 82.2967 27.0683 81.7341 25.6521 81.7341C24.236 81.7341 22.8778 82.2967 21.8764 83.2981C20.8751 84.2994 20.3125 85.6576 20.3125 87.0737C20.3125 88.4899 20.8751 89.848 21.8764 90.8494C22.8778 91.8508 24.236 92.4133 25.6521 92.4133C27.0683 92.4133 28.4264 91.8508 29.4278 90.8494C30.4292 89.848 30.9917 88.4899 30.9917 87.0737Z" stroke="#808080" stroke-width="2"/>
<path id="Vector_18" d="M73.289 93.4739L72.334 94.5713" stroke="#FFEAA8" stroke-width="2"/>
<path id="Vector_19" d="M72.3339 94.5713C70.2177 96.6204 67.6072 97.3389 64.5024 96.7268" stroke="#F5D6E5" stroke-width="2"/>
<path id="Vector_20" d="M64.5022 96.7267C61.9539 95.9869 60.1143 94.383 58.9834 91.9149" stroke="#FFEAA8" stroke-width="2"/>
<path id="Vector_21" d="M71.8993 88.7873C71.8993 87.3738 71.3378 86.0181 70.3383 85.0186C69.3387 84.019 67.9831 83.4575 66.5695 83.4575C65.8696 83.4575 65.1765 83.5954 64.5299 83.8632C63.8833 84.1311 63.2957 84.5237 62.8008 85.0186C62.3059 85.5135 61.9133 86.101 61.6455 86.7477C61.3776 87.3943 61.2397 88.0874 61.2397 88.7873C61.2397 89.4872 61.3776 90.1803 61.6455 90.8269C61.9133 91.4736 62.3059 92.0611 62.8008 92.556C63.2957 93.051 63.8833 93.4435 64.5299 93.7114C65.1765 93.9792 65.8696 94.1171 66.5695 94.1171C67.9831 94.1171 69.3387 93.5556 70.3383 92.556C71.3378 91.5565 71.8993 90.2009 71.8993 88.7873Z" stroke="#808080" stroke-width="2"/>
<path id="Vector_22" d="M25.7773 86.0574C25.7773 85.4727 25.5451 84.9119 25.1316 84.4985C24.7182 84.0851 24.1574 83.8528 23.5727 83.8528C22.9881 83.8528 22.4273 84.0851 22.0139 84.4985C21.6004 84.9119 21.3682 85.4727 21.3682 86.0574C21.3682 86.6421 21.6004 87.2028 22.0139 87.6162C22.4273 88.0297 22.9881 88.2619 23.5727 88.2619C24.1574 88.2619 24.7182 88.0297 25.1316 87.6162C25.5451 87.2028 25.7773 86.6421 25.7773 86.0574Z" stroke="#808080" stroke-width="2"/>
<path id="Vector_23" d="M66.6923 87.739C66.6923 87.4501 66.6354 87.1641 66.5249 86.8972C66.4143 86.6303 66.2523 86.3878 66.048 86.1836C65.8438 85.9793 65.6013 85.8173 65.3344 85.7067C65.0675 85.5962 64.7815 85.5393 64.4926 85.5393C63.9093 85.5393 63.3498 85.7711 62.9372 86.1836C62.5247 86.5961 62.293 87.1556 62.293 87.739C62.293 88.3224 62.5247 88.8819 62.9372 89.2944C63.3498 89.7069 63.9093 89.9387 64.4926 89.9387C64.7815 89.9387 65.0675 89.8818 65.3344 89.7712C65.6013 89.6607 65.8438 89.4986 66.048 89.2944C66.2523 89.0901 66.4143 88.8476 66.5249 88.5808C66.6354 88.3139 66.6923 88.0278 66.6923 87.739Z" stroke="#808080" stroke-width="2"/>
<path id="Vector_24" d="M64.5025 96.7268C63.5008 99.5279 67.1342 100.463 69.0442 100.778C71.4648 101.18 75.0221 100.947 77.0548 99.3143C77.5098 98.951 77.7791 98.5639 77.8625 98.1531C78.3658 95.6736 73.7897 94.9224 72.3339 94.5713" stroke="#F5C18E" stroke-width="2"/>
<path id="Vector_25" d="M91.8512 126.307C91.7546 126.15 91.6359 126.081 91.4952 126.101C91.4853 126.102 91.4752 126.101 91.4656 126.098C91.456 126.095 91.447 126.09 91.4394 126.084C91.4318 126.077 91.4256 126.069 91.4212 126.059C91.4169 126.05 91.4145 126.04 91.4142 126.029V125.944C91.4125 125.857 91.3733 125.835 91.2963 125.877C91.2276 125.915 91.1589 125.913 91.0901 125.872C91.0148 125.827 90.9625 125.8 90.933 125.794C90.6777 125.735 90.4363 125.744 90.2088 125.821C90.1891 125.827 90.176 125.84 90.1695 125.86C90.158 125.89 90.1449 125.917 90.1302 125.941C90.1204 125.961 90.104 125.968 90.0811 125.963L89.541 125.845C89.525 125.842 89.5083 125.844 89.4933 125.85C89.4783 125.857 89.4658 125.868 89.4574 125.882C89.449 125.896 89.4452 125.912 89.4466 125.929C89.4479 125.945 89.4543 125.961 89.4649 125.973C89.4927 126.004 89.5026 126.036 89.4944 126.069C89.4813 126.121 89.4379 126.155 89.3643 126.169C89.2333 126.196 89.1458 126.162 89.1016 126.069C89.0672 125.995 89.0107 125.948 88.9322 125.929C88.685 125.867 88.4821 125.922 88.3233 126.096C88.3107 126.111 88.2934 126.122 88.2741 126.126C88.2549 126.13 88.2347 126.128 88.2167 126.12C88.1986 126.112 88.1837 126.099 88.1742 126.081C88.1646 126.064 88.161 126.044 88.1638 126.025C88.1687 125.979 88.1613 125.938 88.1417 125.902C88.1024 125.835 88.1212 125.798 88.1981 125.791L88.7505 125.735C88.8225 125.728 88.8921 125.737 88.9592 125.762C89.0361 125.79 89.0909 125.784 89.1237 125.745C89.176 125.687 89.2301 125.685 89.2857 125.737C89.3168 125.768 89.3528 125.786 89.3937 125.789C89.5328 125.799 89.6065 125.799 89.6147 125.789L89.7227 125.654C89.8094 125.546 89.7841 125.492 89.6466 125.492C89.2571 125.49 89.0353 125.399 88.9813 125.219C88.9633 125.159 88.9232 125.136 88.861 125.151C88.4461 125.244 87.9919 124.952 87.6016 124.854C87.5852 124.849 87.5721 124.84 87.5623 124.827C87.5443 124.8 87.5353 124.774 87.5353 124.748C87.5337 124.702 87.5107 124.679 87.4665 124.679C87.0296 124.672 86.131 124.75 85.7775 124.537C85.7071 124.494 85.631 124.471 85.5492 124.466C84.5451 124.397 83.9215 124.092 82.7063 124.419C82.6343 124.439 82.5958 124.486 82.5909 124.561C82.5811 124.738 82.5574 124.912 82.5197 125.082C82.4936 125.196 82.5664 125.301 82.7382 125.396C82.7412 125.397 82.7436 125.399 82.745 125.402C82.7465 125.405 82.747 125.408 82.7465 125.411C82.746 125.414 82.7444 125.417 82.742 125.42C82.7397 125.423 82.7366 125.424 82.7333 125.426C82.7088 125.43 82.685 125.435 82.6621 125.438C82.6212 125.443 82.5909 125.428 82.5713 125.394C82.46 125.207 82.4215 125.007 82.4559 124.795C82.4674 124.716 82.4485 124.646 82.3994 124.586C82.0328 124.144 81.5688 123.955 81.0075 124.019C80.9322 124.029 80.8602 124.02 80.7914 123.994C80.6621 123.947 80.4199 123.908 80.0647 123.876C79.4215 123.819 78.7775 123.77 78.1327 123.729C78.1032 123.728 78.0778 123.736 78.0566 123.754C78.0386 123.768 78.0214 123.783 78.005 123.798C77.9903 123.811 77.9739 123.813 77.9559 123.805L77.3569 123.562C77.3138 123.544 77.2668 123.539 77.2209 123.546C77.1751 123.552 77.1321 123.572 77.0967 123.601C76.9886 123.691 76.8651 123.726 76.726 123.705C76.6376 123.692 76.5688 123.722 76.5197 123.795C76.176 124.306 75.9281 124.872 75.7759 125.492" stroke="#FFD14C" stroke-width="2"/>
<path id="Vector_26" d="M75.7755 125.492L73.8361 123.363C73.7904 123.314 73.7648 123.249 73.7643 123.181C73.7639 123.113 73.7886 123.048 73.8336 122.998C76.9784 119.511 80.3221 116.241 83.521 112.827C84.4588 111.822 84.9449 110.902 83.7935 109.849C82.8434 108.982 81.7681 109.62 81.0807 110.357C79.1053 112.471 77.1069 114.564 75.0856 116.634C73.8262 117.926 72.5742 119.207 71.3442 120.493C71.3287 120.509 71.3101 120.522 71.2896 120.531C71.269 120.539 71.2469 120.543 71.2246 120.543C71.2024 120.543 71.1804 120.538 71.16 120.529C71.1396 120.52 71.1213 120.507 71.1061 120.491C68.8622 118.079 66.5996 115.667 64.3181 113.256C63.8631 112.775 63.5071 112.478 63.2501 112.365C62.1429 111.874 60.7215 112.981 60.9351 114.157C61.0055 114.542 61.2788 115.008 61.755 115.556C63.4514 117.511 65.305 119.305 67.0456 121.218" stroke="#F6C642" stroke-width="2"/>
<path id="Vector_27" d="M67.0456 121.218C67.1406 121.385 67.161 121.563 67.107 121.753C67.0874 121.817 67.0448 121.845 66.9794 121.839L66.4368 121.782C66.3615 121.774 66.2944 121.794 66.2355 121.841C66.1569 121.905 66.0718 121.93 65.9802 121.917C65.8934 121.904 65.8288 121.859 65.7862 121.782C65.6602 121.553 65.4949 121.357 65.2903 121.193C65.1643 121.092 64.9892 121.03 64.765 121.009C64.5751 120.991 64.3861 120.963 64.1978 120.926C63.9965 120.884 63.7928 120.732 63.5424 120.754C63.4638 120.76 63.3943 120.739 63.3337 120.69C62.9933 120.418 62.5964 120.335 62.143 120.439C62.1152 120.446 62.0972 120.457 62.089 120.474C62.0743 120.5 62.0841 120.525 62.1185 120.55C62.1259 120.555 62.1321 120.562 62.1365 120.57C62.1409 120.578 62.1435 120.587 62.1439 120.597C62.1444 120.606 62.1428 120.615 62.1393 120.623C62.1357 120.632 62.1303 120.64 62.1234 120.646C61.9106 120.836 61.6807 120.889 61.4335 120.805C61.3632 120.781 61.3018 120.795 61.2494 120.847L61.1046 120.992C61.0522 121.046 60.9884 121.072 60.9131 121.07C60.2846 121.067 59.6839 120.935 59.1111 120.673C59.0375 120.638 59.0023 120.581 59.0055 120.501C59.0121 120.354 58.9425 120.277 58.7969 120.27C56.2813 120.146 53.4777 120.099 50.3861 120.13C49.4041 120.14 48.4229 120.089 47.4425 119.978C47.3623 119.97 47.2911 119.939 47.2289 119.885C46.8852 119.59 45.9082 119.826 45.6627 119.826C44.4483 119.831 43.233 119.813 42.017 119.772C41.8239 119.765 41.6479 119.714 41.4892 119.619C41.116 119.401 40.7183 118.959 40.2887 119.401C40.2314 119.46 40.17 119.465 40.1046 119.416L39.562 119.006C39.49 118.952 39.4483 118.88 39.4368 118.79L39.3312 117.984C39.3198 117.903 39.2723 117.862 39.1888 117.862C38.2641 117.868 37.3402 117.855 36.4172 117.822C35.7298 117.798 34.9442 117.506 34.1242 117.609C33.9499 117.628 33.8051 117.543 33.7069 117.415C33.661 117.354 33.6013 117.331 33.5276 117.346C33.1512 117.428 32.7977 117.449 32.4671 117.41C32.0268 117.358 31.5391 117.25 31.0039 117.086" stroke="#FFD14C" stroke-width="2"/>
<path id="Vector_28" d="M31.0039 117.086C31.9761 116.119 33.8271 114.737 33.1373 113.234C32.6733 112.225 31.242 111.867 30.3902 112.694C29.7592 113.305 29.1921 114.059 28.6324 114.624C26.7486 116.525 24.9098 118.475 23.116 120.471C23.097 120.493 23.0737 120.511 23.0475 120.523C23.0214 120.535 22.993 120.542 22.9642 120.542C22.9354 120.543 22.9067 120.538 22.88 120.527C22.8533 120.516 22.8292 120.499 22.8091 120.479C19.4802 117.076 15.9597 113.315 12.7265 110.018C11.9491 109.226 11.1504 109.18 10.3304 109.881C9.26495 110.791 9.67739 111.786 10.5268 112.694C11.9376 114.201 13.3672 115.69 14.8157 117.16" stroke="#F6C642" stroke-width="2"/>
<path id="Vector_29" d="M14.8158 117.16L14.8551 117.521C14.8616 117.581 14.8371 117.597 14.7814 117.57C14.4549 117.405 14.3297 117.081 13.8804 117.152C13.8052 117.164 13.7307 117.16 13.657 117.14C13.4639 117.088 13.2659 117.077 13.0629 117.108C12.991 117.118 12.9176 117.107 12.852 117.075C12.7865 117.044 12.7318 116.994 12.6947 116.931C12.5867 116.746 12.4525 116.683 12.2921 116.742C12.207 116.773 12.13 116.759 12.0613 116.701L11.806 116.477C11.7503 116.428 11.6857 116.406 11.612 116.411C11.54 116.416 11.4729 116.399 11.4107 116.359C11.3633 116.33 11.3035 116.301 11.2315 116.273C11.0695 116.213 10.9009 116.192 10.7258 116.21C10.6308 116.221 10.5621 116.183 10.5196 116.097C10.4574 115.969 10.3698 115.872 10.2569 115.807C10.2141 115.783 10.1744 115.763 10.1402 115.747C10.1059 115.732 10.0779 115.722 10.058 115.719C9.87962 115.686 9.70368 115.584 9.53019 115.414C9.47455 115.359 9.40826 115.332 9.33134 115.333L8.58993 115.338C8.42711 115.339 8.26898 115.284 8.14297 115.18C8.01697 115.077 7.93104 114.933 7.90008 114.773L7.77242 114.093C7.75769 114.02 7.7135 113.99 7.63985 114.005C7.5171 114.031 7.41481 114.002 7.33298 113.917C7.32807 113.912 7.29779 113.899 7.24214 113.88C7.20941 113.868 7.19959 113.881 7.21268 113.919C7.22741 113.957 7.21514 113.976 7.17586 113.976L5.06456 114.022C4.97455 114.024 4.89353 114.052 4.82152 114.106C4.60548 114.268 4.38044 114.327 4.1464 114.282C4.05965 114.266 3.99828 114.297 3.96227 114.376L3.87635 114.562C3.84852 114.621 3.80433 114.638 3.74378 114.614L3.3878 114.471C3.33379 114.449 3.29042 114.462 3.25769 114.513L2.93118 115.019C2.89026 115.083 2.83216 115.114 2.75687 115.112C2.53756 115.107 2.35998 115.032 2.22414 114.886C2.17177 114.832 2.10957 114.793 2.03756 114.768L1.30843 114.516C1.26424 114.501 1.21923 114.495 1.1734 114.498C1.09975 114.503 1.03838 114.469 0.989278 114.395C0.833795 114.161 0.729867 113.903 0.677494 113.62C0.677655 113.613 0.676545 113.607 0.674226 113.601C0.671907 113.595 0.668426 113.589 0.663981 113.584C0.659535 113.58 0.654213 113.576 0.648318 113.573C0.642422 113.571 0.636069 113.569 0.629622 113.569C0.623174 113.569 0.616757 113.57 0.610738 113.572C0.60472 113.575 0.599216 113.578 0.594543 113.583C0.58987 113.587 0.586118 113.593 0.583501 113.598C0.580885 113.604 0.579455 113.611 0.579294 113.617C0.572747 113.645 0.558836 113.665 0.537559 113.676C0.481913 113.707 0.459818 113.753 0.471275 113.813C0.564564 114.306 0.500734 114.529 0.279785 114.481" stroke="#FFD14C" stroke-width="2"/>
<path id="Vector_30" d="M14.8945 95.8822C16.4731 98.59 20.7055 99.2774 23.5017 99.1621C24.7243 99.113 26.7914 98.703 27.658 97.8118C28.4911 96.9575 28.4485 96.0434 27.5304 95.0696" stroke="#F5C18E" stroke-width="2"/>
<path id="Vector_31" d="M38.5014 96.8274C42.0783 100.642 48.6233 100.694 52.3991 97.1244C52.4638 97.0631 52.5149 96.9889 52.5494 96.9068C52.5839 96.8246 52.6008 96.7362 52.5992 96.6473C52.5976 96.5583 52.5774 96.4707 52.54 96.3902C52.5026 96.3096 52.4488 96.2377 52.3819 96.1793L52.2322 96.0467C51.7919 95.6605 51.3426 95.6498 50.8844 96.0148C47.6512 98.5901 42.422 98.4624 39.6356 95.2218C39.3115 94.8454 39.0767 94.6236 38.931 94.5565C38.3222 94.2791 37.4335 94.9272 37.6913 95.6244C37.8271 95.996 38.0971 96.397 38.5014 96.8274Z" stroke="#806A29" stroke-width="2"/>
<path id="Vector_32" d="M31.0041 117.086L25.4239 123.047C25.3634 123.114 25.3642 123.178 25.4264 123.241C26.9632 124.791 28.4779 126.366 29.9706 127.966C31.3306 129.425 33.027 131.079 34.4853 132.7C35.1727 133.463 36.6752 134.514 36.4346 135.631C36.1302 137.043 34.5565 137.742 33.491 136.579C32.3568 135.339 31.0925 134.17 29.9902 132.962C28.5418 131.376 26.9043 129.808 25.5344 128.337C24.7308 127.475 23.9313 126.636 23.1359 125.821C23.0295 125.713 22.9231 125.712 22.8167 125.818C21.2897 127.353 19.9935 128.931 18.5033 130.414C17.7324 131.182 17.104 131.73 16.0901 131.264C14.9264 130.731 14.8159 129.292 15.6629 128.394C17.2897 126.672 18.9002 124.971 20.4943 123.292C20.568 123.215 20.568 123.138 20.4943 123.061L14.8159 117.16" stroke="#F6C23D" stroke-width="2"/>
<path id="Vector_33" d="M75.7757 125.492C76.4582 126.232 77.1849 126.972 77.9558 127.714C78.7635 128.487 79.581 129.687 78.8788 130.662C78.1227 131.705 76.6964 131.62 75.8543 130.669C74.3666 128.99 72.8682 127.38 71.3592 125.838C71.2463 125.724 71.1358 125.726 71.0278 125.845C70.6055 126.312 70.1972 126.739 69.8027 127.127C69.0482 127.867 68.306 128.619 67.5761 129.383C65.3879 131.678 63.2021 133.974 61.0188 136.272C60.5687 136.745 60.1825 137.03 59.86 137.126C58.6865 137.477 57.5548 136.11 57.842 135.007C57.932 134.656 58.2217 134.22 58.7111 133.701C60.216 132.101 61.7553 130.584 63.2749 128.953C64.1734 127.986 65.0892 127.035 66.0221 126.101C66.8027 125.32 67.6865 124.201 68.644 123.363C68.6736 123.338 68.6977 123.306 68.715 123.271C68.7322 123.236 68.7421 123.197 68.7442 123.158C68.7462 123.119 68.7404 123.08 68.727 123.043C68.7135 123.006 68.6928 122.972 68.6661 122.944L67.0458 121.218" stroke="#F6C23D" stroke-width="2"/>
</g>
<path id="Vector_34" d="M69.1917 21.6112C69.1737 21.7111 69.1352 21.7806 69.0763 21.8199C69.0256 21.8526 68.9896 21.8412 68.9683 21.7855C68.9503 21.7397 68.9241 21.7119 68.8897 21.7021C68.6066 21.6186 68.3095 21.6309 67.9986 21.7389C67.9216 21.7667 67.8431 21.7692 67.7629 21.7463C67.5207 21.6775 67.1917 21.6562 66.776 21.6824C66.5076 21.6988 66.0624 21.6587 65.4405 21.5621C64.9527 21.4852 64.5108 21.432 64.1148 21.4026C62.6156 21.2896 61.1213 21.1317 59.6319 20.9287C59.2457 20.8747 58.2956 20.7733 56.7817 20.6243C55.8259 20.5294 54.8799 20.3731 53.9437 20.1554C53.6319 20.0842 53.3079 20.1088 52.974 20.0278C52.668 19.9541 52.4315 19.9148 52.2645 19.9099C50.9208 19.8674 49.8046 19.7692 48.9159 19.6153C48.2285 19.4959 47.6221 19.4189 47.0968 19.3846C46.3873 19.3355 45.7367 19.225 45.0493 19.1832C44.7236 19.1652 44.172 18.9762 43.3946 18.6161C43.303 18.572 43.2072 18.5834 43.1074 18.6505C43.1008 18.6552 43.0929 18.6574 43.0849 18.6568C43.0769 18.6563 43.0694 18.653 43.0633 18.6474C43.0572 18.6419 43.0529 18.6344 43.0511 18.6261C43.0494 18.6178 43.0501 18.6092 43.0534 18.6014C43.0632 18.5801 43.0755 18.5589 43.0902 18.5376C43.1229 18.4869 43.1082 18.4795 43.046 18.5155C43.0117 18.5351 42.9748 18.54 42.9355 18.5302C43.2351 17.9778 43.4781 17.3764 43.7727 16.8608C44.7743 15.1129 45.7686 13.2078 46.8022 11.6341C48.6115 8.87474 50.6295 6.12515 52.9838 3.80027C54.582 2.22171 56.2195 0.684885 58.1172 0.252806C60.8202 -0.360942 64.6328 7.49994 65.4184 9.38783C66.9208 12.9868 67.9323 16.6178 68.9486 20.3715C69.0583 20.7741 69.1393 21.1873 69.1917 21.6112Z" fill="#77E089"/>
<path id="Vector_35" d="M69.1915 21.6113C70.0965 26.086 70.4779 30.6048 70.3355 35.1678C70.0507 40.6572 69.1636 46.0729 67.6743 51.4149C64.8772 49.7259 62.3232 48.4493 60.0122 47.5851C52.7455 44.8699 45.1317 44.5712 37.171 46.6891C37.1628 41.2341 37.6522 35.8732 38.6391 30.6064C39 29.2955 39.2897 28.0238 39.7389 26.7251C40.6915 23.9779 41.5802 21.3977 42.9353 18.5303C42.9746 18.5401 43.0114 18.5352 43.0458 18.5156C43.108 18.4796 43.1227 18.4869 43.09 18.5377C43.0753 18.559 43.063 18.5802 43.0532 18.6015C43.0499 18.6092 43.0491 18.6179 43.0509 18.6262C43.0527 18.6345 43.0569 18.642 43.063 18.6475C43.0691 18.6531 43.0767 18.6564 43.0847 18.6569C43.0926 18.6575 43.1005 18.6553 43.1072 18.6506C43.207 18.5835 43.3027 18.572 43.3944 18.6162C44.1718 18.9763 44.7234 19.1653 45.0491 19.1833C45.7365 19.2251 46.387 19.3356 47.0965 19.3847C47.6219 19.419 48.2283 19.4959 48.9157 19.6154C49.8044 19.7693 50.9206 19.8675 52.2643 19.91C52.4312 19.9149 52.6677 19.9542 52.9738 20.0279C53.3077 20.1089 53.6317 20.0843 53.9435 20.1555C54.8797 20.3732 55.8257 20.5295 56.7815 20.6244C58.2954 20.7734 59.2455 20.8748 59.6317 20.9288C61.1211 21.1318 62.6154 21.2897 64.1145 21.4027C64.5106 21.4321 64.9525 21.4853 65.4402 21.5622C66.0622 21.6588 66.5073 21.6989 66.7757 21.6825C67.1915 21.6563 67.5204 21.6776 67.7626 21.7464C67.8428 21.7693 67.9214 21.7668 67.9983 21.739C68.3093 21.631 68.6063 21.6187 68.8895 21.7022C68.9239 21.712 68.95 21.7398 68.9681 21.7856C68.9893 21.8413 69.0253 21.8527 69.0761 21.82C69.135 21.7807 69.1735 21.7112 69.1915 21.6113Z" fill="#55CF65"/>
<path id="Vector_36" d="M38.6393 30.6064C37.6524 35.8732 37.163 41.234 37.1712 46.689C35.8831 47.0949 35.0534 47.3691 34.6818 47.5115C31.2154 48.8249 27.8619 50.6342 24.7416 52.8707C22.0141 54.8249 20.6123 56.2733 18.2972 58.4362C17.8193 58.883 17.334 59.4411 16.8414 60.1105C16.8103 60.1547 16.7285 60.2021 16.5959 60.2529C15.5918 58.2668 14.5337 56.2242 13.7972 54.1989C12.4372 50.4591 11.4748 46.6113 10.9101 42.6555C10.699 41.1645 10.5165 39.6694 10.3627 38.1702C10.0419 35.0098 9.9928 31.8486 10.2154 28.6866C10.3209 27.1964 10.6401 25.7111 10.9322 24.2185C11.2268 22.7177 11.5771 21.644 11.983 20.9975C12.9601 19.4386 14.9584 19.3306 16.5419 19.4435C19.3946 19.6481 21.78 20.1604 23.6982 20.9804C27.253 22.5025 29.9241 23.6833 32.9118 25.8265C35.3504 27.5777 37.2596 29.171 38.6393 30.6064Z" fill="#51B05A"/>
<path id="Vector_37" d="M90.1791 62.9214C90.1185 62.8969 90.085 62.8715 90.0784 62.8453C90.0621 62.7766 90.0833 62.7234 90.1423 62.6857C90.1554 62.6776 90.1554 62.6694 90.1423 62.6612C90.0997 62.6367 90.0514 62.6276 89.9974 62.6342C89.9874 62.6352 89.9773 62.6335 89.9681 62.6293C89.959 62.6251 89.9511 62.6186 89.9453 62.6103C89.9396 62.602 89.9361 62.5924 89.9354 62.5823C89.9346 62.5723 89.9365 62.5622 89.9409 62.5532C89.9524 62.5286 89.9647 62.5041 89.9778 62.4795C89.9925 62.4517 89.9884 62.4263 89.9655 62.4034C89.7331 62.1743 89.5727 61.9738 89.4843 61.802C89.4581 61.7496 89.4581 61.6849 89.4843 61.608C89.5138 61.5229 89.5031 61.4427 89.4524 61.3674C89.4066 61.297 89.3861 61.2193 89.391 61.1342C89.3927 61.0884 89.3894 61.0434 89.3812 60.9992L89.1455 59.8085C89.1357 59.7578 89.1177 59.7111 89.0915 59.6686C89.0637 59.6211 89.0506 59.5761 89.0522 59.5335C89.0555 59.3846 89.0563 59.3052 89.0547 59.2954C88.968 58.9157 88.8411 58.5491 88.6742 58.1956C88.5146 57.8543 88.193 57.7635 88.0948 57.3265C88.0821 57.276 88.0515 57.2323 88.0089 57.2038C87.8763 57.1137 87.8051 56.9844 87.7953 56.8159C87.7887 56.7209 87.7642 56.6326 87.7216 56.5507C87.5383 56.2005 87.3984 55.8322 87.3018 55.446C87.2806 55.3592 87.2446 55.2799 87.1938 55.2078C87.0989 55.0769 87.0252 54.9312 86.9729 54.7709C86.9467 54.6939 86.95 54.6178 86.9827 54.5425C87.0318 54.4312 87.0113 54.338 86.9213 54.2627C86.8591 54.2103 86.8149 54.1457 86.7887 54.0687C86.7265 53.8887 86.6635 53.7111 86.5997 53.536C86.4745 53.1923 86.2315 52.8952 86.0621 52.5565C85.9917 52.4124 85.8845 52.2594 85.7405 52.0974C85.5899 51.9288 85.4712 51.7398 85.3845 51.5303C85.1635 51.0024 84.8174 50.6514 84.675 50.0794C84.657 50.0041 84.621 49.9386 84.567 49.883C84.2282 49.5393 84.058 49.1227 84.0563 48.6334C84.0564 48.593 84.0484 48.5531 84.0328 48.516C84.0171 48.4789 83.9943 48.4453 83.9655 48.4173C83.8084 48.2668 83.7593 48.0826 83.8182 47.865C83.8264 47.8371 83.8182 47.815 83.7937 47.7987C83.7724 47.7839 83.7544 47.7659 83.7396 47.7447C83.7085 47.6939 83.7225 47.6645 83.7814 47.6563C83.9303 47.6366 83.9737 47.5515 83.9115 47.401C83.9 47.3699 83.8771 47.3535 83.8427 47.3519C83.8182 47.3502 83.7945 47.3494 83.7716 47.3494C83.6979 47.351 83.6504 47.3167 83.6292 47.2463C83.6013 47.1547 83.5981 47.0614 83.6193 46.9664C83.6373 46.8879 83.6243 46.815 83.5801 46.7479C83.3526 46.4042 83.2241 46.027 83.1946 45.6162C83.1897 45.5344 83.1537 45.4689 83.0866 45.4198C82.959 45.3265 82.8976 45.2078 82.9025 45.0638C82.9197 44.6244 82.8976 44.4083 82.5932 44.1137C82.5375 44.0597 82.499 43.9951 82.4778 43.9198C82.3845 43.5933 81.9549 43.0777 81.9647 42.8224C81.9662 42.7459 81.942 42.6708 81.8959 42.6088C81.6652 42.3044 81.4892 41.9697 81.3681 41.6047C81.3599 41.5785 81.3567 41.5425 81.3583 41.4967C81.3599 41.4509 81.3477 41.4116 81.3215 41.3789C81.274 41.3183 81.2568 41.2512 81.2699 41.1776C81.319 40.8993 81.2552 40.644 81.0784 40.4116C81.031 40.3494 81.0031 40.2782 80.995 40.198C80.9737 39.9967 80.8992 39.8142 80.7716 39.6506C80.7669 39.6391 80.7597 39.6206 80.751 39.5974C80.7422 39.5742 80.7323 39.5473 80.7225 39.5204C80.711 39.4893 80.6824 39.4705 80.6365 39.464C80.5662 39.4542 80.5285 39.4141 80.5236 39.3437C80.4958 38.9231 80.3943 38.5237 80.2192 38.1457C79.6889 36.9943 79.3869 35.973 79.0162 35.0352C78.5891 33.9574 78.2896 32.8183 77.99 31.6988C77.9851 31.6759 77.986 31.6563 77.9925 31.6399C77.9991 31.6219 78.0195 31.6039 78.0539 31.5859C78.0735 31.5761 78.0727 31.572 78.0514 31.5736C77.9483 31.5867 77.8509 31.5704 77.7593 31.5245C82.5367 29.7291 87.4671 28.9067 92.5506 29.0573C94.0809 29.1015 95.5719 29.3519 97.0236 29.8085C99.3853 30.5524 99.9279 31.6056 100.006 34.063C100.114 37.446 99.4295 40.91 98.5776 44.1677C98.2339 45.4861 97.6791 46.9075 97.2298 48.2872C96.1545 51.5802 95.1308 54.1448 94.1586 55.9812C92.8968 58.3601 91.6177 60.6432 90.1791 62.9214Z" fill="#51B05A"/>
<path id="Vector_38" d="M77.7594 31.5245C77.8511 31.5704 77.9485 31.5867 78.0516 31.5736C78.0728 31.572 78.0737 31.5761 78.054 31.5859C78.0197 31.6039 77.9992 31.6219 77.9926 31.6399C77.9861 31.6563 77.9853 31.6759 77.9902 31.6988C78.2897 32.8183 78.5892 33.9574 79.0164 35.0352C79.3871 35.973 79.689 36.9943 80.2193 38.1456C80.3944 38.5237 80.4959 38.9231 80.5237 39.3437C80.5287 39.4141 80.5663 39.4542 80.6367 39.464C80.6825 39.4705 80.7111 39.4893 80.7226 39.5204C80.7324 39.5473 80.7423 39.5742 80.7511 39.5974C80.7599 39.6206 80.767 39.6391 80.7717 39.6506C80.8994 39.8142 80.9738 39.9967 80.9951 40.198C81.0033 40.2782 81.0311 40.3494 81.0786 40.4116C81.2553 40.644 81.3192 40.8993 81.2701 41.1776C81.257 41.2512 81.2742 41.3183 81.3216 41.3789C81.3478 41.4116 81.3601 41.4509 81.3584 41.4967C81.3568 41.5425 81.3601 41.5785 81.3683 41.6047C81.4894 41.9697 81.6653 42.3044 81.8961 42.6088C81.9422 42.6707 81.9664 42.7459 81.9648 42.8224C81.955 43.0777 82.3846 43.5933 82.4779 43.9198C82.4992 43.9951 82.5377 44.0597 82.5933 44.1137C82.8977 44.4083 82.9198 44.6244 82.9026 45.0638C82.8977 45.2078 82.9591 45.3265 83.0868 45.4198C83.1539 45.4689 83.1899 45.5344 83.1948 45.6162C83.2242 46.027 83.3527 46.4042 83.5802 46.7479C83.6244 46.815 83.6375 46.8879 83.6195 46.9664C83.5982 47.0614 83.6015 47.1546 83.6293 47.2463C83.6506 47.3167 83.698 47.351 83.7717 47.3494C83.7946 47.3494 83.8183 47.3502 83.8429 47.3519C83.8773 47.3535 83.9002 47.3699 83.9116 47.401C83.9738 47.5515 83.9305 47.6366 83.7815 47.6563C83.7226 47.6645 83.7087 47.6939 83.7398 47.7447C83.7545 47.7659 83.7725 47.7839 83.7938 47.7987C83.8183 47.815 83.8265 47.8371 83.8183 47.865C83.7594 48.0826 83.8085 48.2668 83.9656 48.4173C83.9944 48.4453 84.0173 48.4789 84.0329 48.516C84.0485 48.5531 84.0565 48.593 84.0565 48.6334C84.0581 49.1227 84.2283 49.5393 84.5671 49.883C84.6211 49.9386 84.6571 50.0041 84.6751 50.0794C84.8175 50.6514 85.1637 51.0024 85.3846 51.5303C85.4714 51.7398 85.59 51.9288 85.7406 52.0974C85.8846 52.2594 85.9918 52.4124 86.0622 52.5564C86.2316 52.8952 86.4746 53.1923 86.5998 53.536C86.6637 53.7111 86.7267 53.8887 86.7889 54.0687C86.8151 54.1456 86.8593 54.2103 86.9214 54.2627C87.0115 54.338 87.0319 54.4312 86.9828 54.5425C86.9501 54.6178 86.9468 54.6939 86.973 54.7709C87.0254 54.9312 87.099 55.0769 87.194 55.2078C87.2447 55.2799 87.2807 55.3592 87.302 55.446C87.3985 55.8322 87.5385 56.2005 87.7218 56.5507C87.7643 56.6326 87.7889 56.7209 87.7954 56.8159C87.8052 56.9844 87.8764 57.1137 88.009 57.2037C88.0516 57.2323 88.0822 57.276 88.0949 57.3265C88.1931 57.7635 88.5147 57.8543 88.6743 58.1956C88.8413 58.5491 88.9681 58.9157 89.0548 59.2954C89.0565 59.3052 89.0557 59.3846 89.0524 59.5335C89.0507 59.5761 89.0638 59.6211 89.0917 59.6686C89.1178 59.7111 89.1359 59.7578 89.1457 59.8085L89.3813 60.9992C89.3895 61.0434 89.3928 61.0884 89.3912 61.1342C89.3863 61.2193 89.4067 61.297 89.4525 61.3674C89.5033 61.4427 89.5139 61.5229 89.4845 61.608C89.4583 61.6849 89.4583 61.7496 89.4845 61.802C89.5728 61.9738 89.7332 62.1743 89.9656 62.4034C89.9886 62.4263 89.9926 62.4517 89.9779 62.4795C89.9648 62.5041 89.9525 62.5286 89.9411 62.5532C89.9367 62.5622 89.9347 62.5723 89.9355 62.5823C89.9363 62.5924 89.9397 62.602 89.9455 62.6103C89.9512 62.6186 89.9591 62.6251 89.9683 62.6293C89.9774 62.6335 89.9875 62.6352 89.9976 62.6342C90.0516 62.6276 90.0998 62.6366 90.1424 62.6612C90.1555 62.6694 90.1555 62.6776 90.1424 62.6857C90.0835 62.7234 90.0622 62.7766 90.0786 62.8453C90.0851 62.8715 90.1187 62.8969 90.1792 62.9214C88.4288 65.3961 86.7201 67.7332 84.5843 69.5965C83.8233 68.4157 83.1162 67.1195 82.338 66.0221C79.1637 61.5491 75.7439 57.626 71.4771 54.1546C70.9894 53.7586 69.7218 52.8453 67.6743 51.4149C69.1637 46.0728 70.0507 40.6571 70.3355 35.1677C72.6604 33.8224 75.194 32.342 77.7594 31.5245Z" fill="#51A557"/>
<path id="Vector_39" d="M67.6743 51.4149C69.7218 52.8453 70.9894 53.7586 71.4771 54.1547C75.7439 57.626 79.1637 61.5491 82.338 66.0221C83.1162 67.1195 83.8232 68.4157 84.5843 69.5966C84.7709 69.9845 85.1825 70.721 85.8192 71.8061C86.973 73.7782 88.1743 76.4722 89.4231 79.8879C89.5827 80.3249 89.8601 80.8478 90.0467 81.3855C91.4264 85.3773 92.4615 89.3683 93.1522 93.3584L93.2578 94.3134C93.2676 94.3904 93.2349 94.4411 93.1596 94.4656C92.991 94.5197 92.8805 94.4722 92.8282 94.3233C92.802 94.2414 92.7488 94.2152 92.6686 94.2447C92.5409 94.2938 92.4075 94.32 92.2684 94.3233C92.1899 94.3249 92.1358 94.2889 92.1064 94.2152C92.0344 94.0319 91.9092 93.9403 91.7308 93.9403C91.4575 93.9403 91.3085 93.9378 91.284 93.9329C90.9992 93.8674 90.721 93.7864 90.4493 93.6899C90.4411 93.6866 90.4337 93.6882 90.4272 93.6948L90.356 93.766C90.346 93.7767 90.3338 93.7851 90.3202 93.7906C90.3067 93.7961 90.292 93.7986 90.2774 93.7979L88.1097 93.6874C88.0327 93.6825 87.9566 93.6882 87.8813 93.7046C87.7668 93.7308 87.6514 93.7324 87.5352 93.7095C87.4566 93.6948 87.3773 93.6956 87.2971 93.712C87.0254 93.766 86.7578 93.7676 86.4943 93.7169C86.0687 93.6383 85.8503 93.5982 85.8388 93.5966C85.1072 93.5229 84.4247 93.4591 83.6882 93.4886C83.2856 93.5057 82.8314 93.3413 82.4362 93.5499C82.3932 93.5723 82.344 93.58 82.2962 93.572L81.6015 93.4444C81.518 93.428 81.4394 93.4411 81.3658 93.4837C81.2234 93.5639 81.0769 93.5728 80.9264 93.5107C80.8396 93.473 80.7741 93.4575 80.73 93.464C80.6334 93.4804 80.5377 93.5221 80.4427 93.5892C80.3871 93.6301 80.3249 93.6416 80.2561 93.6236C79.8372 93.5123 79.4059 93.5017 78.9624 93.5917C78.9415 93.5956 78.9201 93.5917 78.9023 93.5808C78.8845 93.5698 78.8717 93.5527 78.8666 93.5327C78.8584 93.4984 78.8421 93.4714 78.8175 93.4517C78.7815 93.4206 78.73 93.4002 78.6629 93.3904C78.0867 93.2987 77.5205 93.1629 76.964 92.9828C76.5499 92.8503 75.7103 92.757 74.4452 92.703C74.3584 92.6997 74.2987 92.6571 74.266 92.5753C74.2512 92.5344 74.23 92.5017 74.2021 92.4771C74.153 92.4313 74.1088 92.4362 74.0696 92.4918L73.7676 92.919C73.7512 92.9419 73.7471 92.9575 73.7553 92.9656C73.7766 92.9902 73.802 93.0131 73.8314 93.0344C73.8789 93.0688 73.874 93.0941 73.8167 93.1105L73.5565 93.1866C73.5417 93.1899 73.536 93.1997 73.5393 93.2161L73.5589 93.3192C73.5737 93.401 73.5401 93.446 73.4583 93.4542L73.2889 93.4738C74.9092 91.009 75.1669 88.3691 74.0622 85.554C73.2496 83.482 71.2291 81.6457 69.108 81.0221C65.5851 79.9837 62.2021 81.0418 60.0049 83.9607C58.311 86.2095 57.9705 88.8609 58.9836 91.9149C58.5647 92.1097 58.3503 92.0671 58.3404 91.7873C58.3393 91.7472 58.3299 91.7078 58.3128 91.6716C58.2957 91.6354 58.2712 91.6031 58.241 91.5768C58.2108 91.5505 58.1754 91.5307 58.1372 91.5188C58.099 91.5068 58.0587 91.503 58.0188 91.5074C57.5393 91.5598 57.0712 91.5344 56.6146 91.4313C56.5687 91.4215 56.5344 91.3953 56.5115 91.3527L56.4771 91.2889C56.4476 91.2349 56.4018 91.2054 56.3396 91.2005C55.7578 91.1539 55.2275 90.9673 54.6555 90.9501C53.9951 90.9305 53.2954 90.7979 52.635 90.8765C52.1612 90.9329 51.7881 90.7905 51.3118 90.8003C51.2332 90.802 51.1604 90.7815 51.0933 90.739C50.5851 90.4174 49.9615 90.5499 49.3994 90.4714C48.9296 90.4026 48.563 90.3707 48.2995 90.3756C46.5974 90.4084 44.8953 90.4174 43.1931 90.4026C43.1195 90.401 43.0589 90.428 43.0115 90.4837C42.9656 90.5377 42.9124 90.5622 42.8519 90.5573C42.8061 90.554 42.7758 90.5303 42.7611 90.4861C42.748 90.4419 42.7185 90.4141 42.6727 90.4026C42.6072 90.3863 42.5458 90.3977 42.4886 90.437C42.3642 90.5238 42.2226 90.5344 42.0638 90.4689C41.9984 90.4427 41.9869 90.401 42.0295 90.3437C42.0966 90.2488 42.0663 90.162 41.9386 90.0835C41.6015 89.8756 41.243 89.6964 40.8633 89.5458C40.8028 89.5213 40.7578 89.5377 40.7283 89.5949C40.7136 89.6228 40.6997 89.6506 40.6866 89.6784C40.6772 89.697 40.6623 89.7123 40.644 89.7223C40.6257 89.7323 40.6048 89.7365 40.5841 89.7344C40.5634 89.7322 40.5438 89.7239 40.5279 89.7104C40.512 89.6969 40.5005 89.6789 40.4951 89.6588C40.4542 89.5049 40.383 89.4796 40.2815 89.5827C40.2128 89.653 40.1416 89.6555 40.0679 89.59C39.9272 89.4656 39.8102 89.4927 39.7169 89.6711C39.7113 89.6822 39.702 89.6911 39.6904 89.6964C39.6789 89.7017 39.6657 89.7032 39.653 89.7005C39.6056 89.6874 39.5696 89.6596 39.545 89.617C39.509 89.5581 39.4787 89.5614 39.4542 89.6269L39.3732 89.8454C39.3453 89.9206 39.2921 89.9501 39.2136 89.9337C38.9534 89.883 38.6931 89.8282 38.4329 89.7692C37.8633 89.6416 37.3282 89.8085 36.7267 89.7251C36 89.6244 35.5066 89.7103 34.8584 89.8601C34.662 89.9059 34.5434 89.8413 34.5025 89.6661C34.5003 89.6555 34.4958 89.6455 34.4891 89.637C34.4824 89.6284 34.4737 89.6215 34.4638 89.6168C34.4538 89.6121 34.4428 89.6096 34.4317 89.6097C34.4205 89.6097 34.4095 89.6122 34.3993 89.617C34.1784 89.7283 34.0106 89.7782 33.8961 89.7668C33.8322 89.7602 33.7782 89.7799 33.734 89.8257C33.6539 89.9108 33.6457 89.9951 33.7095 90.0786C33.7218 90.0959 33.7289 90.1164 33.7299 90.1377C33.7308 90.159 33.7256 90.18 33.7148 90.1981C33.7041 90.2162 33.6883 90.2306 33.6694 90.2395C33.6505 90.2483 33.6295 90.2513 33.6088 90.248C33.5532 90.2398 33.5098 90.2504 33.4787 90.2799C33.4182 90.3372 33.4165 90.3953 33.4738 90.4542C33.572 90.5524 33.5777 90.6719 33.491 90.8126C33.3797 90.9943 33.239 91.149 33.0687 91.2766C33.0557 91.2848 33.0565 91.2913 33.0712 91.2963C33.0908 91.3012 33.1105 91.3093 33.1301 91.3208C33.1547 91.3388 33.1579 91.3601 33.1399 91.3846C32.8944 91.7071 32.581 91.9468 32.1997 92.104C32.1905 92.1077 32.1825 92.1137 32.1763 92.1214C32.17 92.1291 32.1658 92.1383 32.1639 92.1481C32.1619 92.158 32.1624 92.1683 32.1652 92.1781C32.168 92.188 32.1731 92.197 32.18 92.2046C32.2864 92.3126 32.2766 92.4026 32.1506 92.4746C32.0115 92.5548 31.8854 92.5827 31.7725 92.5581C32.3928 91.7496 32.7651 91.2144 32.8895 90.9526C34.5737 87.3756 33.955 83.3445 30.9182 80.8208C27.8077 78.2332 23.0106 78.2455 20.0548 81.1203C17.072 84.0197 16.3993 89.158 19.5344 92.4452C19.6064 92.6629 19.5401 92.7709 19.3355 92.7692C17.5483 92.7668 14.3691 93.4542 14.8944 95.8822C14.5704 95.6416 14.3298 95.5598 14.1727 95.6367C13.8208 95.8085 13.4476 95.9108 13.0532 95.9436C12.9681 95.9517 12.8961 95.9853 12.8372 96.0442L12.7365 96.1449C12.6629 96.2169 12.608 96.2054 12.572 96.1105C12.4378 95.7635 12.1866 95.5974 11.8183 95.6121C11.3601 95.6301 10.9975 95.6424 10.7308 95.649C10.0925 95.6661 9.65303 95.2881 8.93863 95.3494C8.85516 95.356 8.77414 95.3454 8.69558 95.3175C8.49427 95.2422 8.28478 95.1964 8.06711 95.1801C7.99346 95.1751 7.95336 95.1367 7.94681 95.0647C7.91899 94.8028 7.78642 94.6727 7.5491 94.6743C6.71932 94.6743 5.89035 94.6735 5.0622 94.6719C4.95418 94.6702 4.91326 94.6285 4.93945 94.5467C4.96072 94.4779 4.94272 94.4215 4.88544 94.3773L4.53683 94.1146C4.52688 94.1072 4.51453 94.1039 4.50224 94.1053C4.48996 94.1066 4.47864 94.1126 4.47054 94.122C4.41326 94.1923 4.3658 94.1923 4.32815 94.122C4.29215 94.0549 4.23814 94.0131 4.16612 93.9967L2.88953 93.6972C2.80933 93.6776 2.73732 93.6931 2.67349 93.7439C2.61948 93.7881 2.55729 93.7905 2.48691 93.7512C2.37398 93.6841 2.2856 93.6138 2.22177 93.5401C2.15794 93.4648 2.08347 93.4509 1.99837 93.4984C1.97054 93.5131 1.93863 93.5172 1.90262 93.5107C1.82734 93.4959 1.77333 93.5221 1.74059 93.5892C1.69149 93.6891 1.6203 93.7627 1.52701 93.8102C1.45827 93.8445 1.41981 93.8994 1.41162 93.9747C1.40671 94.0188 1.40999 94.063 1.42144 94.1072C1.44272 94.1956 1.40835 94.2332 1.31833 94.2201L1.14648 94.1931C1.43617 92.4239 1.68085 91.1596 1.88053 90.4002C3.13012 85.6571 4.25205 81.1007 6.50082 76.3625C7.65958 73.9198 8.82325 71.1334 10.6989 68.4035C11.1211 67.7897 11.4795 67.0728 11.865 66.5131C12.3953 65.7455 12.9296 64.982 13.4681 64.2226C14.4059 62.9018 15.5033 61.6522 16.554 60.383C16.6489 60.2701 16.6629 60.2267 16.5957 60.2529C16.7283 60.2021 16.8102 60.1547 16.8412 60.1105C17.3339 59.4411 17.8192 58.883 18.2971 58.4362C20.6121 56.2733 22.0139 54.8249 24.7414 52.8707C27.8617 50.6342 31.2152 48.8249 34.6817 47.5115C35.0532 47.3691 35.883 47.0949 37.171 46.689C45.1318 44.5712 52.7455 44.8699 60.0123 47.5851C62.3232 48.4493 64.8773 49.7259 67.6743 51.4149ZM44.8846 67.0679C44.8388 67.1514 44.7586 67.2471 44.644 67.3552C43.1465 68.7496 41.7038 70.203 40.3159 71.7152C39.892 72.1768 39.644 72.545 39.572 72.82C39.2774 73.9395 40.6596 75.0344 41.7054 74.7226C42.0115 74.6309 42.4321 74.3372 42.9673 73.8413C44.4321 72.4845 45.8192 71.0704 47.1285 69.599C47.1661 69.5568 47.2177 69.5297 47.274 69.5225C47.3304 69.5153 47.3876 69.5285 47.4354 69.5598C47.6727 69.7169 47.9026 69.9116 48.1252 70.144C49.3822 71.4665 50.6702 72.7553 51.9894 74.0107C52.5614 74.5532 53.3666 74.9927 54.1522 74.6784C55.2815 74.2292 55.6129 72.9108 54.7979 71.9927C53.3494 70.3552 51.6555 68.7742 49.9444 67.1048C49.926 67.0865 49.9115 67.0648 49.9017 67.0409C49.8919 67.017 49.887 66.9914 49.8872 66.9655C49.8874 66.9397 49.8928 66.9142 49.9031 66.8904C49.9133 66.8667 49.9282 66.8452 49.9468 66.8273C51.9043 64.9583 53.8363 63.0434 55.743 61.0827C56.3543 60.4566 57.7979 59.3323 58.1686 58.5933C58.8511 57.2308 57.7831 55.7259 56.3151 56.0671C55.9386 56.1555 55.5467 56.4051 55.1391 56.8159C52.6809 59.2922 50.1817 61.7987 47.6416 64.3355C47.6091 64.3679 47.5704 64.3933 47.5279 64.4104C47.4854 64.4275 47.4398 64.4358 47.394 64.4349C47.3482 64.434 47.303 64.4238 47.2612 64.4051C47.2194 64.3863 47.1817 64.3593 47.1506 64.3257C46.1146 63.2013 45.0311 62.0925 43.9002 60.9992C42.4665 59.6121 40.9836 57.9771 39.4419 56.5483C38.7079 55.8683 37.694 55.8093 36.955 56.5139C35.9976 57.4272 36.5131 58.4411 37.3061 59.2954C38.6735 60.7709 40.2349 62.1874 41.5581 63.5548C42.6121 64.6432 43.7046 65.7152 44.8355 66.7709C44.9272 66.8576 44.9435 66.9566 44.8846 67.0679Z" fill="#FFDF63"/>
<path id="Vector_40" d="M44.8847 67.0679C44.9437 66.9566 44.9273 66.8576 44.8356 66.7708C43.7047 65.7152 42.6122 64.6432 41.5582 63.5548C40.235 62.1874 38.6736 60.7708 37.3062 59.2954C36.5132 58.441 35.9977 57.4271 36.9551 56.5139C37.6941 55.8093 38.708 55.8682 39.442 56.5482C40.9838 57.977 42.4666 59.6121 43.9003 60.9991C45.0312 62.0924 46.1147 63.2013 47.1507 64.3256C47.1819 64.3593 47.2195 64.3862 47.2613 64.405C47.3031 64.4238 47.3483 64.4339 47.3941 64.4348C47.4399 64.4357 47.4855 64.4274 47.528 64.4103C47.5705 64.3933 47.6092 64.3678 47.6417 64.3355C50.1818 61.7986 52.681 59.2921 55.1392 56.8158C55.5468 56.405 55.9387 56.1554 56.3152 56.0671C57.7833 55.7258 58.8512 57.2307 58.1687 58.5932C57.798 59.3322 56.3545 60.4566 55.7432 61.0826C53.8365 63.0433 51.9044 64.9582 49.9469 66.8273C49.9283 66.8452 49.9134 66.8666 49.9032 66.8904C49.8929 66.9141 49.8875 66.9396 49.8873 66.9655C49.8871 66.9913 49.892 67.017 49.9018 67.0409C49.9116 67.0648 49.9261 67.0865 49.9445 67.1047C51.6556 68.7741 53.3495 70.3551 54.798 71.9926C55.613 72.9108 55.2816 74.2291 54.1523 74.6784C53.3667 74.9926 52.5615 74.5531 51.9895 74.0106C50.6703 72.7553 49.3823 71.4664 48.1253 70.144C47.9027 69.9116 47.6728 69.7168 47.4355 69.5597C47.3877 69.5284 47.3305 69.5152 47.2741 69.5224C47.2178 69.5296 47.1662 69.5568 47.1286 69.599C45.8193 71.0703 44.4322 72.4844 42.9674 73.8412C42.4322 74.3371 42.0116 74.6309 41.7055 74.7225C40.6597 75.0343 39.2775 73.9394 39.5721 72.8199C39.6441 72.545 39.8921 72.1767 40.316 71.7152C41.7039 70.2029 43.1466 68.7495 44.6441 67.3551C44.7587 67.2471 44.8389 67.1513 44.8847 67.0679Z" fill="#FFCD46"/>
<path id="Vector_41" d="M31.7727 92.5581C30.4593 93.7095 29.2613 94.721 27.5305 95.0696C24.3505 95.6883 21.6852 94.8135 19.5346 92.4452C16.3996 89.158 17.0723 84.0197 20.0551 81.1203C23.0109 78.2455 27.8079 78.2333 30.9184 80.8208C33.9552 83.3446 34.5739 87.3757 32.8898 90.9526C32.7654 91.2145 32.393 91.7496 31.7727 92.5581ZM30.9921 87.0737C30.9921 85.6575 30.4295 84.2994 29.4281 83.298C28.4268 82.2967 27.0686 81.7341 25.6524 81.7341C24.2363 81.7341 22.8781 82.2967 21.8768 83.298C20.8754 84.2994 20.3128 85.6575 20.3128 87.0737C20.3128 88.4898 20.8754 89.848 21.8768 90.8494C22.8781 91.8507 24.2363 92.4133 25.6524 92.4133C27.0686 92.4133 28.4268 91.8507 29.4281 90.8494C30.4295 89.848 30.9921 88.4898 30.9921 87.0737Z" fill="white"/>
<path id="Vector_42" d="M73.289 93.4738L72.334 94.5712C70.2178 96.6203 67.6073 97.3388 64.5026 96.7267C61.9543 95.9869 60.1147 94.383 58.9838 91.9149C57.9707 88.8609 58.3111 86.2095 60.005 83.9607C62.2023 81.0418 65.5852 79.9837 69.1081 81.0221C71.2293 81.6457 73.2497 83.482 74.0623 85.554C75.1671 88.3691 74.9093 91.009 73.289 93.4738ZM71.8995 88.7873C71.8995 87.3737 71.3379 86.0181 70.3384 85.0185C69.3389 84.019 67.9832 83.4575 66.5697 83.4575C65.8698 83.4575 65.1767 83.5953 64.5301 83.8632C63.8834 84.131 63.2959 84.5236 62.801 85.0185C62.306 85.5135 61.9134 86.101 61.6456 86.7476C61.3778 87.3943 61.2399 88.0873 61.2399 88.7873C61.2399 89.4872 61.3778 90.1802 61.6456 90.8269C61.9134 91.4735 62.306 92.0611 62.801 92.556C63.2959 93.0509 63.8834 93.4435 64.5301 93.7113C65.1767 93.9792 65.8698 94.117 66.5697 94.117C67.9832 94.117 69.3389 93.5555 70.3384 92.556C71.3379 91.5565 71.8995 90.2008 71.8995 88.7873Z" fill="white"/>
<path id="Vector_43" d="M30.9917 87.0736C30.9917 88.4898 30.4292 89.8479 29.4278 90.8493C28.4264 91.8507 27.0683 92.4132 25.6521 92.4132C24.236 92.4132 22.8778 91.8507 21.8764 90.8493C20.8751 89.8479 20.3125 88.4898 20.3125 87.0736C20.3125 85.6575 20.8751 84.2993 21.8764 83.2979C22.8778 82.2966 24.236 81.734 25.6521 81.734C27.0683 81.734 28.4264 82.2966 29.4278 83.2979C30.4292 84.2993 30.9917 85.6575 30.9917 87.0736ZM25.7773 86.0573C25.7773 85.4726 25.545 84.9118 25.1316 84.4984C24.7182 84.0849 24.1574 83.8527 23.5727 83.8527C22.988 83.8527 22.4273 84.0849 22.0139 84.4984C21.6004 84.9118 21.3681 85.4726 21.3681 86.0573C21.3681 86.6419 21.6004 87.2027 22.0139 87.6161C22.4273 88.0296 22.988 88.2618 23.5727 88.2618C24.1574 88.2618 24.7182 88.0296 25.1316 87.6161C25.545 87.2027 25.7773 86.6419 25.7773 86.0573Z" fill="black"/>
<path id="Vector_44" d="M71.8993 88.7872C71.8993 90.2007 71.3378 91.5564 70.3383 92.5559C69.3387 93.5554 67.9831 94.117 66.5695 94.117C65.8696 94.117 65.1765 93.9791 64.5299 93.7113C63.8833 93.4434 63.2957 93.0508 62.8008 92.5559C62.3059 92.061 61.9133 91.4734 61.6455 90.8268C61.3776 90.1802 61.2397 89.4871 61.2397 88.7872C61.2397 88.0873 61.3776 87.3942 61.6455 86.7476C61.9133 86.1009 62.3059 85.5134 62.8008 85.0185C63.2957 84.5235 63.8833 84.1309 64.5299 83.8631C65.1765 83.5953 65.8696 83.4574 66.5695 83.4574C67.9831 83.4574 69.3387 84.0189 70.3383 85.0185C71.3378 86.018 71.8993 87.3736 71.8993 88.7872ZM66.6923 87.7389C66.6923 87.45 66.6354 87.164 66.5248 86.8971C66.4143 86.6302 66.2523 86.3878 66.048 86.1835C65.8438 85.9792 65.6013 85.8172 65.3344 85.7067C65.0675 85.5961 64.7815 85.5392 64.4926 85.5392C63.9092 85.5392 63.3497 85.771 62.9372 86.1835C62.5247 86.596 62.2929 87.1555 62.2929 87.7389C62.2929 88.3223 62.5247 88.8818 62.9372 89.2943C63.3497 89.7068 63.9092 89.9386 64.4926 89.9386C64.7815 89.9386 65.0675 89.8817 65.3344 89.7711C65.6013 89.6606 65.8438 89.4986 66.048 89.2943C66.2523 89.09 66.4143 88.8476 66.5248 88.5807C66.6354 88.3138 66.6923 88.0278 66.6923 87.7389Z" fill="black"/>
<path id="Vector_45" d="M23.5727 88.2618C24.7903 88.2618 25.7773 87.2748 25.7773 86.0572C25.7773 84.8397 24.7903 83.8527 23.5727 83.8527C22.3552 83.8527 21.3682 84.8397 21.3682 86.0572C21.3682 87.2748 22.3552 88.2618 23.5727 88.2618Z" fill="white"/>
<path id="Vector_46" d="M64.4926 89.9387C65.7075 89.9387 66.6923 88.9538 66.6923 87.739C66.6923 86.5241 65.7075 85.5393 64.4926 85.5393C63.2778 85.5393 62.293 86.5241 62.293 87.739C62.293 88.9538 63.2778 89.9387 64.4926 89.9387Z" fill="white"/>
<path id="Vector_47" d="M58.9836 91.915C60.1146 94.383 61.9542 95.987 64.5024 96.7267C63.5008 99.5279 67.1342 100.463 69.0442 100.777C71.4648 101.18 75.0221 100.947 77.0548 99.3143C77.5098 98.951 77.7791 98.5639 77.8625 98.1531C78.3658 95.6735 73.7897 94.9223 72.3339 94.5713L73.2889 93.4739L73.4583 93.4542C73.5401 93.4461 73.5736 93.401 73.5589 93.3192L73.5393 93.2161C73.536 93.1997 73.5417 93.1899 73.5565 93.1866L73.8167 93.1105C73.874 93.0942 73.8789 93.0688 73.8314 93.0344C73.802 93.0132 73.7766 92.9902 73.7553 92.9657C73.7471 92.9575 73.7512 92.942 73.7676 92.919L74.0696 92.4919C74.1088 92.4362 74.153 92.4313 74.2021 92.4771C74.2299 92.5017 74.2512 92.5344 74.266 92.5753C74.2987 92.6572 74.3584 92.6997 74.4452 92.703C75.7103 92.757 76.5499 92.8503 76.964 92.9829C77.5205 93.1629 78.0867 93.2988 78.6628 93.3904C78.7299 93.4002 78.7815 93.4207 78.8175 93.4518C78.8421 93.4714 78.8584 93.4984 78.8666 93.5328C78.8717 93.5527 78.8845 93.5699 78.9023 93.5808C78.9201 93.5918 78.9415 93.5957 78.9624 93.5917C79.4059 93.5017 79.8372 93.5123 80.2561 93.6236C80.3249 93.6416 80.3871 93.6302 80.4427 93.5893C80.5376 93.5222 80.6334 93.4804 80.7299 93.4641C80.7741 93.4575 80.8396 93.4731 80.9264 93.5107C81.0769 93.5729 81.2234 93.5639 81.3658 93.4837C81.4394 93.4411 81.518 93.428 81.6015 93.4444L82.2962 93.5721C82.344 93.5801 82.3932 93.5723 82.4362 93.55C82.8314 93.3413 83.2856 93.5058 83.6882 93.4886C84.4247 93.4591 85.1072 93.523 85.8388 93.5966C85.8502 93.5983 86.0687 93.6384 86.4943 93.7169C86.7578 93.7677 87.0254 93.766 87.2971 93.712C87.3773 93.6956 87.4566 93.6948 87.5352 93.7096C87.6514 93.7325 87.7668 93.7308 87.8813 93.7046C87.9566 93.6883 88.0327 93.6825 88.1097 93.6875L90.2774 93.7979C90.292 93.7987 90.3066 93.7962 90.3202 93.7907C90.3338 93.7851 90.346 93.7767 90.356 93.766L90.4272 93.6948C90.4337 93.6883 90.4411 93.6866 90.4493 93.6899C90.7209 93.7865 90.9992 93.8675 91.284 93.933C91.3085 93.9379 91.4574 93.9403 91.7308 93.9403C91.9092 93.9403 92.0344 94.032 92.1064 94.2153C92.1358 94.2889 92.1898 94.3249 92.2684 94.3233C92.4075 94.32 92.5409 94.2938 92.6686 94.2447C92.7488 94.2153 92.802 94.2415 92.8281 94.3233C92.8805 94.4722 92.991 94.5197 93.1596 94.4657C93.2349 94.4411 93.2676 94.3904 93.2578 94.3135L93.1522 93.3585C95.2267 104.202 95.1825 115.701 91.8511 126.307C91.7545 126.15 91.6358 126.081 91.4951 126.101C91.4852 126.102 91.4751 126.101 91.4655 126.098C91.4559 126.095 91.4469 126.09 91.4393 126.084C91.4317 126.077 91.4255 126.069 91.4211 126.059C91.4168 126.05 91.4144 126.04 91.4141 126.03V125.944C91.4124 125.857 91.3732 125.835 91.2962 125.877C91.2275 125.915 91.1588 125.913 91.09 125.872C91.0147 125.827 90.9624 125.8 90.9329 125.794C90.6776 125.735 90.4362 125.744 90.2087 125.821C90.189 125.827 90.1759 125.84 90.1694 125.86C90.1579 125.89 90.1448 125.917 90.1301 125.941C90.1203 125.961 90.1039 125.968 90.081 125.963L89.5409 125.845C89.5249 125.842 89.5082 125.844 89.4932 125.85C89.4782 125.857 89.4657 125.868 89.4573 125.882C89.4489 125.896 89.4451 125.912 89.4465 125.929C89.4478 125.945 89.4542 125.961 89.4648 125.973C89.4926 126.004 89.5025 126.036 89.4943 126.069C89.4812 126.121 89.4378 126.155 89.3642 126.169C89.2332 126.196 89.1457 126.162 89.1015 126.069C89.0671 125.995 89.0106 125.949 88.9321 125.929C88.6849 125.867 88.482 125.922 88.3232 126.096C88.3106 126.111 88.2933 126.122 88.274 126.126C88.2548 126.13 88.2346 126.129 88.2166 126.12C88.1985 126.112 88.1836 126.099 88.1741 126.081C88.1645 126.064 88.1609 126.044 88.1637 126.025C88.1686 125.979 88.1612 125.938 88.1416 125.902C88.1023 125.835 88.1211 125.798 88.198 125.791L88.7504 125.735C88.8224 125.728 88.892 125.737 88.9591 125.762C89.036 125.79 89.0908 125.784 89.1236 125.745C89.1759 125.687 89.2299 125.685 89.2856 125.737C89.3167 125.768 89.3527 125.786 89.3936 125.789C89.5327 125.799 89.6064 125.799 89.6146 125.789L89.7226 125.654C89.8093 125.546 89.784 125.492 89.6465 125.492C89.257 125.49 89.0352 125.399 88.9812 125.219C88.9632 125.159 88.9231 125.136 88.8609 125.151C88.446 125.244 87.9918 124.952 87.6015 124.854C87.5851 124.849 87.572 124.84 87.5622 124.827C87.5442 124.8 87.5352 124.774 87.5352 124.748C87.5335 124.702 87.5106 124.679 87.4664 124.679C87.0295 124.672 86.1309 124.75 85.7774 124.537C85.707 124.494 85.6309 124.471 85.5491 124.466C84.545 124.397 83.9214 124.093 82.7062 124.419C82.6342 124.439 82.5957 124.486 82.5908 124.561C82.581 124.738 82.5573 124.912 82.5196 125.082C82.4935 125.196 82.5663 125.301 82.7381 125.396C82.7411 125.397 82.7435 125.399 82.7449 125.402C82.7464 125.405 82.7469 125.408 82.7464 125.411C82.7459 125.414 82.7443 125.417 82.7419 125.42C82.7396 125.423 82.7365 125.425 82.7332 125.426C82.7087 125.431 82.6849 125.435 82.662 125.438C82.6211 125.443 82.5908 125.428 82.5712 125.394C82.4599 125.207 82.4214 125.007 82.4558 124.795C82.4673 124.716 82.4484 124.647 82.3993 124.586C82.0327 124.144 81.5687 123.955 81.0074 124.019C80.9321 124.029 80.8601 124.021 80.7913 123.994C80.662 123.947 80.4198 123.908 80.0647 123.876C79.4214 123.819 78.7774 123.77 78.1326 123.729C78.1031 123.728 78.0777 123.736 78.0565 123.754C78.0385 123.768 78.0213 123.783 78.0049 123.798C77.9902 123.811 77.9738 123.813 77.9558 123.805L77.3568 123.562C77.3137 123.544 77.2667 123.539 77.2208 123.546C77.175 123.553 77.132 123.572 77.0966 123.602C76.9885 123.692 76.865 123.726 76.7259 123.705C76.6375 123.692 76.5687 123.722 76.5196 123.795C76.1759 124.306 75.928 124.872 75.7758 125.492L73.8363 123.363C73.7906 123.314 73.7651 123.249 73.7646 123.181C73.7642 123.113 73.7888 123.048 73.8339 122.998C76.9787 119.512 80.3224 116.241 83.5213 112.827C84.4591 111.822 84.9452 110.902 83.7938 109.849C82.8437 108.982 81.7684 109.62 81.081 110.357C79.1056 112.471 77.1072 114.564 75.0859 116.634C73.8265 117.926 72.5745 119.207 71.3445 120.494C71.329 120.509 71.3104 120.522 71.2898 120.531C71.2693 120.539 71.2472 120.544 71.2249 120.543C71.2027 120.543 71.1807 120.538 71.1603 120.529C71.1399 120.52 71.1216 120.507 71.1064 120.491C68.8625 118.079 66.5998 115.667 64.3183 113.256C63.8633 112.775 63.5074 112.478 63.2504 112.365C62.1432 111.874 60.7218 112.981 60.9354 114.157C61.0057 114.542 61.279 115.008 61.7553 115.557C63.4517 117.511 65.3052 119.305 67.0458 121.218C67.1408 121.385 67.1612 121.563 67.1072 121.753C67.0876 121.817 67.045 121.845 66.9795 121.839L66.437 121.782C66.3617 121.774 66.2946 121.794 66.2357 121.841C66.1571 121.905 66.072 121.931 65.9804 121.917C65.8936 121.904 65.829 121.859 65.7864 121.782C65.6604 121.553 65.4951 121.357 65.2905 121.193C65.1645 121.092 64.9894 121.03 64.7651 121.009C64.5753 120.991 64.3863 120.963 64.198 120.926C63.9967 120.884 63.793 120.732 63.5425 120.754C63.464 120.76 63.3944 120.739 63.3339 120.69C62.9935 120.418 62.5966 120.335 62.1432 120.44C62.1154 120.446 62.0974 120.458 62.0892 120.474C62.0745 120.5 62.0843 120.525 62.1187 120.55C62.1261 120.555 62.1323 120.562 62.1367 120.57C62.1411 120.579 62.1437 120.587 62.1441 120.597C62.1446 120.606 62.143 120.615 62.1394 120.624C62.1359 120.632 62.1305 120.64 62.1236 120.646C61.9108 120.836 61.6809 120.889 61.4337 120.805C61.3633 120.781 61.302 120.795 61.2496 120.847L61.1047 120.992C61.0524 121.046 60.9885 121.072 60.9133 121.07C60.2848 121.067 59.6841 120.935 59.1113 120.673C59.0376 120.638 59.0025 120.581 59.0057 120.501C59.0123 120.354 58.9427 120.277 58.7971 120.27C56.2815 120.146 53.4779 120.099 50.3863 120.13C49.4043 120.14 48.4231 120.089 47.4427 119.978C47.3625 119.97 47.2913 119.939 47.2291 119.885C46.8854 119.59 45.9083 119.826 45.6628 119.826C44.4484 119.831 43.2332 119.813 42.0172 119.772C41.8241 119.765 41.6481 119.714 41.4894 119.62C41.1162 119.401 40.7185 118.959 40.2889 119.401C40.2316 119.46 40.1702 119.465 40.1047 119.416L39.5622 119.006C39.4902 118.952 39.4484 118.88 39.437 118.79L39.3314 117.985C39.32 117.903 39.2725 117.862 39.189 117.862C38.2643 117.868 37.3404 117.855 36.4173 117.822C35.7299 117.798 34.9444 117.506 34.1244 117.609C33.9501 117.629 33.8052 117.543 33.707 117.415C33.6612 117.354 33.6015 117.331 33.5278 117.346C33.1514 117.428 32.7979 117.449 32.4673 117.41C32.027 117.358 31.5393 117.25 31.0041 117.086C31.9763 116.119 33.8273 114.737 33.1375 113.234C32.6735 112.225 31.2422 111.867 30.3903 112.694C29.7594 113.305 29.1923 114.059 28.6326 114.624C26.7488 116.525 24.91 118.475 23.1162 120.471C23.0972 120.493 23.0739 120.511 23.0477 120.523C23.0216 120.535 22.9932 120.542 22.9644 120.542C22.9355 120.543 22.9069 120.538 22.8802 120.527C22.8535 120.516 22.8294 120.5 22.8093 120.479C19.4804 117.076 15.9599 113.315 12.7267 110.018C11.9493 109.226 11.1506 109.18 10.3306 109.881C9.26514 110.791 9.67758 111.786 10.527 112.694C11.9378 114.201 13.3674 115.69 14.8159 117.16L14.8552 117.521C14.8617 117.581 14.8372 117.597 14.7815 117.57C14.455 117.405 14.3298 117.081 13.8805 117.152C13.8052 117.164 13.7308 117.16 13.6571 117.14C13.464 117.088 13.266 117.077 13.063 117.108C12.991 117.118 12.9177 117.107 12.8521 117.075C12.7866 117.044 12.7318 116.994 12.6948 116.931C12.5867 116.746 12.4525 116.683 12.2921 116.742C12.207 116.773 12.1301 116.759 12.0614 116.701L11.8061 116.477C11.7504 116.428 11.6858 116.406 11.6121 116.411C11.5401 116.416 11.473 116.399 11.4108 116.359C11.3633 116.33 11.3036 116.301 11.2316 116.273C11.0696 116.213 10.901 116.192 10.7259 116.21C10.6309 116.221 10.5622 116.183 10.5196 116.097C10.4574 115.969 10.3699 115.872 10.257 115.807C10.2142 115.783 10.1745 115.763 10.1402 115.747C10.106 115.732 10.078 115.722 10.0581 115.719C9.87971 115.686 9.70376 115.584 9.53028 115.414C9.47463 115.358 9.40835 115.331 9.33142 115.333L8.59002 115.338C8.42719 115.339 8.26906 115.284 8.14306 115.18C8.01705 115.077 7.93112 114.933 7.90016 114.773L7.7725 114.093C7.75777 114.02 7.71358 113.99 7.63993 114.005C7.51719 114.031 7.41489 114.002 7.33306 113.917C7.32815 113.912 7.29787 113.899 7.24223 113.88C7.20949 113.868 7.19967 113.881 7.21277 113.919C7.2275 113.957 7.21522 113.976 7.17594 113.976L5.06465 114.022C4.97463 114.024 4.89362 114.052 4.8216 114.106C4.60556 114.268 4.38052 114.327 4.14648 114.282C4.05974 114.266 3.99836 114.297 3.96236 114.376L3.87643 114.562C3.84861 114.621 3.80442 114.638 3.74386 114.614L3.38789 114.471C3.33388 114.449 3.29051 114.462 3.25777 114.513L2.93126 115.019C2.89034 115.083 2.83224 115.114 2.75696 115.112C2.53764 115.107 2.36007 115.032 2.22422 114.886C2.17185 114.832 2.10966 114.793 2.03764 114.768L1.30851 114.516C1.26432 114.501 1.21931 114.495 1.17349 114.498C1.09984 114.503 1.03846 114.469 0.989362 114.395C0.833879 114.161 0.729951 113.903 0.677578 113.62C0.677739 113.613 0.676629 113.607 0.67431 113.601C0.671991 113.595 0.66851 113.589 0.664065 113.584C0.659619 113.58 0.654297 113.576 0.648402 113.573C0.642506 113.571 0.636153 113.569 0.629705 113.569C0.623258 113.569 0.616841 113.57 0.610822 113.572C0.604804 113.575 0.5993 113.578 0.594627 113.583C0.589954 113.587 0.586202 113.592 0.583585 113.598C0.580969 113.604 0.579539 113.611 0.579378 113.617C0.572831 113.645 0.55892 113.665 0.537643 113.676C0.481997 113.707 0.459902 113.753 0.471358 113.813C0.564648 114.306 0.500818 114.529 0.279869 114.481L0 110.136V105.749C0.255319 101.863 0.436989 98.5066 1.14648 94.1932L1.31833 94.2202C1.40835 94.2333 1.44272 94.1956 1.42144 94.1073C1.40998 94.0631 1.40671 94.0189 1.41162 93.9747C1.4198 93.8994 1.45827 93.8446 1.527 93.8102C1.62029 93.7627 1.69149 93.6891 1.74059 93.5893C1.77332 93.5222 1.82733 93.496 1.90262 93.5107C1.93863 93.5172 1.97054 93.5132 1.99836 93.4984C2.08347 93.451 2.15794 93.4649 2.22177 93.5402C2.2856 93.6138 2.37398 93.6842 2.48691 93.7513C2.55728 93.7906 2.61948 93.7881 2.67349 93.7439C2.73732 93.6932 2.80933 93.6776 2.88953 93.6973L4.16612 93.9968C4.23813 94.0132 4.29214 94.0549 4.32815 94.122C4.36579 94.1924 4.41326 94.1924 4.47054 94.122C4.47863 94.1126 4.48995 94.1067 4.50224 94.1053C4.51453 94.104 4.52688 94.1073 4.53682 94.1146L4.88543 94.3773C4.94272 94.4215 4.96072 94.478 4.93944 94.5467C4.91326 94.6285 4.95417 94.6703 5.06219 94.6719C5.89034 94.6735 6.71931 94.6744 7.5491 94.6744C7.78642 94.6727 7.91898 94.8028 7.94681 95.0647C7.95335 95.1367 7.99345 95.1752 8.0671 95.1801C8.28478 95.1965 8.49427 95.2423 8.69558 95.3176C8.77414 95.3454 8.85515 95.356 8.93863 95.3495C9.65303 95.2881 10.0925 95.6662 10.7308 95.649C10.9975 95.6424 11.3601 95.6302 11.8183 95.6122C12.1866 95.5974 12.4378 95.7636 12.572 96.1105C12.608 96.2055 12.6628 96.2169 12.7365 96.1449L12.8372 96.0443C12.8961 95.9853 12.9681 95.9518 13.0532 95.9436C13.4476 95.9109 13.8208 95.8086 14.1727 95.6367C14.3298 95.5598 14.5704 95.6416 14.8944 95.8822C16.473 98.5901 20.7054 99.2775 23.5016 99.1621C24.7242 99.113 26.7913 98.703 27.6579 97.8118C28.491 96.9575 28.4484 96.0434 27.5303 95.0696C29.261 94.721 30.4591 93.7096 31.7725 92.5582C31.8854 92.5827 32.0115 92.5549 32.1506 92.4747C32.2766 92.4027 32.2864 92.3127 32.18 92.2046C32.1731 92.1971 32.168 92.188 32.1652 92.1782C32.1624 92.1683 32.1619 92.158 32.1638 92.1482C32.1658 92.1383 32.17 92.1291 32.1763 92.1214C32.1825 92.1137 32.1905 92.1078 32.1997 92.104C32.581 91.9469 32.8944 91.7071 33.1399 91.3847C33.1579 91.3601 33.1547 91.3389 33.1301 91.3208C33.1105 91.3094 33.0908 91.3012 33.0712 91.2963C33.0565 91.2914 33.0556 91.2848 33.0687 91.2767C33.239 91.149 33.3797 90.9943 33.491 90.8127C33.5777 90.6719 33.572 90.5524 33.4738 90.4542C33.4165 90.3953 33.4182 90.3372 33.4787 90.2799C33.5098 90.2505 33.5532 90.2398 33.6088 90.248C33.6295 90.2513 33.6505 90.2484 33.6694 90.2395C33.6883 90.2306 33.7041 90.2162 33.7148 90.1981C33.7256 90.18 33.7308 90.159 33.7299 90.1378C33.7289 90.1165 33.7218 90.0959 33.7095 90.0786C33.6457 89.9952 33.6538 89.9109 33.734 89.8258C33.7782 89.7799 33.8322 89.7603 33.8961 89.7668C34.0106 89.7783 34.1784 89.7284 34.3993 89.6171C34.4095 89.6123 34.4205 89.6098 34.4317 89.6097C34.4428 89.6097 34.4538 89.6121 34.4637 89.6168C34.4737 89.6216 34.4823 89.6285 34.4891 89.637C34.4958 89.6456 34.5003 89.6555 34.5025 89.6662C34.5434 89.8413 34.662 89.906 34.8584 89.8601C35.5065 89.7104 36 89.6244 36.7267 89.7251C37.3282 89.8086 37.8633 89.6416 38.4329 89.7693C38.6931 89.8282 38.9534 89.883 39.2136 89.9338C39.2921 89.9501 39.3453 89.9207 39.3732 89.8454L39.4542 89.6269C39.4787 89.5614 39.509 89.5582 39.545 89.6171C39.5696 89.6596 39.6056 89.6875 39.653 89.7006C39.6657 89.7032 39.6789 89.7018 39.6904 89.6964C39.702 89.6911 39.7112 89.6822 39.7169 89.6711C39.8101 89.4927 39.9272 89.4657 40.0679 89.5901C40.1416 89.6555 40.2128 89.6531 40.2815 89.5827C40.383 89.4796 40.4542 89.505 40.4951 89.6588C40.5005 89.6789 40.512 89.6969 40.5279 89.7104C40.5437 89.7239 40.5634 89.7323 40.5841 89.7344C40.6048 89.7365 40.6257 89.7323 40.644 89.7223C40.6623 89.7123 40.6772 89.6971 40.6866 89.6785C40.6997 89.6506 40.7136 89.6228 40.7283 89.595C40.7578 89.5377 40.8028 89.5213 40.8633 89.5459C41.243 89.6965 41.6015 89.8757 41.9386 90.0835C42.0663 90.1621 42.0966 90.2488 42.0295 90.3438C41.9869 90.401 41.9984 90.4428 42.0638 90.469C42.2226 90.5344 42.3642 90.5238 42.4885 90.4371C42.5458 90.3978 42.6072 90.3863 42.6727 90.4027C42.7185 90.4141 42.748 90.442 42.761 90.4861C42.7758 90.5303 42.8061 90.5541 42.8519 90.5573C42.9124 90.5623 42.9656 90.5377 43.0115 90.4837C43.0589 90.428 43.1195 90.401 43.1931 90.4027C44.8953 90.4174 46.5974 90.4084 48.2995 90.3757C48.563 90.3708 48.9296 90.4027 49.3993 90.4714C49.9615 90.55 50.5851 90.4174 51.0933 90.739C51.1604 90.7816 51.2332 90.802 51.3118 90.8004C51.7881 90.7906 52.1612 90.933 52.635 90.8765C53.2954 90.7979 53.9951 90.9305 54.6555 90.9501C55.2275 90.9673 55.7578 91.1539 56.3396 91.2005C56.4018 91.2055 56.4476 91.2349 56.4771 91.2889L56.5115 91.3528C56.5344 91.3953 56.5687 91.4215 56.6146 91.4313C57.0712 91.5344 57.5393 91.5598 58.0188 91.5074C58.0586 91.503 58.0989 91.5069 58.1372 91.5188C58.1754 91.5308 58.2108 91.5505 58.241 91.5768C58.2712 91.6031 58.2957 91.6354 58.3128 91.6716C58.3299 91.7079 58.3393 91.7472 58.3404 91.7873C58.3502 92.0672 58.5646 92.1097 58.9836 91.915ZM38.5016 96.8274C42.0786 100.642 48.6236 100.694 52.3993 97.1244C52.464 97.0631 52.5152 96.9889 52.5496 96.9068C52.5841 96.8246 52.6011 96.7362 52.5994 96.6473C52.5978 96.5583 52.5777 96.4707 52.5402 96.3902C52.5028 96.3096 52.449 96.2377 52.3822 96.1793L52.2324 96.0467C51.7921 95.6605 51.3429 95.6498 50.8846 96.0148C47.6514 98.5901 42.4223 98.4624 39.6358 95.2218C39.3118 94.8454 39.0769 94.6236 38.9313 94.5565C38.3224 94.2791 37.4337 94.9272 37.6915 95.6244C37.8273 95.996 38.0974 96.397 38.5016 96.8274Z" fill="#FFD451"/>
<path id="Vector_48" d="M19.5342 92.4452C21.6848 94.8134 24.3501 95.6882 27.5301 95.0696C28.4483 96.0434 28.4908 96.9575 27.6578 97.8118C26.7912 98.703 24.7241 99.113 23.5015 99.1621C20.7052 99.2774 16.4728 98.59 14.8943 95.8822C14.3689 93.4542 17.5481 92.7668 19.3354 92.7693C19.5399 92.7709 19.6062 92.6629 19.5342 92.4452Z" fill="#EAADCB"/>
<path id="Vector_49" d="M52.3991 97.1243C48.6233 100.694 42.0783 100.642 38.5014 96.8273C38.0971 96.3968 37.8271 95.9958 37.6913 95.6243C37.4335 94.9271 38.3222 94.279 38.931 94.5564C39.0767 94.6235 39.3115 94.8453 39.6356 95.2217C42.422 98.4623 47.6512 98.59 50.8844 96.0147C51.3426 95.6497 51.7919 95.6603 52.2322 96.0466L52.3819 96.1791C52.4488 96.2376 52.5026 96.3095 52.54 96.39C52.5774 96.4706 52.5976 96.5582 52.5992 96.6471C52.6008 96.7361 52.5839 96.8245 52.5494 96.9066C52.5149 96.9888 52.4638 97.063 52.3991 97.1243Z" fill="black"/>
<path id="Vector_50" d="M72.3339 94.5712C73.7897 94.9222 78.3658 95.6735 77.8625 98.153C77.7791 98.5638 77.5098 98.9509 77.0548 99.3142C75.0221 100.947 71.4648 101.18 69.0442 100.777C67.1342 100.463 63.5008 99.5278 64.5025 96.7266C67.6072 97.3388 70.2177 96.6203 72.3339 94.5712Z" fill="#EAADCB"/>
<path id="Vector_51" d="M31.0039 117.086L25.4237 123.047C25.3631 123.114 25.364 123.178 25.4262 123.241C26.963 124.791 28.4777 126.366 29.9703 127.966C31.3304 129.425 33.0268 131.079 34.4851 132.7C35.1725 133.463 36.6749 134.514 36.4343 135.631C36.1299 137.043 34.5563 137.742 33.4908 136.579C32.3566 135.339 31.0923 134.17 29.99 132.962C28.5415 131.376 26.9041 129.808 25.5342 128.337C24.7306 127.475 23.9311 126.636 23.1356 125.821C23.0293 125.713 22.9229 125.712 22.8165 125.818C21.2895 127.353 19.9933 128.931 18.5031 130.414C17.7322 131.183 17.1037 131.73 16.0898 131.264C14.9262 130.731 14.8157 129.292 15.6627 128.394C17.2895 126.672 18.9 124.971 20.4941 123.292C20.5677 123.215 20.5677 123.138 20.4941 123.061L14.8157 117.16C13.3672 115.69 11.9376 114.201 10.5268 112.694C9.67739 111.786 9.26495 110.791 10.3304 109.881C11.1504 109.18 11.9491 109.226 12.7265 110.018C15.9597 113.315 19.4802 117.076 22.8091 120.479C22.8292 120.5 22.8533 120.516 22.88 120.527C22.9067 120.538 22.9354 120.543 22.9642 120.542C22.993 120.542 23.0214 120.535 23.0475 120.523C23.0737 120.511 23.097 120.493 23.116 120.471C24.9098 118.475 26.7486 116.525 28.6324 114.624C29.1921 114.059 29.7592 113.305 30.3902 112.694C31.242 111.867 32.6733 112.225 33.1373 113.234C33.8271 114.737 31.9761 116.119 31.0039 117.086Z" fill="#ECB733"/>
<path id="Vector_52" d="M75.7757 125.492C76.4582 126.232 77.1849 126.972 77.9558 127.714C78.7635 128.487 79.581 129.687 78.8788 130.662C78.1227 131.705 76.6964 131.619 75.8543 130.669C74.3666 128.99 72.8682 127.38 71.3592 125.838C71.2463 125.723 71.1358 125.726 71.0278 125.845C70.6055 126.312 70.1972 126.739 69.8027 127.127C69.0482 127.867 68.306 128.619 67.5761 129.383C65.3879 131.678 63.2021 133.974 61.0188 136.272C60.5687 136.745 60.1825 137.029 59.86 137.126C58.6865 137.477 57.5548 136.11 57.842 135.007C57.932 134.656 58.2217 134.22 58.7111 133.701C60.216 132.101 61.7553 130.583 63.2749 128.953C64.1734 127.986 65.0892 127.035 66.0221 126.101C66.8027 125.32 67.6865 124.201 68.644 123.363C68.6736 123.338 68.6977 123.306 68.715 123.271C68.7322 123.236 68.7421 123.197 68.7442 123.158C68.7462 123.119 68.7404 123.08 68.727 123.043C68.7135 123.006 68.6928 122.972 68.6661 122.944L67.0458 121.218C65.3052 119.305 63.4517 117.511 61.7553 115.556C61.279 115.008 61.0057 114.542 60.9353 114.157C60.7217 112.981 62.1432 111.874 63.2504 112.365C63.5073 112.478 63.8633 112.775 64.3183 113.256C66.5998 115.667 68.8625 118.079 71.1064 120.491C71.1215 120.507 71.1399 120.52 71.1603 120.529C71.1806 120.538 71.2026 120.543 71.2249 120.543C71.2472 120.543 71.2692 120.539 71.2898 120.531C71.3104 120.522 71.329 120.509 71.3445 120.493C72.5744 119.207 73.8265 117.926 75.0859 116.634C77.1072 114.564 79.1055 112.471 81.081 110.357C81.7684 109.62 82.8437 108.982 83.7937 109.849C84.9451 110.902 84.459 111.822 83.5212 112.827C80.3224 116.241 76.9787 119.511 73.8338 122.998C73.7888 123.048 73.7641 123.113 73.7646 123.181C73.765 123.249 73.7906 123.314 73.8363 123.363L75.7757 125.492Z" fill="#ECB733"/>
<path id="Vector_53" d="M14.8158 117.16L20.4942 123.061C20.5678 123.138 20.5678 123.215 20.4942 123.292C18.9001 124.971 17.2896 126.672 15.6628 128.394C14.8158 129.292 14.9263 130.731 16.0899 131.263C17.1038 131.73 17.7323 131.182 18.5032 130.414C19.9934 128.931 21.2896 127.353 22.8166 125.818C22.923 125.712 23.0294 125.713 23.1358 125.821C23.9312 126.636 24.7307 127.475 25.5343 128.337C26.9042 129.808 28.5417 131.376 29.9901 132.962C31.0924 134.17 32.3567 135.339 33.4909 136.579C34.5564 137.742 36.13 137.043 36.4345 135.631C36.675 134.514 35.1726 133.463 34.4852 132.7C33.0269 131.079 31.3305 129.425 29.9705 127.966C28.4778 126.366 26.9631 124.79 25.4263 123.241C25.3641 123.178 25.3633 123.114 25.4238 123.047L31.004 117.086C31.5392 117.25 32.0269 117.358 32.4672 117.41C32.7978 117.449 33.1513 117.428 33.5277 117.346C33.6014 117.331 33.6611 117.354 33.707 117.415C33.8052 117.543 33.95 117.628 34.1243 117.609C34.9443 117.506 35.7299 117.798 36.4173 117.822C37.3403 117.855 38.2642 117.868 39.189 117.862C39.2724 117.862 39.3199 117.903 39.3313 117.984L39.4369 118.79C39.4484 118.88 39.4901 118.952 39.5621 119.006L40.1047 119.416C40.1701 119.465 40.2315 119.46 40.2888 119.401C40.7184 118.959 41.1161 119.401 41.4893 119.619C41.648 119.714 41.824 119.765 42.0171 119.772C43.2331 119.813 44.4484 119.831 45.6628 119.826C45.9083 119.826 46.8854 119.59 47.2291 119.885C47.2912 119.939 47.3624 119.97 47.4426 119.978C48.423 120.089 49.4042 120.14 50.3862 120.13C53.4778 120.099 56.2814 120.146 58.797 120.27C58.9426 120.277 59.0122 120.353 59.0056 120.501C59.0024 120.581 59.0376 120.638 59.1112 120.673C59.684 120.934 60.2847 121.067 60.9132 121.07C60.9885 121.072 61.0523 121.046 61.1047 120.992L61.2495 120.847C61.3019 120.795 61.3633 120.781 61.4336 120.805C61.6808 120.889 61.9107 120.835 62.1235 120.646C62.1304 120.64 62.1358 120.632 62.1394 120.623C62.1429 120.615 62.1445 120.606 62.1441 120.597C62.1436 120.587 62.141 120.578 62.1366 120.57C62.1322 120.562 62.1261 120.555 62.1186 120.55C62.0842 120.525 62.0744 120.5 62.0891 120.474C62.0973 120.457 62.1153 120.446 62.1431 120.439C62.5965 120.335 62.9934 120.418 63.3338 120.69C63.3944 120.739 63.4639 120.76 63.5425 120.754C63.7929 120.732 63.9966 120.884 64.198 120.925C64.3862 120.963 64.5752 120.991 64.7651 121.009C64.9893 121.03 65.1644 121.092 65.2904 121.193C65.495 121.357 65.6603 121.553 65.7863 121.782C65.8289 121.859 65.8935 121.904 65.9803 121.917C66.0719 121.93 66.157 121.905 66.2356 121.841C66.2945 121.794 66.3616 121.774 66.4369 121.782L66.9795 121.839C67.0449 121.845 67.0875 121.817 67.1071 121.753C67.1611 121.563 67.1407 121.385 67.0457 121.218L68.666 122.943C68.6928 122.972 68.7135 123.006 68.7269 123.043C68.7403 123.08 68.7462 123.119 68.7441 123.158C68.7421 123.197 68.7321 123.236 68.7149 123.271C68.6977 123.306 68.6736 123.338 68.6439 123.363C67.6865 124.2 66.8027 125.32 66.022 126.101C65.0891 127.035 64.1734 127.986 63.2749 128.953C61.7552 130.583 60.216 132.101 58.711 133.701C58.2217 134.22 57.932 134.655 57.842 135.007C57.5547 136.11 58.6865 137.477 59.86 137.126C60.1824 137.029 60.5687 136.745 61.0187 136.272C63.202 133.974 65.3878 131.678 67.576 129.383C68.306 128.619 69.0482 127.867 69.8027 127.127C70.1971 126.739 70.6055 126.312 71.0277 125.845C71.1358 125.726 71.2462 125.723 71.3592 125.838C72.8682 127.38 74.3665 128.99 75.8543 130.669C76.6963 131.619 78.1227 131.705 78.8788 130.662C79.5809 129.687 78.7634 128.487 77.9557 127.714C77.1849 126.972 76.4582 126.232 75.7757 125.492C75.9279 124.871 76.1759 124.306 76.5196 123.795C76.5687 123.722 76.6374 123.691 76.7258 123.705C76.8649 123.726 76.9885 123.691 77.0965 123.601C77.1319 123.572 77.1749 123.552 77.2208 123.546C77.2666 123.539 77.3137 123.544 77.3567 123.562L77.9557 123.805C77.9737 123.813 77.9901 123.811 78.0048 123.798C78.0212 123.783 78.0384 123.768 78.0564 123.754C78.0777 123.736 78.103 123.727 78.1325 123.729C78.7773 123.77 79.4214 123.819 80.0646 123.876C80.4197 123.907 80.6619 123.947 80.7912 123.994C80.86 124.02 80.932 124.029 81.0073 124.019C81.5687 123.955 82.0327 124.144 82.3993 124.586C82.4484 124.646 82.4672 124.716 82.4557 124.795C82.4214 125.007 82.4598 125.207 82.5711 125.394C82.5908 125.428 82.621 125.443 82.6619 125.438C82.6849 125.434 82.7086 125.43 82.7331 125.425C82.7365 125.424 82.7395 125.422 82.7419 125.42C82.7442 125.417 82.7458 125.414 82.7463 125.411C82.7468 125.408 82.7463 125.405 82.7449 125.402C82.7434 125.399 82.741 125.397 82.738 125.396C82.5662 125.301 82.4934 125.196 82.5196 125.082C82.5572 124.912 82.5809 124.738 82.5908 124.561C82.5957 124.486 82.6341 124.439 82.7061 124.419C83.9214 124.092 84.5449 124.397 85.549 124.466C85.6309 124.47 85.707 124.494 85.7773 124.537C86.1309 124.75 87.0294 124.672 87.4664 124.679C87.5106 124.679 87.5335 124.702 87.5351 124.748C87.5351 124.774 87.5441 124.8 87.5621 124.826C87.5719 124.84 87.585 124.849 87.6014 124.853C87.9917 124.952 88.4459 125.244 88.8608 125.151C88.923 125.136 88.9631 125.159 88.9811 125.219C89.0351 125.399 89.2569 125.49 89.6464 125.492C89.7839 125.492 89.8092 125.546 89.7225 125.654L89.6145 125.789C89.6063 125.799 89.5327 125.799 89.3935 125.789C89.3526 125.786 89.3166 125.768 89.2855 125.737C89.2299 125.685 89.1759 125.687 89.1235 125.745C89.0908 125.784 89.0359 125.79 88.959 125.762C88.8919 125.737 88.8223 125.728 88.7503 125.735L88.198 125.791C88.121 125.798 88.1022 125.835 88.1415 125.902C88.1611 125.938 88.1685 125.979 88.1636 126.025C88.1608 126.044 88.1644 126.064 88.174 126.081C88.1835 126.099 88.1984 126.112 88.2165 126.12C88.2345 126.128 88.2547 126.13 88.274 126.126C88.2932 126.121 88.3105 126.111 88.3232 126.096C88.4819 125.922 88.6849 125.867 88.932 125.929C89.0106 125.948 89.067 125.995 89.1014 126.069C89.1456 126.162 89.2331 126.196 89.3641 126.169C89.4377 126.155 89.4811 126.121 89.4942 126.069C89.5024 126.036 89.4926 126.004 89.4647 125.973C89.4541 125.96 89.4477 125.945 89.4464 125.929C89.445 125.912 89.4488 125.896 89.4572 125.882C89.4656 125.868 89.4781 125.857 89.4931 125.85C89.5081 125.844 89.5248 125.842 89.5408 125.845L90.0809 125.963C90.1038 125.968 90.1202 125.961 90.13 125.941C90.1448 125.916 90.1579 125.889 90.1693 125.86C90.1759 125.84 90.189 125.827 90.2086 125.821C90.4361 125.744 90.6775 125.735 90.9328 125.794C90.9623 125.8 91.0146 125.826 91.0899 125.872C91.1587 125.913 91.2274 125.915 91.2962 125.877C91.3731 125.835 91.4124 125.857 91.414 125.943V126.029C91.4143 126.04 91.4167 126.05 91.421 126.059C91.4254 126.069 91.4316 126.077 91.4392 126.084C91.4469 126.09 91.4558 126.095 91.4654 126.098C91.475 126.101 91.4851 126.102 91.495 126.101C91.6358 126.081 91.7544 126.15 91.851 126.307C90.1349 131.236 87.729 135.557 83.5016 139.537C78.7462 144.015 73.1292 146.29 66.9009 147.952C61.3747 149.428 55.6742 149.74 49.9885 150H44.4966C38.8502 149.752 33.2331 149.475 27.8027 148.002C24.0318 146.98 20.2413 145.868 16.7577 143.732C15.4099 142.907 14.1628 142.119 12.8862 141.179C11.8526 140.418 10.9418 139.414 9.95982 138.567C9.70286 138.346 9.20204 137.783 8.45736 136.878C5.73969 133.583 3.87389 129.965 2.60466 125.997C2.2536 124.903 1.83871 123.793 1.58584 122.715C0.947543 119.993 0.512191 117.249 0.279785 114.481C0.500734 114.529 0.564564 114.306 0.471275 113.813C0.459818 113.753 0.481913 113.707 0.537559 113.676C0.558836 113.664 0.572747 113.645 0.579294 113.617C0.579455 113.611 0.580885 113.604 0.583501 113.598C0.586118 113.592 0.58987 113.587 0.594543 113.583C0.599216 113.578 0.60472 113.575 0.610738 113.572C0.616757 113.57 0.623174 113.569 0.629622 113.569C0.636069 113.569 0.642422 113.571 0.648318 113.573C0.654213 113.576 0.659535 113.58 0.663981 113.584C0.668426 113.589 0.671908 113.595 0.674226 113.601C0.676545 113.607 0.677655 113.613 0.677494 113.619C0.729867 113.903 0.833795 114.161 0.989278 114.395C1.03838 114.469 1.09975 114.503 1.1734 114.498C1.21923 114.495 1.26424 114.501 1.30843 114.516L2.03756 114.768C2.10957 114.793 2.17177 114.832 2.22414 114.886C2.35998 115.032 2.53756 115.107 2.75687 115.112C2.83216 115.114 2.89026 115.083 2.93118 115.019L3.25769 114.513C3.29042 114.462 3.3338 114.448 3.3878 114.471L3.74378 114.614C3.80434 114.638 3.84853 114.621 3.87635 114.562L3.96227 114.376C3.99828 114.297 4.05965 114.266 4.1464 114.282C4.38044 114.326 4.60548 114.268 4.82152 114.106C4.89353 114.052 4.97455 114.024 5.06456 114.022L7.17586 113.975C7.21514 113.975 7.22741 113.957 7.21268 113.919C7.19959 113.881 7.20941 113.868 7.24214 113.88C7.29779 113.899 7.32807 113.912 7.33298 113.916C7.41481 114.002 7.5171 114.031 7.63985 114.005C7.7135 113.99 7.75769 114.02 7.77242 114.093L7.90008 114.773C7.93104 114.933 8.01697 115.077 8.14297 115.18C8.26898 115.283 8.42711 115.339 8.58993 115.338L9.33134 115.333C9.40826 115.331 9.47455 115.358 9.5302 115.414C9.70368 115.584 9.87962 115.686 10.058 115.718C10.0779 115.722 10.1059 115.732 10.1402 115.747C10.1744 115.762 10.2141 115.783 10.2569 115.807C10.3698 115.872 10.4574 115.969 10.5196 116.097C10.5621 116.183 10.6308 116.221 10.7258 116.209C10.9009 116.191 11.0695 116.213 11.2315 116.273C11.3035 116.301 11.3633 116.33 11.4107 116.359C11.4729 116.398 11.54 116.416 11.612 116.411C11.6857 116.406 11.7503 116.428 11.806 116.477L12.0613 116.7C12.13 116.759 12.207 116.773 12.2921 116.742C12.4525 116.683 12.5867 116.746 12.6947 116.931C12.7318 116.994 12.7865 117.044 12.852 117.075C12.9176 117.107 12.991 117.118 13.0629 117.108C13.2659 117.077 13.4639 117.088 13.657 117.14C13.7307 117.16 13.8052 117.164 13.8804 117.152C14.3297 117.081 14.4549 117.405 14.7814 117.57C14.8371 117.597 14.8616 117.581 14.8551 117.52L14.8158 117.16Z" fill="#FFCD46"/>
</g>
<defs>
<clipPath id="clip0_3559_4948">
<rect width="100.164" height="150" fill="white"/>
</clipPath>
</defs>
</svg>
