<svg width="216" height="69" viewBox="0 0 216 69" fill="none" xmlns="http://www.w3.org/2000/svg">
<g id="LOGO">
<path id="Vector" d="M25.3543 8.51806C23.905 8.47343 23.56 6.63223 24.6642 6.04082C25.7396 5.46614 26.7173 6.4258 26.7403 7.4803C26.748 7.66628 26.8151 7.82622 26.9416 7.96013L28.1148 9.22106C28.1794 9.29249 28.2601 9.34871 28.3508 9.38544C28.4414 9.42218 28.5397 9.43847 28.6382 9.43308C30.5188 9.32708 31.1227 11.4919 29.2018 12.0777C29.0298 12.1297 28.848 12.1443 28.6694 12.1204C28.4909 12.0964 28.32 12.0345 28.169 11.9392C28.0179 11.8438 27.8904 11.7172 27.7956 11.5685C27.7007 11.4199 27.6409 11.2527 27.6203 11.079C27.4899 9.978 26.8995 9.16713 25.8489 8.64639C25.6956 8.56828 25.5307 8.5255 25.3543 8.51806ZM25.8317 7.30175C25.8317 7.15526 25.7717 7.01477 25.6649 6.91118C25.5581 6.8076 25.4133 6.74939 25.2623 6.74939C25.1113 6.74939 24.9665 6.8076 24.8597 6.91118C24.7529 7.01477 24.6929 7.15526 24.6929 7.30175C24.6929 7.37429 24.7077 7.44612 24.7363 7.51314C24.7649 7.58015 24.8068 7.64104 24.8597 7.69234C24.9126 7.74363 24.9753 7.78431 25.0444 7.81207C25.1135 7.83983 25.1875 7.85412 25.2623 7.85412C25.3371 7.85412 25.4111 7.83983 25.4802 7.81207C25.5493 7.78431 25.612 7.74363 25.6649 7.69234C25.7178 7.64104 25.7597 7.58015 25.7883 7.51314C25.8169 7.44612 25.8317 7.37429 25.8317 7.30175ZM29.4847 10.8072C29.4988 10.6956 29.4468 10.5807 29.3401 10.4879C29.2334 10.3951 29.0808 10.3319 28.9158 10.3122C28.834 10.3025 28.7518 10.3037 28.6736 10.3159C28.5954 10.3281 28.5229 10.3509 28.4602 10.3831C28.3975 10.4153 28.3458 10.4562 28.308 10.5036C28.2703 10.5509 28.2473 10.6037 28.2403 10.659C28.2262 10.7706 28.2782 10.8854 28.3849 10.9783C28.4916 11.0711 28.6442 11.1343 28.8092 11.1539C28.891 11.1637 28.9732 11.1624 29.0514 11.1503C29.1296 11.1381 29.2021 11.1153 29.2648 11.0831C29.3275 11.0509 29.3792 11.0099 29.417 10.9626C29.4547 10.9153 29.4777 10.8624 29.4847 10.8072Z" fill="white"/>
<path id="Vector_2" d="M35.2629 12.0511C35.4043 11.8978 35.3955 11.7561 35.2364 11.6258C34.0586 10.6449 33.27 9.77133 32.8703 9.00502C32.7253 8.72531 32.4672 8.57397 32.0958 8.55098C31.6325 8.52416 31.3584 8.48967 31.2735 8.44752C30.7784 8.2023 30.5715 7.68313 30.6529 6.89C30.6849 6.59154 30.8231 6.31836 31.038 6.12844C31.2529 5.93851 31.5277 5.84679 31.804 5.87272C32.8332 5.96468 33.3036 6.55857 33.2152 7.6544C33.201 7.83448 33.2541 7.98582 33.3743 8.10843L36.2761 11.12C36.9375 11.8097 36.8986 12.4477 36.1594 13.0339C34.9074 14.0263 33.8129 15.1949 32.8756 16.5398C32.766 16.6969 32.621 16.7792 32.4406 16.7869C30.8651 16.8329 28.8492 16.5628 28.1383 16.9938C27.629 17.3042 27.3655 17.4613 27.3479 17.4651C25.6821 17.8214 25.2948 15.3443 26.6582 14.8041C27.1675 14.6048 27.6113 14.7523 27.9898 15.2466C28.0481 15.3205 28.1205 15.3799 28.202 15.4206C28.2835 15.4612 28.3722 15.4823 28.4619 15.4823H31.751C31.9667 15.4823 32.1506 15.3999 32.3027 15.2351L35.2629 12.0511ZM32.5043 7.39576C32.5043 7.23876 32.4467 7.08819 32.3443 6.97717C32.2418 6.86616 32.1028 6.80379 31.9579 6.80379C31.813 6.80379 31.674 6.86616 31.5715 6.97717C31.469 7.08819 31.4115 7.23876 31.4115 7.39576C31.4115 7.4735 31.4256 7.55048 31.4531 7.6223C31.4805 7.69412 31.5208 7.75939 31.5715 7.81436C31.6223 7.86933 31.6825 7.91293 31.7488 7.94268C31.8151 7.97243 31.8861 7.98774 31.9579 7.98774C32.0296 7.98774 32.1007 7.97243 32.167 7.94268C32.2333 7.91293 32.2935 7.86933 32.3443 7.81436C32.395 7.75939 32.4352 7.69412 32.4627 7.6223C32.4902 7.55048 32.5043 7.4735 32.5043 7.39576ZM27.6025 16.1777C27.6025 16.0466 27.5544 15.9209 27.4689 15.8282C27.3833 15.7355 27.2673 15.6834 27.1463 15.6834C27.0253 15.6834 26.9092 15.7355 26.8237 15.8282C26.7381 15.9209 26.69 16.0466 26.69 16.1777C26.69 16.3088 26.7381 16.4345 26.8237 16.5272C26.9092 16.6199 27.0253 16.672 27.1463 16.672C27.2673 16.672 27.3833 16.6199 27.4689 16.5272C27.5544 16.4345 27.6025 16.3088 27.6025 16.1777Z" fill="white"/>
<path id="Vector_3" d="M39.8752 48.4807C40.4047 48.8365 40.5195 49.318 40.2196 49.9253C40.146 50.0744 40.0415 50.2071 39.9124 50.3151C39.7834 50.423 39.6328 50.5038 39.47 50.5525C39.3072 50.6011 39.1357 50.6164 38.9665 50.5975C38.7973 50.5786 38.6339 50.5259 38.4867 50.4427C37.8943 50.1085 37.6777 49.6288 37.8369 49.0036C37.8692 48.8746 37.9456 48.7605 38.0535 48.6802L38.3757 48.4268C38.44 48.3763 38.4918 48.3128 38.5274 48.241C38.5629 48.1692 38.5813 48.0909 38.5811 48.0118V32.8657C38.5813 32.7478 38.5573 32.6309 38.5106 32.5217C38.4639 32.4126 38.3954 32.3133 38.309 32.2297L32.0275 26.1551C31.8868 26.0221 31.7183 25.9556 31.5221 25.9556C29.4597 25.9844 27.4085 26.0023 25.3683 26.0095C22.819 26.0203 22.3358 24.2847 20.6586 22.9749C20.2846 22.6838 19.9069 22.3982 19.5255 22.1179C19.4496 22.0611 19.388 21.9883 19.3456 21.9051C19.3033 21.8219 19.2812 21.7306 19.2812 21.6382V11.3647C19.2812 11.1491 19.2108 10.9568 19.0701 10.788C17.0041 8.30313 21.8693 7.61321 21.3417 10.1465C21.3047 10.3406 21.2047 10.4969 21.0418 10.6155L20.7918 10.8041C20.6474 10.9083 20.5752 11.0503 20.5752 11.2299L20.5475 21.0507C20.5475 21.2447 20.6197 21.4082 20.7641 21.5412L24.2853 24.8129C24.4101 24.9304 24.5754 24.9961 24.7463 24.9962H32.0219C32.1588 24.9944 32.2948 25.0197 32.4217 25.0707C32.5487 25.1216 32.664 25.1971 32.7606 25.2926L39.2865 31.6314C39.394 31.7356 39.4793 31.8592 39.5374 31.9951C39.5956 32.1311 39.6254 32.2767 39.6253 32.4237V48.0226C39.6254 48.1125 39.6483 48.2012 39.6918 48.281C39.7353 48.3608 39.7983 48.4293 39.8752 48.4807ZM20.5197 9.72611C20.5197 9.58316 20.4612 9.44607 20.357 9.34498C20.2529 9.2439 20.1116 9.1871 19.9643 9.1871C19.817 9.1871 19.6757 9.2439 19.5716 9.34498C19.4674 9.44607 19.4089 9.58316 19.4089 9.72611C19.4089 9.86907 19.4674 10.0062 19.5716 10.1072C19.6757 10.2083 19.817 10.2651 19.9643 10.2651C20.1116 10.2651 20.2529 10.2083 20.357 10.1072C20.4612 10.0062 20.5197 9.86907 20.5197 9.72611ZM38.9843 49.8139C39.0369 49.8284 39.0929 49.8297 39.1489 49.8177C39.2049 49.8058 39.2599 49.7809 39.3107 49.7444C39.3615 49.7079 39.4072 49.6605 39.4452 49.605C39.4831 49.5495 39.5126 49.4869 39.5318 49.4209C39.5511 49.3548 39.5598 49.2865 39.5574 49.22C39.5551 49.1534 39.5417 49.0898 39.5181 49.0329C39.4945 48.9759 39.4612 48.9267 39.4199 48.8881C39.3786 48.8495 39.3303 48.8221 39.2777 48.8077C39.225 48.7932 39.1691 48.7919 39.1131 48.8039C39.0571 48.8158 39.0021 48.8407 38.9513 48.8772C38.9004 48.9137 38.8547 48.9611 38.8168 49.0166C38.7789 49.0721 38.7494 49.1347 38.7302 49.2007C38.7109 49.2668 38.7022 49.3351 38.7045 49.4016C38.7069 49.4682 38.7202 49.5318 38.7438 49.5887C38.7674 49.6457 38.8008 49.6949 38.8421 49.7335C38.8833 49.7721 38.9317 49.7995 38.9843 49.8139Z" fill="white"/>
<path id="Vector_4" d="M28.0477 20.5961C27.7431 20.9636 27.329 21.1213 26.8052 21.0694C26.6329 21.0523 26.4678 20.9924 26.3256 20.895C26.1833 20.7976 26.0685 20.6661 25.9918 20.5126C25.2842 19.0819 27.0894 17.6344 28.0978 19.132C28.1453 19.2051 28.2111 19.265 28.2891 19.3059C28.3671 19.3469 28.4547 19.3674 28.5435 19.3658L33.3015 19.3101C33.5132 19.3064 33.6934 19.2303 33.8419 19.0819L39.7309 13.2418C39.8721 13.1008 39.9649 12.9338 40.0095 12.7408C40.2769 11.5531 40.1395 10.4267 39.5972 9.36148C39.525 9.2215 39.4826 9.0681 39.4726 8.91094C39.4626 8.75377 39.4853 8.59624 39.5392 8.44825C39.5931 8.30027 39.677 8.16503 39.7858 8.05105C39.8945 7.93707 40.0257 7.84681 40.1711 7.78596C41.6197 7.1847 43.0571 8.8326 41.5807 10.0073C41.4321 10.126 41.3578 10.2801 41.3578 10.4694L41.3745 12.9468C41.3745 13.1101 41.3114 13.2418 41.1851 13.342C39.9037 14.3553 39.1961 15.6858 37.8979 16.6991C36.4995 17.7903 35.6527 19.1765 34.1038 20.2343C33.9879 20.3141 33.8479 20.3568 33.7027 20.3568L28.5658 20.3512C28.3541 20.3512 28.1814 20.4328 28.0477 20.5961ZM41.2965 8.90497C41.2965 8.76174 41.2396 8.62439 41.1382 8.52312C41.0369 8.42185 40.8994 8.36495 40.7561 8.36495C40.6128 8.36495 40.4753 8.42185 40.3739 8.52312C40.2726 8.62439 40.2157 8.76174 40.2157 8.90497C40.2157 9.04819 40.2726 9.18555 40.3739 9.28682C40.4753 9.38809 40.6128 9.44499 40.7561 9.44499C40.8994 9.44499 41.0369 9.38809 41.1382 9.28682C41.2396 9.18555 41.2965 9.04819 41.2965 8.90497ZM27.641 19.8167C27.641 19.7281 27.5899 19.6432 27.499 19.5805C27.4081 19.5179 27.2848 19.4827 27.1562 19.4827C27.0277 19.4827 26.9044 19.5179 26.8135 19.5805C26.7226 19.6432 26.6715 19.7281 26.6715 19.8167C26.6715 19.9053 26.7226 19.9903 26.8135 20.0529C26.9044 20.1156 27.0277 20.1508 27.1562 20.1508C27.2848 20.1508 27.4081 20.1156 27.499 20.0529C27.5899 19.9903 27.641 19.9053 27.641 19.8167Z" fill="white"/>
<path id="Vector_5" d="M44.9253 13.3685C43.785 12.2795 44.8387 10.9062 46.109 11.3085C46.2311 11.347 46.3443 11.4144 46.4408 11.5061C46.5373 11.5978 46.6148 11.7116 46.6679 11.8397C46.721 11.9677 46.7484 12.107 46.7483 12.2477C46.7481 12.3885 46.7205 12.5275 46.6671 12.655C46.5452 12.9447 46.3897 13.195 46.2004 13.406C46.1046 13.5161 46.0511 13.6623 46.0512 13.8137L46.056 18.9046C46.056 19.0512 46.0095 19.1782 45.9165 19.2855L43.8908 21.5493C43.7465 21.7102 43.6743 21.9033 43.6743 22.1287L43.6839 31.7632C43.6838 31.865 43.7021 31.9658 43.7376 32.0597C43.7731 32.1537 43.8252 32.2389 43.8908 32.3104C44.0737 32.5035 44.21 32.7288 44.2998 32.9863C44.3918 33.249 44.3873 33.5415 44.2873 33.8005C44.1874 34.0595 44 34.2642 43.7657 34.3704C43.2878 34.5849 42.8419 34.5331 42.4281 34.2148C42.3637 34.1662 42.3102 34.1018 42.2718 34.0264C42.2334 33.951 42.2112 33.8668 42.2067 33.7803C42.1779 33.276 42.2613 32.795 42.4569 32.3372C42.5307 32.1656 42.5676 31.9832 42.5676 31.7901V21.4849C42.5676 21.4039 42.5831 21.3242 42.613 21.251C42.6429 21.1779 42.6865 21.1131 42.7408 21.0611L44.9013 18.9851C45.0296 18.8635 45.0937 18.7097 45.0937 18.5237L45.0985 13.7869C45.0986 13.708 45.0832 13.6297 45.0533 13.5575C45.0234 13.4853 44.9797 13.4208 44.9253 13.3685ZM45.9598 12.3439C45.9598 12.213 45.9132 12.0874 45.8302 11.9949C45.7471 11.9023 45.6346 11.8503 45.5171 11.8503C45.3997 11.8503 45.2871 11.9023 45.2041 11.9949C45.1211 12.0874 45.0745 12.213 45.0745 12.3439C45.0745 12.4087 45.0859 12.4729 45.1082 12.5327C45.1304 12.5926 45.163 12.647 45.2041 12.6928C45.2452 12.7387 45.294 12.775 45.3477 12.7998C45.4015 12.8246 45.459 12.8374 45.5171 12.8374C45.5753 12.8374 45.6328 12.8246 45.6865 12.7998C45.7403 12.775 45.7891 12.7387 45.8302 12.6928C45.8713 12.647 45.9039 12.5926 45.9261 12.5327C45.9484 12.4729 45.9598 12.4087 45.9598 12.3439ZM43.5925 33.3618C43.5925 33.2267 43.5443 33.0971 43.4586 33.0015C43.3729 32.9059 43.2566 32.8522 43.1354 32.8522C43.0754 32.8522 43.0159 32.8654 42.9605 32.891C42.905 32.9166 42.8546 32.9542 42.8122 33.0015C42.7697 33.0488 42.736 33.105 42.7131 33.1668C42.6901 33.2286 42.6783 33.2949 42.6783 33.3618C42.6783 33.497 42.7264 33.6266 42.8122 33.7222C42.8979 33.8178 43.0142 33.8715 43.1354 33.8715C43.2566 33.8715 43.3729 33.8178 43.4586 33.7222C43.5443 33.6266 43.5925 33.497 43.5925 33.3618Z" fill="white"/>
<path id="Vector_6" d="M12.1893 16.4941C11.6859 16.4214 11.2253 16.4681 10.8557 16.0941C9.54898 14.7796 11.1396 13.3976 12.6284 14.1198C12.7962 14.1995 12.8891 14.3293 12.9069 14.5095L13.0033 15.507C13.0247 15.7044 13.1122 15.8672 13.2657 15.9954L15.2312 17.6163C15.3419 17.7064 15.3973 17.8224 15.3973 17.9644C15.4187 19.0971 14.9956 20.7128 16.0132 21.5285C16.8843 22.2213 17.6716 22.9971 18.375 23.8561C18.4262 23.9202 18.493 23.9711 18.5695 24.0046C18.646 24.0381 18.73 24.0531 18.8141 24.0483C19.7674 23.9964 20.6993 24.6458 20.2655 25.6433C19.6871 26.9682 17.9787 26.5577 17.8662 25.129C17.8519 24.9489 17.7787 24.793 17.6466 24.6614L14.3851 21.4662C14.2422 21.3242 14.1726 21.1544 14.1762 20.957L14.2297 18.4892C14.2314 18.4249 14.2194 18.3609 14.1945 18.3011C14.1697 18.2413 14.1324 18.1868 14.0852 18.1411L12.5963 16.6916C12.482 16.5842 12.3464 16.5184 12.1893 16.4941ZM12.3981 15.1173C12.3981 14.9754 12.34 14.8393 12.2366 14.7389C12.1331 14.6386 11.9928 14.5822 11.8465 14.5822C11.7002 14.5822 11.5599 14.6386 11.4565 14.7389C11.353 14.8393 11.2949 14.9754 11.2949 15.1173C11.2949 15.2592 11.353 15.3954 11.4565 15.4957C11.5599 15.5961 11.7002 15.6525 11.8465 15.6525C11.9928 15.6525 12.1331 15.5961 12.2366 15.4957C12.34 15.3954 12.3981 15.2592 12.3981 15.1173ZM19.5095 25.0997C19.5062 25.0445 19.4894 24.9906 19.46 24.9411C19.4307 24.8916 19.3893 24.8475 19.3384 24.8112C19.2874 24.7749 19.2278 24.7472 19.163 24.7296C19.0981 24.712 19.0294 24.705 18.9605 24.7088C18.8917 24.7127 18.8242 24.7273 18.7619 24.752C18.6996 24.7767 18.6437 24.8109 18.5973 24.8526C18.551 24.8943 18.5151 24.9428 18.4918 24.9953C18.4685 25.0477 18.4582 25.1031 18.4615 25.1583C18.4648 25.2135 18.4816 25.2673 18.5109 25.3168C18.5403 25.3663 18.5816 25.4105 18.6326 25.4468C18.6836 25.4831 18.7432 25.5108 18.808 25.5284C18.8729 25.5459 18.9416 25.553 19.0105 25.5491C19.0793 25.5453 19.1468 25.5306 19.2091 25.5059C19.2714 25.4813 19.3273 25.4471 19.3737 25.4054C19.42 25.3636 19.4559 25.3151 19.4792 25.2627C19.5025 25.2102 19.5128 25.1549 19.5095 25.0997Z" fill="white"/>
<path id="Vector_7" d="M51.4144 17.8082L51.4516 18.7388C51.4586 18.8957 51.4074 19.0294 51.2977 19.1399L49.4095 21.0332C49.3426 21.1006 49.2903 21.1809 49.2556 21.2692C49.2209 21.3576 49.2047 21.452 49.2079 21.5467L49.2238 21.9638C49.2272 22.0465 49.2139 22.1286 49.1847 22.205C49.1555 22.2814 49.111 22.3505 49.0541 22.4077C48.2425 23.2528 46.455 22.9479 46.7892 21.3862C46.8364 21.1586 46.9499 20.9504 47.1153 20.7884C47.2807 20.6264 47.4904 20.5179 47.7174 20.477C48.8737 20.2577 50.4756 19.0651 50.5339 17.728C50.541 17.5105 50.4615 17.334 50.2953 17.1985C48.9003 16.054 50.4544 13.9842 51.791 15.1715C52.5018 15.8026 52.2048 16.6851 51.5895 17.3376C51.5306 17.4003 51.4848 17.4742 51.4548 17.555C51.4247 17.6359 51.411 17.722 51.4144 17.8082ZM50.8578 16.7184C50.9071 16.7278 50.9585 16.7232 51.0091 16.705C51.0597 16.6867 51.1084 16.6551 51.1526 16.612C51.1968 16.5688 51.2355 16.515 51.2665 16.4535C51.2976 16.3921 51.3204 16.3242 51.3336 16.2538C51.3467 16.1834 51.3501 16.1119 51.3434 16.0433C51.3368 15.9746 51.3202 15.9103 51.2947 15.8538C51.2692 15.7974 51.2352 15.7501 51.1947 15.7144C51.1542 15.6788 51.108 15.6557 51.0587 15.6463C51.0095 15.6369 50.9581 15.6414 50.9075 15.6597C50.8569 15.678 50.8081 15.7096 50.764 15.7527C50.7198 15.7959 50.6811 15.8497 50.65 15.9111C50.619 15.9726 50.5962 16.0404 50.583 16.1108C50.5698 16.1812 50.5665 16.2528 50.5731 16.3214C50.5798 16.39 50.5964 16.4544 50.6219 16.5108C50.6474 16.5672 50.6814 16.6146 50.7218 16.6502C50.7623 16.6858 50.8085 16.709 50.8578 16.7184ZM47.9729 22.2446C48.0249 22.2501 48.0777 22.2426 48.1283 22.2226C48.1789 22.2025 48.2264 22.1703 48.268 22.1278C48.3095 22.0852 48.3444 22.0332 48.3706 21.9746C48.3968 21.9161 48.4139 21.8521 48.4207 21.7865C48.4275 21.7208 48.4241 21.6547 48.4105 21.5919C48.397 21.5292 48.3736 21.471 48.3417 21.4206C48.3098 21.3703 48.27 21.3289 48.2246 21.2986C48.1793 21.2684 48.1292 21.25 48.0772 21.2445C48.0252 21.239 47.9724 21.2465 47.9218 21.2665C47.8712 21.2866 47.8237 21.3188 47.7822 21.3613C47.7406 21.4039 47.7057 21.4559 47.6795 21.5145C47.6533 21.573 47.6363 21.637 47.6294 21.7026C47.6226 21.7683 47.626 21.8344 47.6396 21.8971C47.6531 21.9599 47.6765 22.0181 47.7084 22.0685C47.7403 22.1188 47.7801 22.1602 47.8255 22.1904C47.8709 22.2207 47.921 22.239 47.9729 22.2446Z" fill="white"/>
<path id="Vector_8" d="M82.9351 14.8157H71.4923C71.3875 14.8157 71.3025 14.9033 71.3025 15.0115V53.0936C71.3025 53.2017 71.3875 53.2894 71.4923 53.2894H82.9351C83.04 53.2894 83.125 53.2017 83.125 53.0936V15.0115C83.125 14.9033 83.04 14.8157 82.9351 14.8157Z" fill="white"/>
<path id="Vector_9" d="M130.232 14.8157H118.775C118.674 14.8157 118.592 14.8936 118.592 14.9897V53.1153C118.592 53.2114 118.674 53.2894 118.775 53.2894H130.232C130.333 53.2894 130.415 53.2114 130.415 53.1153V14.9897C130.415 14.8936 130.333 14.8157 130.232 14.8157Z" fill="white"/>
<path id="Vector_10" d="M145.657 14.8157H135.18C135.06 14.8157 134.962 14.9095 134.962 15.0253V21.7639C134.962 21.8797 135.06 21.9736 135.18 21.9736H145.657C145.777 21.9736 145.875 21.8797 145.875 21.7639V15.0253C145.875 14.9095 145.777 14.8157 145.657 14.8157Z" fill="white"/>
<path id="Vector_11" d="M38.1594 19.7136C38.5495 18.4322 40.2485 17.7739 41.1542 19.196C41.2476 19.3426 41.2947 19.5038 41.2916 19.6666C41.2885 19.8295 41.2354 19.9896 41.1365 20.1341C41.0376 20.2786 40.8956 20.4035 40.722 20.4989C40.5483 20.5943 40.3477 20.6575 40.1361 20.6835C39.6601 20.7404 39.2084 20.8594 38.7808 21.0403C38.6694 21.0873 38.573 21.1527 38.4986 21.2318C38.4243 21.3109 38.3739 21.4016 38.3511 21.4976C38.2057 22.1173 38.1991 22.7388 38.3313 23.3619C38.35 23.4482 38.3943 23.5301 38.4607 23.6014C38.5271 23.6728 38.614 23.7318 38.7147 23.774C39.5874 24.1308 41.4121 24.3016 41.2203 25.367C41.1658 25.6675 40.9695 25.9428 40.6679 26.1416C40.3663 26.3403 39.9799 26.449 39.5808 26.4474C39.0519 26.444 38.6905 26.1626 38.4966 25.6032C38.2806 24.98 37.8068 24.4809 37.0752 24.1056C36.9755 24.0545 36.8938 23.9852 36.8373 23.9037C36.7809 23.8222 36.7513 23.7311 36.7512 23.6383L36.7446 21.2513C36.7446 21.1702 36.7656 21.0898 36.8064 21.0147C36.8473 20.9397 36.9071 20.8716 36.9826 20.8141L37.8222 20.1759C37.9941 20.0453 38.1065 19.8912 38.1594 19.7136ZM40.1559 19.6583C40.1559 19.5624 40.1058 19.4704 40.0165 19.4025C39.9273 19.3347 39.8062 19.2965 39.6799 19.2965C39.5537 19.2965 39.4326 19.3347 39.3434 19.4025C39.2541 19.4704 39.2039 19.5624 39.2039 19.6583C39.2039 19.7543 39.2541 19.8463 39.3434 19.9142C39.4326 19.982 39.5537 20.0202 39.6799 20.0202C39.8062 20.0202 39.9273 19.982 40.0165 19.9142C40.1058 19.8463 40.1559 19.7543 40.1559 19.6583ZM40.1758 25.1861C40.1758 25.0888 40.1249 24.9955 40.0344 24.9267C39.9439 24.8579 39.8212 24.8192 39.6932 24.8192C39.5652 24.8192 39.4424 24.8579 39.3519 24.9267C39.2614 24.9955 39.2106 25.0888 39.2106 25.1861C39.2106 25.2342 39.223 25.2819 39.2473 25.3264C39.2715 25.371 39.3071 25.4114 39.3519 25.4455C39.3967 25.4795 39.4499 25.5065 39.5085 25.525C39.567 25.5434 39.6298 25.5529 39.6932 25.5529C39.8212 25.5529 39.9439 25.5143 40.0344 25.4455C40.1249 25.3767 40.1758 25.2834 40.1758 25.1861Z" fill="white"/>
<path id="Vector_12" d="M8.40046 21.8356C7.07137 21.814 6.29929 20.932 6.99416 19.6983C7.09711 19.5143 7.2552 19.3971 7.46844 19.3466C8.03096 19.2095 8.5512 19.3195 9.02916 19.6766C9.19093 19.7957 9.28284 19.9544 9.3049 20.1528C9.53653 22.0737 11.1027 22.5661 12.0789 23.6212C13.3749 25.0172 14.522 26.0291 16.0165 27.6794C16.761 28.5073 17.5331 29.1404 18.7574 29.1187C22.5516 29.0502 26.3459 29.0592 30.1401 29.1458C30.3345 29.1491 30.5203 29.2267 30.6585 29.3622L35.7984 34.3186C35.8976 34.416 35.9491 34.535 35.9528 34.6757C35.9969 37.5291 36.0392 40.3734 36.0796 43.2087C36.0833 43.6236 36.1955 43.9536 36.416 44.1989C36.5482 44.3468 36.6453 44.5234 36.6984 44.7123C36.7515 44.9013 36.7589 45.0965 36.7198 45.28C36.6808 45.4634 36.5966 45.6291 36.4751 45.7617C36.3535 45.8943 36.1985 45.9896 36.0245 46.0387C35.3296 46.2371 34.7138 46.118 34.177 45.6815C33.9932 45.53 33.9086 45.337 33.9233 45.1026C33.9491 44.5795 34.1623 44.1358 34.563 43.7715C34.6239 43.717 34.6725 43.6504 34.7057 43.5759C34.739 43.5013 34.7561 43.4205 34.7561 43.3386L34.745 35.0491C34.7449 34.9134 34.6915 34.7834 34.5961 34.6865L30.3442 30.5364C30.2796 30.4728 30.203 30.4224 30.1187 30.388C30.0345 30.3537 29.9443 30.3361 29.8533 30.3362L17.5552 30.3632C17.4007 30.3632 17.2702 30.3109 17.1636 30.2063L8.8968 22.0466C8.76076 21.9096 8.59532 21.8392 8.40046 21.8356ZM8.59348 20.445C8.59348 20.2943 8.53247 20.1498 8.42388 20.0433C8.31528 19.9367 8.168 19.8769 8.01442 19.8769C7.86084 19.8769 7.71355 19.9367 7.60496 20.0433C7.49636 20.1498 7.43536 20.2943 7.43536 20.445C7.43536 20.5957 7.49636 20.7402 7.60496 20.8467C7.71355 20.9533 7.86084 21.0131 8.01442 21.0131C8.168 21.0131 8.31528 20.9533 8.42388 20.8467C8.53247 20.7402 8.59348 20.5957 8.59348 20.445ZM35.9087 44.9511C35.9087 44.8047 35.8494 44.6643 35.7439 44.5608C35.6384 44.4573 35.4953 44.3991 35.3462 44.3991C35.197 44.3991 35.0539 44.4573 34.9484 44.5608C34.8429 44.6643 34.7836 44.8047 34.7836 44.9511C34.7836 45.0974 34.8429 45.2378 34.9484 45.3413C35.0539 45.4448 35.197 45.503 35.3462 45.503C35.4953 45.503 35.6384 45.4448 35.7439 45.3413C35.8494 45.2378 35.9087 45.0974 35.9087 44.9511Z" fill="white"/>
<path id="Vector_13" d="M43.1884 40.2089V51.2041C43.1884 51.3968 43.248 51.5695 43.3671 51.7222C43.5247 51.9222 43.6592 52.1221 43.7707 52.3221C44.1857 53.0711 43.8936 53.6601 42.8945 54.0892C42.72 54.1637 42.5284 54.1952 42.3376 54.1809C42.1468 54.1666 41.9629 54.1069 41.803 54.0073C41.6431 53.9077 41.5124 53.7715 41.423 53.6113C41.3337 53.4511 41.2886 53.2722 41.2919 53.0911C41.2996 52.6294 41.4437 52.213 41.7243 51.8422C41.8369 51.6895 41.8973 51.5067 41.8972 51.3186V39.7399C41.8972 39.6518 41.9155 39.5645 41.9511 39.4831C41.9867 39.4017 42.0389 39.3277 42.1047 39.2654L46.0361 35.644C46.1654 35.525 46.2678 35.3819 46.3372 35.2235C46.4065 35.065 46.4414 34.8945 46.4396 34.7223L46.4281 27.5722C46.4243 27.3577 46.5031 27.1759 46.6645 27.0268L52.942 21.0711C53.065 20.9584 53.1303 20.8202 53.138 20.6566C53.1841 19.6712 53.7375 19.2186 54.7982 19.2986C55.0773 19.32 55.3381 19.4382 55.5307 19.6304C55.7233 19.8227 55.834 20.0755 55.8416 20.3403C55.8877 22.1837 54.118 21.5456 53.2591 22.3746C51.7257 23.8617 50.1501 25.3561 48.5322 26.8577C48.2985 27.0753 48.1129 27.3345 47.9862 27.62C47.8595 27.9056 47.7943 28.212 47.7943 28.5212V35.4367C47.7943 35.5858 47.7386 35.7113 47.6271 35.8131L43.396 39.7944C43.2576 39.9253 43.1884 40.0635 43.1884 40.2089ZM54.3419 21.0308C54.3914 21.041 54.4438 21.0368 54.496 21.0184C54.5482 21 54.5992 20.9678 54.6461 20.9235C54.693 20.8793 54.7349 20.8239 54.7694 20.7606C54.8038 20.6973 54.8302 20.6272 54.847 20.5544C54.8808 20.4075 54.8736 20.2583 54.8268 20.1398C54.78 20.0213 54.6974 19.9431 54.5974 19.9224C54.5478 19.9122 54.4954 19.9164 54.4432 19.9348C54.391 19.9532 54.34 19.9855 54.2931 20.0297C54.2462 20.0739 54.2043 20.1293 54.1699 20.1926C54.1354 20.2559 54.1091 20.326 54.0923 20.3988C54.0584 20.5457 54.0657 20.6949 54.1125 20.8134C54.1593 20.9319 54.2418 21.0101 54.3419 21.0308ZM43.102 52.8184C43.102 52.6752 43.0419 52.5379 42.9348 52.4366C42.8278 52.3354 42.6826 52.2785 42.5313 52.2785C42.4563 52.2785 42.3821 52.2924 42.3129 52.3196C42.2437 52.3467 42.1807 52.3865 42.1277 52.4366C42.0748 52.4868 42.0327 52.5463 42.004 52.6118C41.9754 52.6773 41.9606 52.7475 41.9606 52.8184C41.9606 52.9616 42.0207 53.099 42.1277 53.2002C42.2348 53.3015 42.3799 53.3584 42.5313 53.3584C42.6826 53.3584 42.8278 53.3015 42.9348 53.2002C43.0419 53.099 43.102 52.9616 43.102 52.8184Z" fill="white"/>
<path id="Vector_14" d="M162.029 40.9965C160.828 40.9965 160.461 41.5508 160.927 42.6595L161.53 44.1051C162 45.2246 162.833 45.8895 164.027 46.0996C167.305 46.6702 169.042 45.7083 170.606 42.8714C170.644 42.8014 170.707 42.7481 170.782 42.722C170.857 42.6959 170.939 42.6988 171.013 42.7301C173.906 43.9692 176.598 45.2899 179.578 46.3007C179.774 46.3695 179.832 46.4981 179.752 46.6865C179.247 47.8713 178.037 48.7408 177.163 49.6375C173.027 53.8548 167.11 54.6482 161.508 53.9689C158.935 53.6537 155.179 51.6483 153.578 49.6756C152.791 48.7028 151.976 48.0289 151.423 46.9094C148.215 40.4259 148.79 31.0946 155.125 26.6817C159.093 23.9155 164.542 23.1438 169.189 24.247C177.022 26.1002 181.142 32.7468 180.333 40.7574C180.318 40.9168 180.231 40.9965 180.072 40.9965H162.029ZM161.155 35.0837L168.993 34.9858C169.02 34.9844 169.045 34.9729 169.063 34.9537C169.081 34.9345 169.091 34.909 169.091 34.8826V34.8391C169.078 33.7943 168.66 32.7974 167.929 32.0676C167.198 31.3379 166.214 30.9351 165.194 30.9479H164.846C164.341 30.9542 163.842 31.0623 163.377 31.2662C162.913 31.47 162.492 31.7656 162.139 32.1361C161.786 32.5065 161.508 32.9445 161.321 33.4251C161.133 33.9057 161.04 34.4194 161.047 34.9369V34.9804C161.047 34.9944 161.05 35.0083 161.055 35.0212C161.061 35.0341 161.069 35.0457 161.079 35.0554C161.089 35.0651 161.101 35.0726 161.114 35.0774C161.127 35.0823 161.141 35.0844 161.155 35.0837Z" fill="white"/>
<path id="Vector_15" d="M6.68042 27.2267C5.80474 27.2195 5.23406 26.8326 4.96837 26.0659C4.8827 25.8173 4.90029 25.5464 5.01746 25.31C5.13462 25.0735 5.3423 24.8898 5.59705 24.7972C6.30058 24.5381 6.88249 24.6406 7.34278 25.1049C7.48498 25.2453 7.54673 25.4109 7.52802 25.6016C7.4906 26.0155 7.66273 26.3971 8.04444 26.7462C9.05108 27.6676 11.3731 29.8919 15.0105 33.4192C15.1228 33.5271 15.2594 33.5811 15.4203 33.5811L25.7992 33.5865C25.9938 33.5865 26.1659 33.5235 26.3156 33.3976C26.615 33.1384 26.963 32.9944 27.3597 32.9656C27.5213 32.9541 27.6835 32.9764 27.8352 33.0309C27.9869 33.0854 28.1244 33.1708 28.2382 33.2813C28.3519 33.3917 28.4392 33.5245 28.494 33.6704C28.5487 33.8164 28.5697 33.972 28.5553 34.1264C28.4655 35.0946 27.9266 35.5085 26.9387 35.3681C26.9088 35.3645 26.7422 35.2764 26.4391 35.1036C26.3493 35.0568 26.2745 34.9956 26.2146 34.92C26.0724 34.7545 25.889 34.6717 25.6645 34.6717L15.0442 34.6771C14.8346 34.6771 14.6569 34.6069 14.5109 34.4665L7.02283 27.3617C6.92914 27.2749 6.80639 27.2266 6.68042 27.2267ZM6.9274 25.8176C6.9274 25.6816 6.87122 25.5511 6.77121 25.4549C6.6712 25.3587 6.53557 25.3047 6.39414 25.3047C6.25271 25.3047 6.11707 25.3587 6.01706 25.4549C5.91706 25.5511 5.86088 25.6816 5.86088 25.8176C5.86088 25.9536 5.91706 26.0841 6.01706 26.1803C6.11707 26.2764 6.25271 26.3305 6.39414 26.3305C6.53557 26.3305 6.6712 26.2764 6.77121 26.1803C6.87122 26.0841 6.9274 25.9536 6.9274 25.8176ZM27.7583 34.0724C27.7583 33.9493 27.7074 33.8312 27.6169 33.7441C27.5263 33.657 27.4035 33.6081 27.2755 33.6081C27.1475 33.6081 27.0247 33.657 26.9342 33.7441C26.8436 33.8312 26.7928 33.9493 26.7928 34.0724C26.7928 34.1334 26.8053 34.1938 26.8295 34.2501C26.8538 34.3064 26.8893 34.3576 26.9342 34.4007C26.979 34.4438 27.0322 34.478 27.0908 34.5014C27.1493 34.5247 27.2121 34.5367 27.2755 34.5367C27.3389 34.5367 27.4017 34.5247 27.4602 34.5014C27.5188 34.478 27.572 34.4438 27.6169 34.4007C27.6617 34.3576 27.6972 34.3064 27.7215 34.2501C27.7458 34.1938 27.7583 34.1334 27.7583 34.0724Z" fill="white"/>
<path id="Vector_16" d="M52.6865 33.4571C53.144 33.7827 53.1723 34.2568 52.7716 34.8795C52.6708 35.0355 52.5304 35.1646 52.3637 35.2548C52.1971 35.3449 52.0095 35.3931 51.8188 35.3948C50.401 35.4002 49.97 34.0636 50.8206 33.1135C50.9568 32.9561 51.0267 32.7754 51.0305 32.5714L51.0475 31.0899C51.0494 31.0015 51.0695 30.9146 51.1065 30.8345C51.1435 30.7543 51.1967 30.6824 51.263 30.6229C53.6638 28.458 55.1818 27.0284 55.817 26.3342C55.9531 26.1875 56.0117 25.9227 55.9928 25.5398C55.9853 25.343 56.0571 25.1801 56.2083 25.0513C56.6923 24.6291 57.25 24.5468 57.8814 24.8044C58.1193 24.9008 58.3154 25.0705 58.4371 25.2853C58.5589 25.5001 58.5989 25.7471 58.5506 25.9853C58.3993 26.7189 57.9267 27.1107 57.1328 27.1608C56.9437 27.1751 56.7774 27.2431 56.6337 27.3648C56.2669 27.6761 55.8908 27.9749 55.5051 28.2612C54.4332 29.0717 53.8207 30.2633 52.6978 30.9504C52.4834 31.0813 52.3078 31.2609 52.1862 31.4738C52.0645 31.6868 52.0004 31.9268 51.9992 32.1732C51.9981 32.4196 52.0601 32.6651 52.1798 32.8887C52.2994 33.1123 52.4733 33.3073 52.6865 33.4571ZM57.7282 25.7706C57.7282 25.651 57.678 25.5363 57.5887 25.4518C57.4994 25.3672 57.3782 25.3197 57.2518 25.3197C57.1255 25.3197 57.0043 25.3672 56.915 25.4518C56.8257 25.5363 56.7755 25.651 56.7755 25.7706C56.7755 25.8902 56.8257 26.0049 56.915 26.0894C57.0043 26.174 57.1255 26.2215 57.2518 26.2215C57.3782 26.2215 57.4994 26.174 57.5887 26.0894C57.678 26.0049 57.7282 25.8902 57.7282 25.7706ZM51.4061 34.5085C51.466 34.5279 51.5298 34.5346 51.5939 34.5283C51.658 34.522 51.7212 34.5027 51.7797 34.4717C51.8383 34.4406 51.8911 34.3983 51.9352 34.3472C51.9793 34.2961 52.0138 34.2372 52.0367 34.1738C52.0596 34.1104 52.0705 34.0439 52.0687 33.9779C52.067 33.912 52.0526 33.8479 52.0265 33.7894C52.0003 33.7309 51.9629 33.679 51.9164 33.6369C51.8698 33.5947 51.815 33.563 51.7551 33.5436C51.6952 33.5242 51.6314 33.5174 51.5673 33.5238C51.5032 33.5301 51.44 33.5493 51.3815 33.5804C51.3229 33.6115 51.2701 33.6538 51.226 33.7049C51.1819 33.756 51.1474 33.8149 51.1245 33.8783C51.1016 33.9416 51.0907 34.0082 51.0925 34.0741C51.0942 34.1401 51.1086 34.2042 51.1347 34.2627C51.1609 34.3212 51.1983 34.373 51.2448 34.4152C51.2914 34.4574 51.3462 34.4891 51.4061 34.5085Z" fill="white"/>
<path id="Vector_17" d="M100.7 41.3998C100.776 41.7023 100.844 41.7004 100.905 41.3943L104.303 24.9955C104.349 24.7705 104.484 24.658 104.706 24.658L115.636 24.6635C115.673 24.6631 115.709 24.6718 115.741 24.6887C115.773 24.7057 115.801 24.7304 115.822 24.7608C115.843 24.7912 115.857 24.8264 115.862 24.8634C115.867 24.9004 115.864 24.9381 115.851 24.9733L106.765 53.0295C106.708 53.1992 106.593 53.284 106.421 53.284L95.3614 53.2895C95.2216 53.2895 95.1248 53.2231 95.0711 53.0904C93.4205 49.0847 92.3505 44.9684 90.872 40.841C89.9365 38.2241 89.2375 35.4799 88.3396 32.9459C87.4077 30.3087 86.5833 27.6327 85.8664 24.918C85.8234 24.7446 85.8879 24.658 86.06 24.658H97.1948C97.2668 24.6583 97.3362 24.6847 97.3905 24.7325C97.4447 24.7802 97.4802 24.846 97.4905 24.918C98.3078 30.4617 99.3777 35.9557 100.7 41.3998Z" fill="white"/>
<path id="Vector_18" d="M145.715 24.658H135.122C135.033 24.658 134.962 24.7323 134.962 24.824V53.1235C134.962 53.2152 135.033 53.2895 135.122 53.2895H145.715C145.803 53.2895 145.875 53.2152 145.875 53.1235V24.824C145.875 24.7323 145.803 24.658 145.715 24.658Z" fill="white"/>
<path id="Vector_19" d="M200.548 24.658H212.094C212.121 24.6583 212.147 24.665 212.171 24.6776C212.195 24.6902 212.216 24.7083 212.231 24.7304C212.247 24.7526 212.257 24.7781 212.261 24.805C212.265 24.8318 212.262 24.8592 212.253 24.8848L202.881 53.1733C202.87 53.2069 202.848 53.2361 202.82 53.257C202.791 53.2778 202.757 53.2891 202.721 53.2895H190.916C190.881 53.2891 190.847 53.2778 190.818 53.257C190.79 53.2361 190.768 53.2069 190.757 53.1733L181.351 24.8848C181.343 24.8592 181.34 24.8318 181.344 24.805C181.348 24.7781 181.358 24.7526 181.374 24.7304C181.389 24.7083 181.41 24.6902 181.434 24.6776C181.458 24.665 181.484 24.6583 181.511 24.658H193.162C193.202 24.6572 193.241 24.6707 193.272 24.696C193.303 24.7213 193.325 24.7568 193.332 24.7963L196.585 41.6875C196.595 41.7243 196.616 41.7568 196.646 41.78C196.676 41.8032 196.712 41.8158 196.75 41.8158C196.788 41.8158 196.825 41.8032 196.854 41.78C196.884 41.7568 196.906 41.7243 196.915 41.6875L200.382 24.7963C200.39 24.7577 200.411 24.7229 200.441 24.6977C200.471 24.6725 200.508 24.6585 200.548 24.658Z" fill="white"/>
<path id="Vector_20" d="M55.9059 37.3816V33.0473C55.9059 32.8809 55.9687 32.7417 56.0942 32.6296C56.9982 31.8484 56.6807 30.9588 57.2188 30.3621C57.5094 30.0402 57.9434 29.9498 58.521 30.0908C58.7725 30.1525 58.9987 30.291 59.1684 30.4873C59.338 30.6836 59.4428 30.928 59.468 31.1866C59.6348 32.7977 58.0421 32.201 57.2081 32.9117C57.0538 33.0418 56.9767 33.21 56.9767 33.4161L56.9713 38.613C56.9713 38.7974 56.8816 38.8896 56.7023 38.8896H51.6496C51.4882 38.8896 51.3501 38.9475 51.2353 39.0632L48.0929 42.1932C48.0538 42.231 48.0227 42.2768 48.0015 42.3281C47.9802 42.3794 47.9692 42.435 47.9691 42.4916V53.9431C47.9691 54.1058 48.0139 54.2541 48.1036 54.3879C48.5735 55.0967 48.5897 55.8164 48.152 56.5469C48.1031 56.6283 48.0366 56.6974 47.9573 56.749C47.8781 56.8007 47.7883 56.8336 47.6947 56.8453C46.7154 56.9755 46.1055 56.5578 45.8652 55.5922C45.8205 55.4165 45.833 55.231 45.9008 55.063C45.9686 54.895 46.0882 54.7534 46.2418 54.6591C46.8714 54.2686 46.753 53.5308 46.7423 52.831C46.692 49.3303 46.6777 45.8296 46.6992 42.3289C46.6992 42.1336 46.7674 41.969 46.9037 41.8352L50.7994 37.8698C50.9429 37.7251 51.1151 37.6528 51.316 37.6528H55.6368C55.8162 37.6528 55.9059 37.5624 55.9059 37.3816ZM58.5856 31.2571C58.5856 31.1291 58.5351 31.0063 58.4453 30.9157C58.3555 30.8252 58.2337 30.7743 58.1067 30.7743C58.0438 30.7743 57.9815 30.7868 57.9234 30.8111C57.8653 30.8353 57.8125 30.8709 57.768 30.9157C57.7236 30.9606 57.6883 31.0138 57.6642 31.0724C57.6402 31.131 57.6278 31.1937 57.6278 31.2571C57.6278 31.3852 57.6782 31.508 57.768 31.5985C57.8578 31.6891 57.9797 31.7399 58.1067 31.7399C58.2337 31.7399 58.3555 31.6891 58.4453 31.5985C58.5351 31.508 58.5856 31.3852 58.5856 31.2571ZM47.8722 55.4728C47.8722 55.3246 47.8138 55.1825 47.7099 55.0777C47.606 54.9729 47.465 54.9141 47.318 54.9141C47.171 54.9141 47.03 54.9729 46.9261 55.0777C46.8222 55.1825 46.7638 55.3246 46.7638 55.4728C46.7638 55.621 46.8222 55.7631 46.9261 55.8679C47.03 55.9727 47.171 56.0316 47.318 56.0316C47.465 56.0316 47.606 55.9727 47.7099 55.8679C47.8138 55.7631 47.8722 55.621 47.8722 55.4728Z" fill="white"/>
<path id="Vector_21" d="M5.0718 37.0253L8.11048 39.9466C8.17025 40.0045 8.24425 40.0482 8.32594 40.0737C8.40763 40.0992 8.49449 40.1058 8.57885 40.0929C10.6922 39.8107 11.172 42.6692 8.73308 42.549C7.96388 42.5107 7.61737 42.1414 7.69352 41.4412C7.75064 40.9238 7.2937 40.3437 6.79677 39.9884C5.78768 39.2707 4.87188 38.4642 4.04938 37.5688C3.92372 37.4329 3.85708 37.2761 3.84947 37.0985C3.80948 35.7815 4.30641 33.5031 3.25544 32.5258C3.12978 32.4074 3.07837 32.268 3.10122 32.1078C3.20022 31.303 3.74285 30.9076 4.72909 30.9215C4.92543 30.9242 5.11733 30.9747 5.28515 31.068C5.45298 31.1612 5.59071 31.2939 5.68426 31.4523C5.7778 31.6107 5.8238 31.7892 5.81755 31.9696C5.8113 32.1499 5.75303 32.3257 5.64869 32.4788L5.09464 33.294C4.98041 33.4578 4.92329 33.6372 4.92329 33.8323L4.929 36.7013C4.929 36.8267 4.9766 36.9347 5.0718 37.0253ZM4.13717 32.605C4.25201 32.6483 4.386 32.6369 4.50965 32.5733C4.63331 32.5097 4.73651 32.3991 4.79655 32.2658C4.85658 32.1326 4.86853 31.9876 4.82978 31.8627C4.79102 31.7379 4.70474 31.6434 4.58989 31.6001C4.47505 31.5568 4.34107 31.5682 4.21741 31.6318C4.09376 31.6954 3.99056 31.806 3.93052 31.9392C3.87048 32.0725 3.85853 32.2175 3.89728 32.3424C3.93604 32.4672 4.02233 32.5617 4.13717 32.605ZM9.60698 41.415C9.60698 41.3437 9.59162 41.273 9.56177 41.207C9.53191 41.1411 9.48816 41.0812 9.43299 41.0307C9.37783 40.9802 9.31235 40.9402 9.24028 40.9129C9.16821 40.8856 9.09096 40.8715 9.01295 40.8715C8.93494 40.8715 8.8577 40.8856 8.78563 40.9129C8.71356 40.9402 8.64807 40.9802 8.59291 41.0307C8.53775 41.0812 8.49399 41.1411 8.46414 41.207C8.43429 41.273 8.41892 41.3437 8.41892 41.415C8.41892 41.5592 8.48151 41.6974 8.59291 41.7993C8.70431 41.9012 8.8554 41.9585 9.01295 41.9585C9.1705 41.9585 9.32159 41.9012 9.43299 41.7993C9.5444 41.6974 9.60698 41.5592 9.60698 41.415Z" fill="white"/>
<path id="Vector_22" d="M9.29833 36.584C8.09784 36.5501 7.55035 35.9115 7.65585 34.6681C7.66883 34.5144 7.71115 34.3649 7.78037 34.2284C7.84959 34.0918 7.94432 33.9708 8.05906 33.8725C8.1738 33.7741 8.30626 33.7004 8.44875 33.6556C8.59124 33.6107 8.74091 33.5956 8.88907 33.6112C10.7717 33.8203 9.6312 35.3237 10.5206 36.0245C12.054 37.2396 12.9653 38.5678 14.3677 39.766C15.2789 40.5347 15.781 41.5463 16.6704 42.2641C18.3784 43.6545 19.4588 45.4291 21.3087 46.7517C21.4594 46.8594 21.6313 46.929 21.8107 46.9551C22.5383 47.0682 22.9639 47.5184 23.0876 48.3059C23.1237 48.5317 23.097 48.7634 23.0105 48.974C22.9241 49.1845 22.7814 49.3654 22.5992 49.4956C22.4169 49.6258 22.2025 49.6999 21.9809 49.7094C21.7592 49.719 21.5394 49.6634 21.3469 49.5493C20.8376 49.2441 20.5665 48.8089 20.5338 48.2437C20.5229 48.0516 20.4501 47.8858 20.3155 47.7464L9.80035 36.8101C9.66211 36.6669 9.49478 36.5916 9.29833 36.584ZM9.26014 35.6176C9.45658 35.6176 9.54207 35.5158 9.51661 35.3124L9.46749 34.8998C9.45564 34.7791 9.40115 34.6672 9.31447 34.5856C9.22779 34.504 9.11505 34.4585 8.99793 34.4578C8.88081 34.4571 8.76758 34.5013 8.68 34.5818C8.59242 34.6624 8.53667 34.7736 8.52347 34.8941C8.45799 35.3727 8.70355 35.6138 9.26014 35.6176ZM22.1817 48.3568C22.1817 48.2399 22.1369 48.1277 22.0571 48.0451C21.9773 47.9624 21.869 47.9159 21.7561 47.9159C21.6432 47.9159 21.535 47.9624 21.4552 48.0451C21.3753 48.1277 21.3305 48.2399 21.3305 48.3568C21.3305 48.4737 21.3753 48.5858 21.4552 48.6685C21.535 48.7512 21.6432 48.7976 21.7561 48.7976C21.869 48.7976 21.9773 48.7512 22.0571 48.6685C22.1369 48.5858 22.1817 48.4737 22.1817 48.3568Z" fill="white"/>
<path id="Vector_23" d="M21.7746 38.9836L20.3067 38.9941C20.2048 38.9942 20.1037 39.0167 20.0105 39.06C19.9173 39.1033 19.8344 39.1664 19.7676 39.2447C18.8601 40.3257 17.5897 39.4223 17.6484 38.2212C17.6558 38.0759 17.693 37.9335 17.7579 37.8024C17.8229 37.6713 17.9143 37.5542 18.0267 37.4578C18.1391 37.3615 18.2702 37.2879 18.4124 37.2415C18.5547 37.195 18.7051 37.1766 18.8548 37.1873C19.2747 37.2186 19.6359 37.3805 19.9384 37.6729C20.0523 37.7808 20.1893 37.8348 20.3494 37.8348L23.1251 37.8191C23.3066 37.8191 23.3955 37.9062 23.392 38.0802L23.36 40.7069C23.3564 40.8844 23.4169 41.0376 23.5414 41.1664C24.5236 42.2056 23.8831 43.7931 22.4205 43.3806C22.2472 43.3321 22.0879 43.2449 21.9549 43.1259C21.822 43.0068 21.7191 42.8592 21.6544 42.6947C21.5897 42.5302 21.565 42.3532 21.5821 42.1777C21.5993 42.0022 21.6579 41.833 21.7533 41.6834C22.223 40.9419 22.3315 40.1185 22.0789 39.2134C22.0397 39.0602 21.9383 38.9836 21.7746 38.9836ZM19.3619 38.4197C19.3619 38.2853 19.3073 38.1565 19.2102 38.0615C19.1131 37.9665 18.9815 37.9131 18.8441 37.9131C18.7068 37.9131 18.5751 37.9665 18.478 38.0615C18.3809 38.1565 18.3264 38.2853 18.3264 38.4197C18.3264 38.554 18.3809 38.6828 18.478 38.7778C18.5751 38.8728 18.7068 38.9262 18.8441 38.9262C18.9815 38.9262 19.1131 38.8728 19.2102 38.7778C19.3073 38.6828 19.3619 38.554 19.3619 38.4197ZM23.2635 42.261C23.2716 42.2074 23.2659 42.1524 23.2469 42.099C23.2278 42.0457 23.1957 41.9951 23.1524 41.9501C23.1091 41.9051 23.0554 41.8666 22.9944 41.8369C22.9334 41.8071 22.8664 41.7866 22.797 41.7766C22.657 41.7564 22.5162 41.78 22.4056 41.8422C22.295 41.9044 22.2237 42.0002 22.2074 42.1084C22.1993 42.162 22.2049 42.2171 22.224 42.2704C22.2431 42.3238 22.2752 42.3744 22.3185 42.4193C22.3618 42.4643 22.4155 42.5028 22.4764 42.5326C22.5374 42.5623 22.6045 42.5828 22.6738 42.5928C22.8139 42.613 22.9547 42.5895 23.0653 42.5272C23.1759 42.465 23.2472 42.3692 23.2635 42.261Z" fill="white"/>
<path id="Vector_24" d="M27.1848 60.1726C27.8342 60.255 28.4799 60.2604 29.1219 60.1887C30.096 60.0758 30.9985 59.0703 31.9616 60.2102C32.1131 60.3874 32.1965 60.611 32.1975 60.8425C32.1985 61.074 32.117 61.2991 31.9671 61.4791C31.1783 62.4326 30.4317 62.4864 29.7273 61.6404C29.6209 61.5114 29.4815 61.4469 29.309 61.4469L25.0661 61.42C23.771 61.4128 23.6701 61.0687 24.7634 60.3876C26.2988 59.4252 27.1408 58.0649 28.5606 56.9465C29.0999 56.5236 29.5952 56.0504 30.0464 55.5271C30.1638 55.3909 30.2226 55.2349 30.2226 55.0593C30.2299 50.0948 30.2317 45.1374 30.2281 40.1872C30.2281 40.008 30.1859 39.8611 30.1015 39.7464C29.3971 38.7732 29.1109 37.7408 30.5252 37.2515C30.7392 37.1775 30.9702 37.1643 31.1915 37.2135C31.4128 37.2626 31.6153 37.3721 31.7755 37.5291C31.9357 37.6862 32.047 37.8844 32.0965 38.1008C32.146 38.3172 32.1316 38.5429 32.0551 38.7517C31.9194 39.1209 31.7176 39.4291 31.4498 39.6765C31.3996 39.7202 31.3598 39.7742 31.3332 39.8346C31.3066 39.8949 31.2938 39.9602 31.2957 40.0259L31.3287 55.5701C31.3287 55.778 31.2535 55.9536 31.1031 56.097L27.1077 59.9575C26.9793 60.0794 27.005 60.1511 27.1848 60.1726ZM30.8769 39.1201C31.0039 39.0875 31.1102 38.9982 31.1723 38.8718C31.2343 38.7454 31.2472 38.5922 31.2079 38.446C31.1686 38.2998 31.0805 38.1726 30.9629 38.0922C30.8453 38.0119 30.7079 37.985 30.5808 38.0176C30.4538 38.0501 30.3475 38.1395 30.2854 38.2659C30.2233 38.3923 30.2105 38.5454 30.2498 38.6916C30.2891 38.8379 30.3772 38.9651 30.4948 39.0455C30.6124 39.1258 30.7498 39.1527 30.8769 39.1201ZM30.7241 61.4C30.8444 61.3862 30.9527 61.3145 31.0253 61.2005C31.0978 61.0866 31.1286 60.9399 31.1109 60.7926C31.0932 60.6453 31.0285 60.5096 30.9309 60.4152C30.8333 60.3208 30.7109 60.2755 30.5905 60.2893C30.4702 60.3031 30.3619 60.3749 30.2893 60.4888C30.2168 60.6027 30.186 60.7494 30.2037 60.8967C30.2214 61.044 30.2862 61.1798 30.3837 61.2741C30.4813 61.3685 30.6037 61.4138 30.7241 61.4Z" fill="white"/>
<path id="Vector_25" d="M27.7675 40.7626C27.7011 45.0065 27.6972 49.2523 27.7558 53.4998C27.7851 55.5388 24.2061 56.4583 23.9894 58.0917C23.6965 60.3362 20.7092 59.9035 21.3828 57.4156C21.4089 57.3191 21.4561 57.2285 21.5215 57.1494C21.5869 57.0702 21.6692 57.0041 21.7634 56.9551C21.8576 56.906 21.9617 56.8751 22.0694 56.8641C22.1772 56.853 22.2863 56.8622 22.3903 56.891C22.8394 57.0136 23.2806 56.8585 23.7141 56.4258C24.6122 55.5388 25.5201 54.6554 26.4378 53.7756C26.5506 53.6678 26.6136 53.5243 26.6136 53.3754L26.6428 40.7464C26.6427 40.5796 26.5757 40.421 26.4554 40.3029C25.6763 39.5403 25.6236 38.6749 26.7307 38.1827C27.1173 38.0133 27.4805 38.0511 27.8202 38.2963C28.7457 38.9598 28.8023 39.6304 27.9901 40.3083C27.8456 40.4309 27.7714 40.5823 27.7675 40.7626ZM27.457 38.994C27.0509 39.077 26.8459 39.1797 26.842 39.3023C26.842 39.4466 26.8693 39.5601 26.924 39.6431C27.049 39.8234 27.2091 39.8558 27.4043 39.7404C27.6035 39.6214 27.7187 39.4556 27.7499 39.2428C27.7557 39.207 27.752 39.1703 27.7389 39.1361C27.7259 39.1019 27.7039 39.0712 27.675 39.0466C27.6461 39.0221 27.6111 39.0044 27.5731 38.9953C27.5351 38.9861 27.4952 38.9857 27.457 38.994ZM22.5235 58.8159C22.657 58.8209 22.7877 58.7653 22.8867 58.6613C22.9858 58.5574 23.0452 58.4137 23.0518 58.2618C23.0584 58.1098 23.0117 57.9622 22.922 57.8512C22.8322 57.7403 22.7068 57.6752 22.5733 57.6703C22.4398 57.6653 22.3092 57.7209 22.2101 57.8249C22.1111 57.9288 22.0517 58.0725 22.0451 58.2244C22.0385 58.3764 22.0852 58.524 22.1749 58.635C22.2647 58.7459 22.3901 58.811 22.5235 58.8159Z" fill="white"/>
<path id="Vector_26" d="M54.6676 42.6853C53.3416 42.7196 51.3747 42.651 51.3747 44.663C51.3747 46.0006 50.7172 49.9559 52.7615 49.7387C52.996 49.7154 53.2316 49.7727 53.4322 49.9017C53.6328 50.0308 53.7873 50.2245 53.872 50.4532C54.6234 52.5281 51.7559 53.1511 51.2642 51.2763C51.0653 50.5161 50.9603 50.3046 50.557 49.7559C50.4458 49.5999 50.3858 49.4096 50.3857 49.2129V43.7714C50.3857 43.5742 50.4435 43.3826 50.5515 43.2226C51.8167 41.3192 52.8831 41.6393 54.8665 41.645C55.047 41.645 55.2054 41.586 55.3417 41.4679L55.7671 41.102C56.3749 40.5838 56.9034 40.66 57.3528 41.3307C57.8427 42.0585 57.7488 42.7063 57.071 43.2741C56.964 43.3641 56.8404 43.4308 56.7085 43.4698C56.5767 43.5089 56.4396 43.5192 56.3063 43.5003C56.173 43.4814 56.0467 43.4336 55.9356 43.3601C55.8245 43.2866 55.7313 43.1891 55.6621 43.074C55.4964 42.8035 55.1649 42.6739 54.6676 42.6853ZM56.9669 42.0588C56.958 42.0124 56.9358 41.9693 56.9017 41.9318C56.8675 41.8943 56.8221 41.8632 56.768 41.8403C56.7138 41.8173 56.6521 41.8031 56.5862 41.7982C56.5203 41.7934 56.4516 41.7981 56.384 41.8121C56.2475 41.8403 56.1238 41.9045 56.0401 41.9907C55.9563 42.0769 55.9194 42.1779 55.9375 42.2716C55.9465 42.3179 55.9686 42.3611 56.0028 42.3986C56.0369 42.4361 56.0823 42.4672 56.1365 42.4901C56.1906 42.513 56.2524 42.5273 56.3182 42.5321C56.3841 42.537 56.4528 42.5323 56.5204 42.5183C56.6569 42.4901 56.7806 42.4258 56.8644 42.3397C56.9481 42.2535 56.985 42.1525 56.9669 42.0588ZM53.1918 51.2732C53.2037 51.2144 53.2015 51.1532 53.1853 51.093C53.1691 51.0328 53.1392 50.9748 53.0974 50.9224C53.0555 50.87 53.0026 50.8241 52.9415 50.7875C52.8804 50.7508 52.8124 50.724 52.7414 50.7087C52.6704 50.6933 52.5977 50.6897 52.5275 50.698C52.4574 50.7063 52.3911 50.7264 52.3325 50.7571C52.2739 50.7878 52.2241 50.8286 52.1859 50.877C52.1478 50.9254 52.122 50.9806 52.1102 51.0394C52.0983 51.0982 52.1005 51.1594 52.1167 51.2196C52.133 51.2798 52.1628 51.3377 52.2047 51.3901C52.2465 51.4426 52.2994 51.4884 52.3605 51.5251C52.4216 51.5618 52.4896 51.5885 52.5606 51.6039C52.6316 51.6192 52.7043 51.6229 52.7745 51.6146C52.8446 51.6062 52.9109 51.5862 52.9695 51.5555C53.0281 51.5247 53.0779 51.484 53.1161 51.4356C53.1542 51.3871 53.18 51.332 53.1918 51.2732Z" fill="white"/>
<path id="Vector_27" d="M20.5987 53.8598L14.0779 47.0538C14.0424 47.0167 13.9998 46.9876 13.9528 46.9684C13.9057 46.9492 13.8552 46.9403 13.8044 46.9421C13.1538 46.9831 12.6676 46.7244 12.3458 46.166C12.2196 45.9484 12.1679 45.6928 12.199 45.4412C12.2302 45.1897 12.3425 44.957 12.5174 44.7814C13.547 43.754 14.7804 44.6976 14.7268 45.8757C14.7234 45.962 14.7359 46.0468 14.7636 46.1247C14.7913 46.2025 14.8336 46.2718 14.8876 46.328L22.0948 53.8263C22.2128 53.9492 22.2253 54.085 22.1324 54.2339C21.589 55.0863 20.9598 55.8754 20.2448 56.6012C19.9409 56.9102 19.7872 57.1875 19.7836 57.4331C19.7797 57.6325 19.7333 57.8305 19.6486 58.0086C19.5639 58.1867 19.4437 58.3391 19.2992 58.4517C19.1547 58.5642 18.9906 58.6333 18.8221 58.6524C18.6537 58.6715 18.4863 58.6401 18.3357 58.561C18.0032 58.386 17.7315 58.1441 17.5206 57.8351C17.425 57.6954 17.3632 57.5336 17.3404 57.3636C17.3177 57.1937 17.3346 57.0205 17.3899 56.8588C17.4452 56.6971 17.5371 56.5517 17.6579 56.435C17.7787 56.3182 17.9247 56.2335 18.0837 56.1881C19.1741 55.8717 20.0231 55.1924 20.6309 54.1502C20.6916 54.0459 20.6809 53.9492 20.5987 53.8598ZM13.8795 45.5742C13.8795 45.4602 13.836 45.3508 13.7585 45.2702C13.6811 45.1896 13.5761 45.1443 13.4666 45.1443C13.3571 45.1443 13.252 45.1896 13.1746 45.2702C13.0972 45.3508 13.0537 45.4602 13.0537 45.5742C13.0537 45.6882 13.0972 45.7976 13.1746 45.8782C13.252 45.9588 13.3571 46.0041 13.4666 46.0041C13.5761 46.0041 13.6811 45.9588 13.7585 45.8782C13.836 45.7976 13.8795 45.6882 13.8795 45.5742ZM18.8237 57.6844C19.0168 57.394 19.0507 57.1856 18.9256 57.0591C18.7576 56.8841 18.5824 56.8674 18.4001 57.0088C18.3477 57.0501 18.3099 57.1085 18.2924 57.175C18.275 57.2416 18.2789 57.3126 18.3035 57.3773C18.3536 57.515 18.4322 57.6304 18.5395 57.7235C18.5597 57.7414 18.5833 57.7546 18.6089 57.7624C18.6344 57.7702 18.6614 57.7723 18.6881 57.7686C18.7148 57.765 18.7406 57.7556 18.7639 57.7411C18.7872 57.7266 18.8076 57.7073 18.8237 57.6844Z" fill="white"/>
<path id="Vector_28" d="M12.9001 52.3153C12.0136 51.4513 10.9396 50.9056 10.1099 50.0114C9.59284 49.4505 8.80865 48.3238 7.85966 48.4906C7.71957 48.5152 7.57503 48.5112 7.43694 48.4789C7.29884 48.4465 7.1708 48.3868 7.06246 48.3041C6.95412 48.2214 6.86831 48.1179 6.8115 48.0014C6.75469 47.8849 6.72837 47.7585 6.73452 47.6317C6.77429 46.8334 7.06979 46.0654 8.10969 46.1361C9.71217 46.2473 9.06436 47.7125 10.0133 48.4855C11.2749 49.5061 12.508 50.5503 13.7127 51.618C13.7737 51.6724 13.8469 51.7153 13.928 51.7439C14.0091 51.7726 14.0963 51.7865 14.1843 51.7848C14.9079 51.7646 15.4212 52.0424 15.7243 52.6184C15.8124 52.7842 15.8453 52.9686 15.8191 53.1496C15.7929 53.3306 15.7087 53.5005 15.5766 53.639C14.9515 54.2992 14.2582 54.3598 13.4967 53.8209C13.3528 53.7199 13.2675 53.5885 13.241 53.4268L13.1387 52.77C13.1122 52.5948 13.0327 52.4433 12.9001 52.3153ZM8.55862 47.4397C8.55862 47.2963 8.49455 47.1588 8.38053 47.0574C8.2665 46.956 8.11184 46.8991 7.95058 46.8991C7.78932 46.8991 7.63467 46.956 7.52064 47.0574C7.40661 47.1588 7.34255 47.2963 7.34255 47.4397C7.34255 47.5107 7.35828 47.581 7.38883 47.6465C7.41939 47.7121 7.46418 47.7717 7.52064 47.8219C7.5771 47.8721 7.64413 47.912 7.7179 47.9391C7.79167 47.9663 7.87073 47.9803 7.95058 47.9803C8.11184 47.9803 8.2665 47.9233 8.38053 47.8219C8.49455 47.7205 8.55862 47.583 8.55862 47.4397ZM14.8492 53.0731C14.8492 52.9458 14.7923 52.8238 14.6911 52.7337C14.5898 52.6437 14.4525 52.5932 14.3093 52.5932C14.1662 52.5932 14.0289 52.6437 13.9276 52.7337C13.8264 52.8238 13.7695 52.9458 13.7695 53.0731C13.7695 53.2004 13.8264 53.3225 13.9276 53.4125C14.0289 53.5026 14.1662 53.5531 14.3093 53.5531C14.4525 53.5531 14.5898 53.5026 14.6911 53.4125C14.7923 53.3225 14.8492 53.2004 14.8492 53.0731Z" fill="white"/>
<path id="Vector_29" d="M35.9255 53.356V59.3026C35.9256 59.4684 35.9872 59.6289 36.0974 59.7501C36.6977 60.4042 36.7786 61.0404 36.3402 61.6586C35.2022 63.2652 32.9918 61.1464 34.5598 59.8795C34.6228 59.8275 34.6738 59.7606 34.7089 59.684C34.744 59.6073 34.7622 59.523 34.7621 59.4374V50.8113C34.7621 50.6029 34.8447 50.5525 35.01 50.6604C36.3251 51.5068 36.9421 52.8977 38.2067 53.9329C39.3447 54.8656 40.0528 56.1541 41.196 57.1353C41.3108 57.2331 41.4536 57.2864 41.6006 57.2863C42.4706 57.2755 42.9713 57.7229 43.1029 58.6287C43.1298 58.8371 43.086 59.0258 42.9713 59.1948C42.533 59.8345 41.9564 60.0088 41.2415 59.7177C41.0628 59.6422 40.9329 59.5128 40.852 59.3295C40.7374 59.0564 40.6885 58.7689 40.7053 58.4669C40.7154 58.2836 40.6581 58.1255 40.5334 57.9925L36.148 53.259C35.9997 53.1008 35.9255 53.1332 35.9255 53.356ZM42.0471 59.0729C42.093 59.0504 42.1333 59.0163 42.1657 58.9724C42.1981 58.9284 42.2219 58.8757 42.2359 58.817C42.2499 58.7583 42.2537 58.695 42.2472 58.6305C42.2406 58.566 42.2238 58.5017 42.1977 58.4413C42.1716 58.3808 42.1368 58.3254 42.0951 58.2781C42.0534 58.2309 42.0058 58.1927 41.9549 58.1659C41.904 58.139 41.8509 58.124 41.7985 58.1216C41.7462 58.1192 41.6956 58.1296 41.6498 58.1521C41.6039 58.1746 41.5636 58.2087 41.5312 58.2527C41.4989 58.2966 41.475 58.3494 41.461 58.408C41.447 58.4667 41.4432 58.53 41.4497 58.5945C41.4563 58.659 41.4731 58.7233 41.4992 58.7837C41.5253 58.8442 41.5602 58.8996 41.6018 58.9469C41.6435 58.9942 41.6911 59.0323 41.742 59.0591C41.7929 59.086 41.846 59.101 41.8984 59.1034C41.9507 59.1058 42.0013 59.0954 42.0471 59.0729ZM35.8496 60.8175C35.8496 60.6731 35.7958 60.5346 35.7 60.4325C35.6042 60.3304 35.4742 60.273 35.3387 60.273C35.2032 60.273 35.0733 60.3304 34.9775 60.4325C34.8817 60.5346 34.8279 60.6731 34.8279 60.8175C34.8279 60.962 34.8817 61.1005 34.9775 61.2026C35.0733 61.3047 35.2032 61.3621 35.3387 61.3621C35.4742 61.3621 35.6042 61.3047 35.7 61.2026C35.7958 61.1005 35.8496 60.962 35.8496 60.8175Z" fill="white"/>
</g>
</svg>
