<svg width="139" height="143" viewBox="0 0 139 143" fill="none" xmlns="http://www.w3.org/2000/svg">
<g id="Postgresql" clip-path="url(#clip0_3456_4387)">
<g id="Group">
<path id="Vector" d="M107.33 97.8978C109.232 98.3763 111.296 98.583 113.524 98.5178C116.87 98.4191 120.005 97.9611 122.928 97.1437C125.905 96.31 128.724 94.7389 131.179 92.883C132.802 91.6569 135.247 89.4896 134.971 87.2119C134.652 84.5907 131.644 84.3756 129.655 84.7513C126.69 85.3127 124.404 85.7372 121.713 85.8713C119.262 85.9927 116.54 85.9467 114.518 84.7122C114.513 84.7097 114.509 84.7064 114.506 84.7025C114.503 84.6985 114.501 84.6939 114.5 84.6891C114.499 84.6842 114.499 84.6792 114.5 84.6743C114.5 84.6694 114.502 84.6647 114.505 84.6605C120.426 75.5778 125.191 65.9243 128.8 55.7002C131.03 49.3839 132.793 42.8372 133.756 36.2053C134.302 32.4418 134.515 28.5749 134.073 24.789C133.814 22.5616 133.153 20.0969 131.772 18.3135C125.996 10.8507 117.879 6.14877 108.552 4.52047C100.879 3.18124 92.8684 3.76497 85.357 5.81361C84.5293 6.03891 83.7095 6.29447 82.8976 6.58028C82.8537 6.59518 82.8089 6.59751 82.7632 6.58726C77.1612 5.23267 71.0455 4.84725 65.3721 5.97979C61.8409 6.68455 58.5798 8.03263 55.5889 10.024C55.5706 10.0358 55.5499 10.0434 55.5284 10.0463C55.5068 10.0492 55.485 10.0473 55.4643 10.0408C54.9557 9.87505 54.4495 9.70561 53.9456 9.53245C50.5972 8.38361 47.1859 7.46984 43.7116 6.79115C34.9643 5.08046 24.7108 4.74391 16.6675 9.26572C5.86947 15.3362 3.51501 27.9898 4.14352 39.244C4.30449 42.1306 4.80562 44.971 5.34874 47.8981C7.09943 57.3132 9.42916 66.4964 12.3379 75.4479C13.1806 78.044 14.1353 80.6093 15.1347 83.1467C17.0175 87.9283 19.3215 92.7545 22.4711 96.8434C24.2012 99.0918 26.6173 101.291 29.2895 102.017C32.8688 102.991 36.2759 101.247 38.622 98.6128C39.418 97.72 40.466 96.4962 41.7659 94.9414C43.8628 92.4315 46.7282 89.2452 50.3621 85.3825C50.3938 85.349 50.4302 85.3434 50.4713 85.3657C52.8929 86.6514 55.4793 87.3459 58.2303 87.4493C58.2559 87.4505 58.2807 87.4587 58.302 87.473C58.3232 87.4873 58.3401 87.5072 58.3507 87.5303C58.3613 87.5535 58.3652 87.5791 58.362 87.6042C58.3588 87.6293 58.3486 87.6531 58.3325 87.6727C57.767 88.3803 57.2024 89.0822 56.6388 89.7786C55.4629 91.2338 54.756 91.8566 53.0889 92.418C51.1656 93.0659 49.1792 93.4165 47.2111 93.8927C45.5048 94.306 43.2833 95.0671 42.3776 96.7457C41.5377 98.3014 42.1215 99.8389 43.3463 100.997C44.4017 101.992 46.0171 102.765 47.3483 103.164C54.2311 105.232 61.7816 104.414 67.2618 99.5065C67.2664 99.5021 67.2722 99.4991 67.2785 99.498C67.2848 99.4969 67.2913 99.4976 67.2971 99.5002C67.303 99.5027 67.3079 99.5069 67.3114 99.5123C67.3148 99.5176 67.3166 99.5239 67.3164 99.5303C67.2394 106.659 67.35 113.858 67.9505 120.97C68.1829 123.706 68.4755 126.542 69.5449 129.137C71.2149 133.19 73.6785 136.555 77.8331 138.217C80.4493 139.263 83.4421 139.401 86.2263 138.967C91.7807 138.103 97.6963 136.093 100.902 131.204C102.598 128.618 103.522 125.502 104.039 122.472C104.346 120.667 104.657 118.606 104.974 116.291C105.809 110.185 106.57 104.071 107.257 97.9467C107.262 97.9029 107.287 97.8866 107.33 97.8978Z" stroke="#808080" stroke-width="2"/>
<path id="Vector_2" d="M120.884 64.6656C124.939 55.6723 128.135 46.1538 129.659 36.4483C130.187 33.0883 130.457 29.653 130.201 26.2553C130.09 24.7848 129.802 23.0308 129.115 21.6372C128.891 21.1819 128.524 20.6438 128.014 20.0228C122.432 13.2345 114.592 9.17353 105.825 8.13873C100.476 7.50659 95.1019 7.75935 89.7033 8.89702C89.6529 8.90726 89.651 8.92309 89.6977 8.9445C100.89 13.9705 109.281 23.5797 113.778 34.887C114.336 36.2863 114.967 38.0626 114.909 39.7188C114.881 40.513 114.867 40.9161 114.867 40.9282C114.87 44.1331 114.27 47.2263 113.841 50.3433C113.576 52.2676 113.502 54.199 113.619 56.1373C113.86 60.1494 114.609 64.0791 114.632 68.1136C114.658 72.3128 113.694 76.3626 111.486 80.0284C111.48 80.0382 111.477 80.0495 111.478 80.0607C111.479 80.0719 111.483 80.0826 111.49 80.0912L112.125 80.89C112.128 80.8934 112.131 80.8961 112.135 80.8979C112.139 80.8997 112.143 80.9006 112.147 80.9005C112.152 80.9004 112.156 80.8992 112.159 80.8971C112.163 80.8951 112.166 80.8921 112.169 80.8886C115.423 75.7421 118.328 70.3344 120.884 64.6656Z" stroke="#99B3C8" stroke-width="2"/>
<path id="Vector_3" d="M103.644 91.9474C103.759 88.924 105.052 86.1017 107.976 84.789C108.482 84.5619 109.001 84.371 109.534 84.2165C109.544 84.2138 109.552 84.2089 109.559 84.2021C109.566 84.1953 109.571 84.1869 109.574 84.1776C109.577 84.1683 109.578 84.1585 109.576 84.1489C109.574 84.1394 109.57 84.1304 109.564 84.1229C107.626 81.6958 105.762 79.386 104.432 76.4381C104.032 75.5518 103.693 74.8554 103.416 74.3489C101.9 71.5825 100.352 68.8384 98.9182 66.0259C97.5091 63.2608 96.2838 60.4171 95.2424 57.4948C93.7614 53.3388 92.5435 48.1411 94.1085 43.8553C96.5484 37.1773 104.397 36.6648 110.322 37.2667C110.33 37.2673 110.338 37.266 110.345 37.263C110.352 37.2599 110.358 37.2552 110.363 37.2492C110.368 37.2432 110.371 37.2362 110.372 37.2287C110.373 37.2213 110.373 37.2137 110.37 37.2066C107.873 30.1502 103.122 23.3381 97.412 18.5021C90.413 12.5745 82.2289 9.51388 72.8596 9.32023C70.9922 9.28113 69.1375 9.40588 67.2954 9.69449C57.4422 11.2334 51.0843 18.0511 47.7668 27.0332C46.0581 31.6593 45.0162 36.4344 44.641 41.3584C44.6373 41.4124 44.6592 41.4263 44.7068 41.4003C49.4563 38.7847 56.3433 36.5112 61.6962 38.4746C64.7953 39.6114 67.0616 42.3401 67.8539 45.5953C69.2131 51.1812 69.9928 57.5171 69.4637 63.2971C69.1305 66.9299 68.1791 70.4648 66.6095 73.902C65.2255 76.9306 64.0217 80.0284 62.998 83.1957C62.8767 83.5699 62.7712 83.9497 62.6816 84.3352C62.6704 84.3864 62.69 84.4059 62.7404 84.3938C63.6447 84.19 64.5457 84.21 65.4434 84.4539C68.9317 85.4007 71.0566 88.3682 71.464 91.8567C71.5298 92.4111 71.4304 93.2741 71.4178 93.8075C71.219 101.964 71.2666 110.13 71.7705 118.282C71.9152 120.629 72.1569 122.861 72.4956 124.977C72.7896 126.816 73.5259 128.44 74.4595 130.088C77.0394 134.641 81.3465 135.835 86.369 134.905C90.1541 134.204 94.5998 132.853 97.0509 129.701C98.9182 127.301 99.7567 124.051 100.221 121.063C101.351 113.812 102.247 106.511 103.08 99.2217C103.241 97.8103 103.39 96.398 103.526 94.9848C103.623 94.0002 103.606 92.9641 103.644 91.9474Z" stroke="#99B3C8" stroke-width="2"/>
<path id="Vector_4" d="M45.0835 22.9792C46.7409 19.2841 48.9852 15.9889 51.8166 13.0935C51.8567 13.0526 51.8497 13.0237 51.7956 13.0069C45.1885 10.9429 38.4457 9.5297 31.5307 9.65119C27.7876 9.71682 23.9088 10.3355 20.4989 11.8213C9.67841 16.5359 7.61651 28.385 8.13863 38.8601C8.25622 41.2089 8.65376 43.6095 9.0709 45.943C11.2392 58.0827 14.4797 70.4429 18.8499 81.6134C20.643 86.1967 22.8365 90.8847 25.9343 94.746C26.9603 96.0252 28.2299 97.2513 29.7487 97.9314C32.4097 99.1212 34.6928 97.1172 36.3068 95.1873C39.755 91.0639 43.3165 87.0378 46.9914 83.1091C47.025 83.0728 47.0241 83.0378 46.9886 83.0043C46.6462 82.6794 46.3079 82.3508 45.9738 82.0184C41.8374 77.9114 39.6971 72.31 39.9267 66.4783C39.9701 65.3639 40.1534 64.0526 40.2934 62.8405C40.7945 58.517 40.8883 54.1306 40.6518 49.7848C40.5636 48.1676 40.4278 46.4849 40.4516 44.9417C40.5692 37.4859 42.0152 29.8206 45.0835 22.9792Z" stroke="#99B3C8" stroke-width="2"/>
<path id="Vector_5" d="M108.952 76.2969C110.005 73.9369 110.559 71.4995 110.612 68.9849C110.696 65.1055 110.089 61.3224 109.673 57.5352C109.414 55.1686 109.48 52.5739 109.869 49.7512C110.248 46.9959 110.786 44.2672 110.853 41.4323C110.854 41.3857 110.831 41.3597 110.786 41.3541C107.657 40.9212 103.722 40.7927 100.848 42.0914C94.5298 44.9486 98.438 55.1458 100.324 59.5112C102.311 64.1154 104.732 68.4152 107.122 72.8127C107.747 73.9592 108.227 75.1546 108.847 76.3011C108.852 76.3106 108.86 76.3185 108.87 76.3238C108.879 76.3292 108.89 76.3317 108.901 76.3313C108.912 76.3309 108.922 76.3274 108.931 76.3214C108.94 76.3153 108.947 76.3068 108.952 76.2969Z" stroke="#99B3C8" stroke-width="2"/>
<path id="Vector_6" d="M58.7832 83.3911C59.8289 79.3371 61.58 75.5345 63.2234 71.7025C65.0081 67.5382 65.7612 63.0331 65.6129 58.5825C65.4859 54.7469 64.9722 50.8581 64.0717 46.9163C62.0686 38.152 50.5272 42.5299 45.7889 45.3983C45.3475 45.6655 44.9248 45.9676 44.5207 46.3046C44.4834 46.3354 44.4666 46.3749 44.4703 46.4233C44.8706 52.4282 44.9098 58.3381 44.1693 64.3179C44.0079 65.6241 43.9234 66.5504 43.916 67.0969C43.8068 75.4032 49.9589 83.3254 58.6937 83.4609C58.7412 83.4618 58.7711 83.4386 58.7832 83.3911Z" stroke="#99B3C8" stroke-width="2"/>
<path id="Vector_7" d="M119.893 89.91C117.194 89.9002 114.116 89.4365 111.913 87.7426C111.897 87.7309 111.88 87.7229 111.861 87.7193C111.842 87.7156 111.823 87.7165 111.805 87.7217C109.96 88.2453 108.29 88.561 107.849 90.7744C107.643 91.8068 107.574 92.7509 107.643 93.6064C107.645 93.6299 107.653 93.6524 107.666 93.672C107.679 93.6915 107.696 93.7075 107.717 93.7182C108.816 94.2796 110.25 94.4415 111.424 94.496C114.974 94.6594 118.584 94.2237 121.956 93.2503C124.686 92.4641 127.643 90.8065 129.746 88.8724C129.805 88.8184 129.795 88.7988 129.717 88.8137C126.447 89.4463 123.236 89.9225 119.893 89.91Z" stroke="#99B3C8" stroke-width="2"/>
<path id="Vector_8" d="M46.5043 98.4046C47.144 98.8194 47.8761 99.142 48.6096 99.3557C55.6295 101.402 62.6467 99.9687 67.0281 93.7544C67.7532 92.7251 67.3641 91.0759 66.7397 90.1012C66.177 89.2214 65.4552 88.6446 64.5743 88.3709C63.8184 88.1363 63.1955 88.3318 62.6621 88.875C61.4499 90.1095 60.4085 91.4935 59.3278 92.8411C57.3513 95.3086 54.7589 96.2806 51.6513 96.9802C49.9478 97.3643 48.1336 97.6533 46.5127 98.3139C46.504 98.3175 46.4965 98.3234 46.491 98.331C46.4854 98.3385 46.482 98.3474 46.4812 98.3568C46.4803 98.3661 46.482 98.3755 46.4861 98.3839C46.4901 98.3923 46.4964 98.3995 46.5043 98.4046Z" stroke="#99B3C8" stroke-width="2"/>
<path id="Vector_9" d="M107.02 44.6931C108.35 41.7927 98.4536 42.9056 100.707 45.7349C102.611 48.1243 105.87 47.2026 107.02 44.6931Z" stroke="#99B3C8" stroke-width="2"/>
<path id="Vector_10" d="M60.5512 44.4963C59.4659 44.0885 58.3423 43.9205 57.1805 43.9922C55.3509 44.1053 54.0309 45.1359 55.4391 46.9834C57.0713 49.1242 60.1242 49.5334 61.8838 47.2488C62.914 45.9109 61.7144 44.9334 60.5512 44.4963Z" stroke="#99B3C8" stroke-width="2"/>
</g>
<path id="Vector_11" d="M98.9352 0H101.416C114.334 0.28209 125.876 5.05527 134.199 14.9913C135.329 16.3403 136.224 17.6488 136.829 19.1654C137.656 21.2349 138.156 23.4581 138.328 25.835C138.615 29.787 138.333 33.7712 137.722 37.733C136.707 44.3105 134.962 50.7692 132.756 57.0436C129.696 65.7502 125.816 74.0756 121.115 82.0197C121.085 82.07 121.099 82.0951 121.157 82.0951C122.91 82.0951 124.787 81.8005 126.399 81.5044C129.29 80.9766 132.322 80.2238 135.161 81.5798C137.188 82.5481 138.468 84.1582 139 86.4103V89.0412C138.436 91.7365 136.737 93.7921 134.651 95.5112C130.583 98.8669 126.052 101.013 120.876 101.988C117.432 102.636 113.748 102.952 110.299 102.615C110.247 102.61 110.219 102.634 110.212 102.685C110.167 103.065 110.121 103.443 110.075 103.819C109.936 104.939 109.952 106.087 109.907 107.215C109.76 110.948 109.397 114.66 108.818 118.351C108.14 122.674 106.991 126.98 104.921 130.86C102.374 135.635 98.5694 138.935 93.5068 140.76C91.3166 141.55 88.9714 142.155 86.4714 142.577C79.3492 143.779 72.7701 141.752 69.0775 135.219C67.8415 133.032 67.08 130.679 66.3129 128.301C65.571 126.005 65.1916 123.582 64.9397 121.187C64.4274 116.336 64.272 111.437 64.1642 106.564C64.1639 106.557 64.1617 106.549 64.1579 106.543C64.1541 106.536 64.1487 106.53 64.1422 106.526C64.1358 106.522 64.1284 106.52 64.1208 106.519C64.1132 106.518 64.1055 106.52 64.0984 106.522C58.7316 108.832 52.7306 108.88 47.1384 107.427C44.4382 106.725 41.8122 105.409 39.9323 103.311C39.8987 103.273 39.8623 103.27 39.8231 103.299C39.4843 103.553 39.1414 103.804 38.7942 104.053C35.4109 106.476 31.2661 107.187 27.3313 105.739C23.0493 104.165 19.7752 100.392 17.4207 96.6507C13.3361 90.1584 10.5337 82.8632 8.22123 75.5833C5.20607 66.091 2.84974 56.4906 1.15225 46.7822C0.760308 44.5395 0.400559 42.1347 0.266179 39.8389C-0.173358 32.4026 0.592332 24.5837 3.85666 17.8094C13.3809 -1.95787 37.869 0.196904 54.9059 5.93087C54.9266 5.9379 54.9486 5.94041 54.9706 5.93824C54.9925 5.93608 55.0139 5.92928 55.0333 5.9183C60.046 3.00523 65.6816 1.62132 71.4613 1.54312C75.3201 1.49098 79.1551 1.77959 82.9663 2.40894C83.1809 2.44431 83.3923 2.43221 83.6004 2.37263C88.6061 0.947282 93.7177 0.156406 98.9352 0ZM107.33 97.8978C109.232 98.3763 111.296 98.583 113.524 98.5178C116.87 98.4191 120.005 97.9611 122.928 97.1437C125.905 96.31 128.724 94.7389 131.18 92.883C132.802 91.6569 135.247 89.4895 134.972 87.2119C134.652 84.5907 131.644 84.3756 129.655 84.7513C126.69 85.3126 124.405 85.7372 121.713 85.8712C119.262 85.9927 116.54 85.9466 114.518 84.7121C114.513 84.7097 114.51 84.7064 114.507 84.7024C114.504 84.6985 114.501 84.6939 114.5 84.689C114.499 84.6842 114.499 84.6792 114.5 84.6742C114.501 84.6693 114.502 84.6646 114.505 84.6605C120.426 75.5777 125.191 65.9243 128.8 55.7002C131.03 49.3839 132.794 42.8372 133.757 36.2053C134.303 32.4417 134.515 28.5749 134.073 24.789C133.814 22.5616 133.153 20.0968 131.772 18.3135C125.996 10.8507 117.879 6.14872 108.552 4.52042C100.88 3.18119 92.8685 3.76492 85.3571 5.81357C84.5294 6.03886 83.7096 6.29442 82.8977 6.58024C82.8538 6.59513 82.809 6.59746 82.7633 6.58722C77.1613 5.23263 71.0456 4.8472 65.3722 5.97975C61.841 6.68451 58.5799 8.03258 55.589 10.024C55.5707 10.0357 55.55 10.0433 55.5285 10.0462C55.5069 10.0491 55.4851 10.0473 55.4644 10.0407C54.9558 9.87501 54.4496 9.70557 53.9457 9.5324C50.5973 8.38356 47.186 7.4698 43.7117 6.7911C34.9644 5.08041 24.7109 4.74386 16.6676 9.26567C5.86957 15.3362 3.51511 27.9897 4.14362 39.244C4.3046 42.1305 4.80573 44.971 5.34885 47.898C7.09953 57.3131 9.42926 66.4964 12.338 75.4479C13.1807 78.0439 14.1354 80.6093 15.1348 83.1467C17.0176 87.9283 19.3216 92.7545 22.4712 96.8434C24.2013 99.0917 26.6174 101.291 29.2896 102.017C32.8689 102.991 36.276 101.247 38.6221 98.6128C39.4181 97.7199 40.4661 96.4961 41.766 94.9414C43.8629 92.4314 46.7283 89.2451 50.3622 85.3825C50.3939 85.3489 50.4303 85.3434 50.4714 85.3657C52.893 86.6514 55.4794 87.3459 58.2304 87.4493C58.256 87.4505 58.2808 87.4587 58.3021 87.473C58.3233 87.4873 58.3402 87.5071 58.3508 87.5303C58.3614 87.5535 58.3653 87.579 58.3621 87.6042C58.3589 87.6293 58.3487 87.653 58.3326 87.6727C57.7671 88.3802 57.2025 89.0822 56.6389 89.7786C55.463 91.2337 54.7561 91.8566 53.089 92.4179C51.1657 93.0659 49.1793 93.4164 47.2112 93.8926C45.5049 94.306 43.2834 95.0671 42.3777 96.7457C41.5378 98.3013 42.1216 99.8389 43.3464 100.997C44.4018 101.992 46.0172 102.765 47.3484 103.164C54.2312 105.232 61.7817 104.414 67.2619 99.5065C67.2665 99.5021 67.2723 99.4991 67.2786 99.498C67.2849 99.4968 67.2914 99.4976 67.2972 99.5001C67.3031 99.5027 67.308 99.5069 67.3115 99.5123C67.3149 99.5176 67.3167 99.5239 67.3165 99.5302C67.2395 106.659 67.3501 113.858 67.9506 120.97C68.183 123.706 68.4756 126.542 69.545 129.137C71.215 133.19 73.6786 136.555 77.8332 138.217C80.4494 139.263 83.4422 139.401 86.2264 138.967C91.7808 138.103 97.6964 136.093 100.902 131.204C102.598 128.618 103.522 125.502 104.039 122.472C104.346 120.667 104.658 118.606 104.974 116.291C105.809 110.185 106.57 104.071 107.257 97.9466C107.263 97.9029 107.287 97.8866 107.33 97.8978Z" fill="black"/>
<path id="Vector_12" d="M107.257 97.9467C106.57 104.071 105.809 110.185 104.974 116.291C104.657 118.606 104.346 120.667 104.039 122.472C103.522 125.502 102.598 128.618 100.902 131.204C97.6963 136.093 91.7807 138.103 86.2263 138.967C83.4421 139.401 80.4493 139.263 77.8331 138.217C73.6785 136.555 71.2149 133.19 69.5449 129.137C68.4755 126.542 68.1829 123.706 67.9505 120.97C67.35 113.858 67.2394 106.659 67.3164 99.5303C67.3166 99.5239 67.3148 99.5176 67.3114 99.5123C67.3079 99.5069 67.303 99.5027 67.2971 99.5002C67.2913 99.4976 67.2848 99.4969 67.2785 99.498C67.2722 99.4991 67.2664 99.5021 67.2618 99.5065C61.7816 104.414 54.2311 105.232 47.3483 103.164C46.0171 102.765 44.4017 101.992 43.3463 100.997C42.1215 99.8389 41.5377 98.3014 42.3776 96.7457C43.2833 95.0671 45.5048 94.306 47.2111 93.8927C49.1792 93.4165 51.1656 93.0659 53.0889 92.418C54.756 91.8566 55.4629 91.2338 56.6388 89.7786C57.2024 89.0822 57.767 88.3803 58.3325 87.6727C58.3486 87.6531 58.3588 87.6293 58.362 87.6042C58.3652 87.5791 58.3613 87.5535 58.3507 87.5303C58.3401 87.5072 58.3232 87.4873 58.302 87.473C58.2807 87.4587 58.2559 87.4505 58.2303 87.4493C55.4793 87.3459 52.8929 86.6514 50.4713 85.3657C50.4302 85.3434 50.3938 85.349 50.3621 85.3825C46.7282 89.2452 43.8628 92.4315 41.7659 94.9414C40.466 96.4962 39.418 97.72 38.622 98.6128C36.2759 101.247 32.8688 102.991 29.2895 102.017C26.6173 101.291 24.2012 99.0918 22.4711 96.8434C19.3215 92.7545 17.0175 87.9283 15.1347 83.1467C14.1353 80.6093 13.1806 78.044 12.3379 75.4479C9.42916 66.4964 7.09943 57.3132 5.34874 47.8981C4.80562 44.971 4.30449 42.1306 4.14352 39.244C3.51501 27.9898 5.86947 15.3362 16.6675 9.26572C24.7108 4.74391 34.9643 5.08046 43.7116 6.79115C47.1859 7.46984 50.5972 8.38361 53.9456 9.53245C54.4495 9.70561 54.9557 9.87505 55.4643 10.0408C55.485 10.0473 55.5068 10.0492 55.5284 10.0463C55.5499 10.0434 55.5706 10.0358 55.5889 10.024C58.5798 8.03263 61.8409 6.68455 65.3721 5.97979C71.0455 4.84725 77.1612 5.23267 82.7632 6.58726C82.8089 6.59751 82.8537 6.59518 82.8976 6.58028C83.7095 6.29447 84.5293 6.03891 85.357 5.81361C92.8684 3.76497 100.879 3.18124 108.552 4.52047C117.879 6.14877 125.996 10.8507 131.772 18.3135C133.153 20.0969 133.814 22.5616 134.073 24.789C134.515 28.5749 134.302 32.4418 133.756 36.2053C132.793 42.8372 131.03 49.3839 128.8 55.7002C125.191 65.9243 120.426 75.5778 114.505 84.6605C114.502 84.6647 114.5 84.6694 114.5 84.6743C114.499 84.6792 114.499 84.6842 114.5 84.6891C114.501 84.6939 114.503 84.6985 114.506 84.7025C114.509 84.7064 114.513 84.7097 114.518 84.7122C116.54 85.9467 119.262 85.9928 121.713 85.8713C124.404 85.7372 126.69 85.3127 129.655 84.7513C131.644 84.3756 134.652 84.5907 134.971 87.2119C135.247 89.4895 132.802 91.6569 131.179 92.883C128.724 94.7389 125.905 96.31 122.928 97.1437C120.005 97.9611 116.87 98.4191 113.524 98.5178C111.296 98.583 109.232 98.3763 107.33 97.8978C107.287 97.8866 107.262 97.9029 107.257 97.9467ZM120.884 64.6656C124.939 55.6723 128.135 46.1539 129.659 36.4483C130.187 33.0883 130.457 29.653 130.201 26.2553C130.09 24.7849 129.802 23.0309 129.115 21.6372C128.891 21.1819 128.524 20.6438 128.015 20.0228C122.432 13.2345 114.592 9.17355 105.825 8.13876C100.476 7.50662 95.102 7.75938 89.7034 8.89705C89.653 8.90729 89.6511 8.92312 89.6978 8.94453C100.891 13.9705 109.281 23.5797 113.779 34.887C114.336 36.2863 114.967 38.0626 114.91 39.7189C114.882 40.513 114.868 40.9161 114.868 40.9282C114.87 44.1331 114.27 47.2264 113.842 50.3433C113.577 52.2677 113.502 54.199 113.619 56.1373C113.86 60.1494 114.609 64.0791 114.632 68.1136C114.658 72.3128 113.695 76.3626 111.486 80.0284C111.48 80.0382 111.477 80.0495 111.478 80.0607C111.479 80.0719 111.483 80.0826 111.49 80.0912L112.125 80.89C112.128 80.8934 112.131 80.8961 112.135 80.8979C112.139 80.8997 112.143 80.9006 112.147 80.9005C112.152 80.9004 112.156 80.8992 112.16 80.8971C112.163 80.8951 112.166 80.8921 112.169 80.8886C115.423 75.7421 118.328 70.3344 120.884 64.6656ZM103.644 91.9474C103.759 88.924 105.052 86.1017 107.976 84.789C108.482 84.5618 109.002 84.371 109.534 84.2164C109.544 84.2138 109.552 84.2088 109.559 84.202C109.566 84.1952 109.571 84.1868 109.574 84.1776C109.577 84.1683 109.578 84.1584 109.576 84.1489C109.574 84.1393 109.57 84.1304 109.564 84.1229C107.626 81.6958 105.762 79.386 104.432 76.438C104.032 75.5517 103.693 74.8553 103.416 74.3489C101.9 71.5824 100.352 68.8383 98.9183 66.0258C97.5091 63.2608 96.2839 60.4171 95.2424 57.4947C93.7614 53.3388 92.5436 48.141 94.1086 43.8552C96.5484 37.1772 104.397 36.6647 110.322 37.2666C110.33 37.2673 110.338 37.266 110.345 37.2629C110.352 37.2599 110.358 37.2551 110.363 37.2491C110.368 37.2431 110.371 37.2361 110.372 37.2287C110.373 37.2212 110.373 37.2136 110.37 37.2066C107.873 30.1501 103.122 23.3381 97.4121 18.5021C90.4131 12.5745 82.229 9.51383 72.8596 9.32018C70.9923 9.28108 69.1376 9.40584 67.2954 9.69444C57.4422 11.2334 51.0844 18.051 47.7668 27.0332C46.0582 31.6593 45.0162 36.4343 44.6411 41.3583C44.6374 41.4123 44.6593 41.4263 44.7069 41.4002C49.4564 38.7846 56.3434 36.5111 61.6962 38.4746C64.7954 39.6113 67.0617 42.3401 67.854 45.5953C69.2132 51.1812 69.9928 57.517 69.4637 63.2971C69.1306 66.9298 68.1792 70.4648 66.6095 73.902C65.2256 76.9305 64.0218 80.0284 62.9981 83.1956C62.8767 83.5699 62.7713 83.9497 62.6817 84.3351C62.6705 84.3863 62.6901 84.4059 62.7405 84.3938C63.6448 84.1899 64.5458 84.2099 65.4435 84.4538C68.9318 85.4006 71.0567 88.3682 71.464 91.8566C71.5298 92.411 71.4304 93.274 71.4178 93.8075C71.2191 101.964 71.2667 110.13 71.7706 118.282C71.9152 120.629 72.1569 122.861 72.4957 124.977C72.7896 126.816 73.5259 128.44 74.4596 130.088C77.0394 134.641 81.3466 135.835 86.3691 134.905C90.1541 134.204 94.5999 132.853 97.051 129.701C98.9183 127.301 99.7568 124.051 100.221 121.063C101.351 113.812 102.247 106.511 103.08 99.2216C103.241 97.8103 103.39 96.398 103.526 94.9847C103.623 94.0002 103.606 92.964 103.644 91.9474ZM45.0834 22.9792C46.7408 19.2841 48.9851 15.9889 51.8165 13.0935C51.8566 13.0525 51.8496 13.0237 51.7955 13.0069C45.1884 10.9429 38.4456 9.52966 31.5306 9.65115C27.7875 9.71679 23.9087 10.3354 20.4988 11.8213C9.67832 16.5358 7.61642 28.385 8.13854 38.86C8.25613 41.2089 8.65367 43.6095 9.07081 45.943C11.2391 58.0826 14.4796 70.4429 18.8498 81.6134C20.6429 86.1966 22.8364 90.8846 25.9342 94.7459C26.9602 96.0251 28.2299 97.2512 29.7486 97.9313C32.4097 99.1211 34.6927 97.1171 36.3067 95.1872C39.7549 91.0639 43.3164 87.0378 46.9914 83.109C47.025 83.0727 47.024 83.0378 46.9886 83.0043C46.6461 82.6794 46.3078 82.3507 45.9737 82.0184C41.8373 77.9113 39.697 72.31 39.9266 66.4783C39.97 65.3639 40.1533 64.0526 40.2933 62.8404C40.7944 58.5169 40.8882 54.1306 40.6517 49.7847C40.5635 48.1676 40.4277 46.4848 40.4515 44.9417C40.5691 37.4859 42.0151 29.8206 45.0834 22.9792ZM108.952 76.297C110.006 73.9369 110.559 71.4996 110.612 68.985C110.696 65.1055 110.089 61.3225 109.673 57.5352C109.414 55.1686 109.48 52.574 109.869 49.7512C110.248 46.9959 110.786 44.2672 110.853 41.4323C110.854 41.3858 110.832 41.3597 110.786 41.3541C107.657 40.9212 103.722 40.7927 100.849 42.0915C94.5299 44.9487 98.4382 55.1458 100.324 59.5112C102.311 64.1154 104.732 68.4152 107.123 72.8127C107.747 73.9593 108.227 75.1546 108.847 76.3012C108.852 76.3107 108.86 76.3185 108.87 76.3239C108.879 76.3292 108.89 76.3318 108.901 76.3314C108.912 76.3309 108.922 76.3275 108.931 76.3214C108.94 76.3153 108.948 76.3069 108.952 76.297ZM58.7833 83.3911C59.8289 79.3371 61.5801 75.5345 63.2234 71.7025C65.0082 67.5382 65.7613 63.0332 65.6129 58.5826C65.486 54.7469 64.9722 50.8581 64.0717 46.9163C62.0686 38.152 50.5272 42.53 45.7889 45.3984C45.3475 45.6655 44.9248 45.9677 44.5207 46.3047C44.4834 46.3354 44.4666 46.375 44.4703 46.4234C44.8707 52.4283 44.9099 58.3382 44.1694 64.3179C44.0079 65.6241 43.9235 66.5504 43.916 67.0969C43.8068 75.4032 49.9589 83.3255 58.6937 83.4609C58.7413 83.4619 58.7711 83.4386 58.7833 83.3911ZM119.893 89.9099C117.194 89.9001 114.116 89.4365 111.913 87.7425C111.897 87.7308 111.88 87.7228 111.861 87.7192C111.842 87.7156 111.823 87.7164 111.805 87.7216C109.96 88.2453 108.29 88.5609 107.849 90.7743C107.643 91.8068 107.574 92.7508 107.643 93.6064C107.645 93.6298 107.653 93.6524 107.666 93.6719C107.679 93.6915 107.696 93.7074 107.717 93.7181C108.816 94.2795 110.25 94.4415 111.424 94.4959C114.974 94.6593 118.584 94.2236 121.956 93.2503C124.686 92.4641 127.644 90.8064 129.746 88.8723C129.805 88.8183 129.795 88.7988 129.717 88.8137C126.447 89.4463 123.236 89.9225 119.893 89.9099ZM46.5042 98.4047C47.1439 98.8195 47.876 99.142 48.6095 99.3557C55.6295 101.402 62.6467 99.9688 67.0281 93.7544C67.7532 92.7252 67.364 91.076 66.7397 90.1012C66.177 89.2214 65.4552 88.6447 64.5742 88.371C63.8183 88.1364 63.1954 88.3319 62.6621 88.8751C61.4499 90.1096 60.4084 91.4935 59.3278 92.8411C57.3513 95.3087 54.7588 96.2807 51.6513 96.9803C49.9477 97.3643 48.1336 97.6534 46.5126 98.3139C46.504 98.3176 46.4965 98.3235 46.4909 98.331C46.4854 98.3386 46.482 98.3475 46.4811 98.3568C46.4803 98.3661 46.482 98.3755 46.486 98.3839C46.4901 98.3924 46.4964 98.3996 46.5042 98.4047Z" fill="white"/>
<path id="Vector_13" d="M120.884 64.6656C118.328 70.3344 115.423 75.7421 112.169 80.8886C112.166 80.8921 112.163 80.8951 112.159 80.8971C112.156 80.8992 112.152 80.9004 112.147 80.9005C112.143 80.9006 112.139 80.8997 112.135 80.8979C112.131 80.8961 112.128 80.8934 112.125 80.89L111.49 80.0912C111.483 80.0826 111.479 80.0719 111.478 80.0607C111.477 80.0495 111.48 80.0382 111.486 80.0284C113.694 76.3626 114.658 72.3128 114.632 68.1136C114.609 64.0791 113.86 60.1494 113.619 56.1373C113.502 54.199 113.576 52.2676 113.841 50.3433C114.27 47.2263 114.87 44.1331 114.867 40.9282C114.867 40.9161 114.881 40.513 114.909 39.7188C114.967 38.0626 114.336 36.2863 113.778 34.887C109.281 23.5797 100.89 13.9705 89.6977 8.9445C89.651 8.92309 89.6529 8.90726 89.7033 8.89702C95.1019 7.75935 100.476 7.50659 105.825 8.13873C114.592 9.17353 122.432 13.2345 128.014 20.0228C128.524 20.6438 128.891 21.1819 129.115 21.6372C129.802 23.0308 130.09 24.7848 130.201 26.2553C130.457 29.653 130.187 33.0883 129.659 36.4483C128.135 46.1538 124.939 55.6723 120.884 64.6656Z" fill="#336791"/>
<path id="Vector_14" d="M107.976 84.7889C105.052 86.1016 103.759 88.9239 103.644 91.9473C103.606 92.9639 103.623 94.0001 103.526 94.9846C103.39 96.3979 103.241 97.8102 103.08 99.2216C102.247 106.511 101.351 113.812 100.221 121.063C99.7567 124.051 98.9182 127.301 97.0509 129.701C94.5998 132.853 90.1541 134.204 86.369 134.905C81.3465 135.835 77.0394 134.641 74.4595 130.088C73.5259 128.44 72.7896 126.816 72.4956 124.977C72.1569 122.861 71.9152 120.629 71.7705 118.282C71.2666 110.13 71.219 101.964 71.4178 93.8074C71.4304 93.274 71.5298 92.4109 71.464 91.8565C71.0566 88.3681 68.9317 85.4006 65.4434 84.4538C64.5457 84.2098 63.6447 84.1898 62.7404 84.3937C62.69 84.4058 62.6704 84.3863 62.6816 84.3351C62.7712 83.9496 62.8767 83.5698 62.998 83.1955C64.0217 80.0283 65.2255 76.9304 66.6095 73.9019C68.1791 70.4647 69.1305 66.9297 69.4637 63.297C69.9928 57.517 69.2131 51.1811 67.8539 45.5952C67.0616 42.34 64.7953 39.6113 61.6962 38.4745C56.3433 36.5111 49.4563 38.7845 44.7068 41.4001C44.6592 41.4262 44.6373 41.4123 44.641 41.3583C45.0162 36.4343 46.0581 31.6592 47.7668 27.0331C51.0843 18.0509 57.4422 11.2333 67.2954 9.69437C69.1375 9.40576 70.9922 9.28101 72.8596 9.32011C82.2289 9.51375 90.413 12.5744 97.412 18.502C103.122 23.338 107.873 30.1501 110.37 37.2065C110.373 37.2136 110.373 37.2212 110.372 37.2286C110.371 37.236 110.368 37.2431 110.363 37.2491C110.358 37.255 110.352 37.2598 110.345 37.2628C110.338 37.2659 110.33 37.2672 110.322 37.2666C104.397 36.6647 96.5484 37.1772 94.1085 43.8552C92.5435 48.141 93.7614 53.3387 95.2424 57.4946C96.2838 60.417 97.5091 63.2607 98.9182 66.0258C100.352 68.8383 101.9 71.5824 103.416 74.3488C103.693 74.8553 104.032 75.5516 104.432 76.4379C105.762 79.3859 107.626 81.6957 109.564 84.1228C109.57 84.1303 109.574 84.1393 109.576 84.1488C109.578 84.1583 109.577 84.1682 109.574 84.1775C109.571 84.1868 109.566 84.1952 109.559 84.202C109.552 84.2087 109.544 84.2137 109.534 84.2164C109.001 84.3709 108.482 84.5618 107.976 84.7889Z" fill="#336791"/>
<path id="Vector_15" d="M45.0835 22.9791C42.0152 29.8205 40.5692 37.4858 40.4516 44.9416C40.4278 46.4847 40.5636 48.1675 40.6518 49.7846C40.8883 54.1305 40.7945 58.5168 40.2934 62.8404C40.1534 64.0525 39.9701 65.3638 39.9267 66.4782C39.6971 72.3099 41.8374 77.9112 45.9738 82.0183C46.3079 82.3507 46.6462 82.6793 46.9886 83.0042C47.0241 83.0377 47.025 83.0726 46.9914 83.1089C43.3165 87.0377 39.755 91.0638 36.3068 95.1871C34.6928 97.1171 32.4097 99.121 29.7487 97.9312C28.2299 97.2511 26.9603 96.025 25.9343 94.7458C22.8365 90.8846 20.643 86.1966 18.8499 81.6133C14.4797 70.4428 11.2392 58.0825 9.0709 45.9429C8.65376 43.6094 8.25622 41.2088 8.13863 38.8599C7.61651 28.3849 9.67841 16.5357 20.4989 11.8212C23.9088 10.3353 27.7876 9.7167 31.5307 9.65107C38.4457 9.52957 45.1885 10.9428 51.7956 13.0068C51.8497 13.0236 51.8567 13.0524 51.8166 13.0934C48.9852 15.9888 46.7409 19.284 45.0835 22.9791Z" fill="#336791"/>
<path id="Vector_16" d="M108.952 76.2969C108.947 76.3068 108.94 76.3153 108.931 76.3214C108.922 76.3274 108.912 76.3309 108.901 76.3313C108.89 76.3317 108.879 76.3292 108.87 76.3238C108.86 76.3185 108.852 76.3106 108.847 76.3011C108.227 75.1546 107.747 73.9592 107.122 72.8127C104.732 68.4152 102.311 64.1154 100.324 59.5112C98.438 55.1458 94.5298 44.9486 100.848 42.0914C103.722 40.7927 107.657 40.9212 110.786 41.3541C110.831 41.3597 110.854 41.3857 110.853 41.4323C110.786 44.2672 110.248 46.9959 109.869 49.7512C109.48 52.5739 109.414 55.1686 109.673 57.5352C110.089 61.3224 110.696 65.1055 110.612 68.9849C110.559 71.4995 110.005 73.9369 108.952 76.2969ZM107.02 44.6931C108.35 41.7926 98.4534 42.9056 100.707 45.7349C102.611 48.1242 105.87 47.2026 107.02 44.6931Z" fill="#336791"/>
<path id="Vector_17" d="M63.2234 71.7025C61.58 75.5345 59.8289 79.3371 58.7832 83.3911C58.7711 83.4386 58.7412 83.4618 58.6937 83.4609C49.9589 83.3254 43.8068 75.4032 43.916 67.0969C43.9234 66.5504 44.0079 65.6241 44.1693 64.3179C44.9098 58.3381 44.8706 52.4282 44.4703 46.4233C44.4666 46.3749 44.4834 46.3354 44.5207 46.3046C44.9248 45.9676 45.3475 45.6655 45.7889 45.3983C50.5272 42.5299 62.0686 38.152 64.0717 46.9163C64.9722 50.8581 65.4859 54.7469 65.6129 58.5825C65.7612 63.0331 65.0081 67.5382 63.2234 71.7025ZM60.5512 44.4962C59.4659 44.0884 58.3423 43.9204 57.1805 43.9921C55.3509 44.1052 54.0309 45.1358 55.4391 46.9833C57.0713 49.1241 60.1242 49.5333 61.8838 47.2487C62.914 45.9108 61.7144 44.9333 60.5512 44.4962Z" fill="#336791"/>
<path id="Vector_18" d="M107.02 44.693C105.87 47.2025 102.611 48.1242 100.707 45.7348C98.4536 42.9055 108.35 41.7925 107.02 44.693Z" fill="white"/>
<path id="Vector_19" d="M60.5512 44.4962C61.7144 44.9333 62.914 45.9108 61.8838 47.2486C60.1242 49.5333 57.0713 49.1241 55.4391 46.9833C54.0309 45.1358 55.3509 44.1051 57.1805 43.992C58.3423 43.9203 59.4659 44.0884 60.5512 44.4962Z" fill="white"/>
<path id="Vector_20" d="M111.913 87.7425C114.116 89.4364 117.194 89.9001 119.893 89.9098C123.236 89.9224 126.447 89.4462 129.717 88.8136C129.795 88.7987 129.805 88.8183 129.746 88.8722C127.643 90.8064 124.686 92.464 121.956 93.2502C118.584 94.2236 114.974 94.6593 111.424 94.4959C110.25 94.4414 108.816 94.2794 107.717 93.718C107.696 93.7073 107.679 93.6914 107.666 93.6719C107.653 93.6523 107.645 93.6297 107.643 93.6063C107.574 92.7507 107.643 91.8067 107.849 90.7743C108.29 88.5608 109.96 88.2452 111.805 87.7215C111.823 87.7163 111.842 87.7155 111.861 87.7192C111.88 87.7228 111.897 87.7308 111.913 87.7425Z" fill="#336791"/>
<path id="Vector_21" d="M48.6096 99.3557C47.8761 99.142 47.144 98.8194 46.5043 98.4046C46.4964 98.3995 46.4901 98.3923 46.4861 98.3839C46.482 98.3755 46.4803 98.3661 46.4812 98.3568C46.482 98.3474 46.4854 98.3385 46.491 98.331C46.4965 98.3234 46.504 98.3175 46.5127 98.3139C48.1336 97.6533 49.9478 97.3643 51.6513 96.9802C54.7589 96.2806 57.3513 95.3086 59.3278 92.8411C60.4085 91.4935 61.4499 90.1095 62.6621 88.875C63.1955 88.3318 63.8184 88.1363 64.5743 88.3709C65.4552 88.6446 66.177 89.2214 66.7397 90.1012C67.3641 91.0759 67.7532 92.7251 67.0281 93.7544C62.6467 99.9687 55.6295 101.402 48.6096 99.3557Z" fill="#336791"/>
</g>
<defs>
<clipPath id="clip0_3456_4387">
<rect width="139" height="143" fill="white"/>
</clipPath>
</defs>
</svg>
