<svg width="141" height="123" viewBox="0 0 141 123" fill="none" xmlns="http://www.w3.org/2000/svg">
<g id="React-icon.svg">
<path id="Vector" d="M40.755 0H45.4264C47.6914 0.35014 49.8779 0.97867 51.986 1.88559C58.9391 4.87818 65.0266 9.81909 70.4545 15.0921C70.4856 15.1216 70.5162 15.1216 70.5465 15.0921C75.7476 10.0577 81.4305 5.42061 88.0244 2.32593C90.461 1.18285 92.9818 0.40754 95.5869 0H100.262C101.087 0.16646 101.609 0.28044 101.828 0.34194C112.588 3.35175 113.61 16.5398 112.786 25.4462C112.383 29.8066 111.552 33.9997 110.541 38.253C110.531 38.2956 110.547 38.3231 110.589 38.3354C117.349 40.2911 124.06 42.8261 129.91 46.8212C136.452 51.2885 141.894 58.5849 138.244 66.8874C136.354 71.1875 132.557 74.5454 128.654 77.0091C123.089 80.5207 116.859 82.8663 110.564 84.6683C110.551 84.6721 110.54 84.6805 110.534 84.6917C110.528 84.703 110.526 84.7162 110.529 84.7285C111.846 89.9376 112.758 95.2352 112.973 100.614C113.333 109.688 111.063 121.246 100.217 123H95.5746C94.5104 122.816 93.8397 122.69 93.5626 122.624C88.7539 121.469 84.1193 118.893 80.0756 115.975C76.672 113.522 73.5737 110.801 70.5428 107.903C70.5117 107.873 70.4807 107.874 70.4496 107.904C65.2437 112.987 59.3707 117.749 52.7241 120.798C50.3855 121.871 47.9481 122.605 45.4117 123H40.771C30.3909 121.326 27.8321 110.543 27.9927 101.721C28.0969 95.9966 29.052 90.2758 30.4694 84.7359C30.474 84.7171 30.4711 84.6973 30.4615 84.6808C30.4519 84.6642 30.4362 84.6522 30.4179 84.6474C26.8116 83.6511 23.2825 82.4116 19.8306 80.9291C15.2659 78.9685 10.8287 76.4396 7.19458 73.0091C3.16075 69.201 0.573709 63.9797 1.99352 58.3328C3.68061 51.6145 10.2242 46.8618 16.0077 43.8901C20.6006 41.5297 25.4363 39.7536 30.397 38.3489C30.4559 38.3317 30.478 38.2936 30.4633 38.2346C29.663 35.1095 29.0369 31.9435 28.5849 28.7365C27.9118 23.9579 27.7193 19.0318 28.4942 14.2532C29.6111 7.35417 33.3188 1.20909 40.755 0ZM36.6489 9.11799C34.8073 11.8326 34.1709 15.4181 34.0275 18.6345C33.7553 24.6849 34.7595 30.9419 36.2798 36.8102C36.2847 36.8283 36.2966 36.8352 36.3154 36.8311C42.3077 35.5011 48.3592 34.5634 54.47 34.0181C54.5837 34.0083 54.6703 33.9607 54.73 33.8754C58.2799 28.8242 62.1343 24.0227 66.2932 19.4709C66.3112 19.452 66.3108 19.4332 66.292 19.4143C63.0269 16.2139 59.5313 13.2619 55.7243 10.7268C50.8739 7.49808 41.1584 2.46984 36.6489 9.11799ZM106.316 29.0428C107.016 24.5902 107.308 20.0281 106.662 15.5915C106.291 13.0429 105.397 10.1278 103.658 8.2164C99.7151 3.88065 92.8466 6.41199 88.6313 8.71947C83.5038 11.5251 78.8888 15.3012 74.7324 19.3996C74.7021 19.4283 74.7009 19.4586 74.7287 19.4906C75.2281 20.0564 75.7283 20.6222 76.2294 21.188C79.8267 25.247 83.1785 29.4839 86.2845 33.8988C86.3238 33.9546 86.3773 33.9853 86.4452 33.9911C92.5748 34.5421 98.6431 35.4859 104.65 36.8225C104.692 36.8315 104.718 36.8155 104.729 36.7745C105.367 34.2973 105.896 31.7201 106.316 29.0428ZM62.5475 33.4351C67.8332 33.2002 73.1875 33.1559 78.4781 33.4412C78.4827 33.4414 78.4873 33.4402 78.4914 33.4379C78.4954 33.4356 78.4987 33.4322 78.5009 33.4282C78.5031 33.4242 78.5041 33.4197 78.5037 33.4153C78.5034 33.4108 78.5017 33.4066 78.4989 33.4031C75.9952 30.0756 73.3411 26.873 70.5367 23.7956C70.5321 23.7905 70.5265 23.7865 70.5203 23.7838C70.514 23.781 70.5073 23.7796 70.5005 23.7796C70.4937 23.7796 70.487 23.781 70.4808 23.7838C70.4745 23.7865 70.4689 23.7905 70.4643 23.7956C67.6656 26.8657 65.0168 30.0604 62.5181 33.3797C62.4886 33.4191 62.4985 33.4375 62.5475 33.4351ZM82.9251 39.7118C74.6061 39.162 66.3496 39.1054 58.0294 39.7253C57.986 39.7286 57.9525 39.7479 57.9288 39.7831C53.2542 46.6851 49.1051 53.892 45.4816 61.4041C45.4514 61.4672 45.4514 61.5303 45.4816 61.5935C49.1075 69.1112 53.2599 76.3235 57.9386 83.2304C57.9474 83.2434 57.9591 83.2543 57.9729 83.2622C57.9868 83.2701 58.0023 83.2748 58.0183 83.2759C66.3369 83.8901 74.6559 83.8913 82.9753 83.2796C83.0113 83.2772 83.0391 83.2612 83.0587 83.2316C87.7399 76.3248 91.8927 69.1112 95.517 61.591C95.5311 61.5624 95.5384 61.5307 95.5384 61.4985C95.5384 61.4663 95.5311 61.4344 95.517 61.4053C91.8984 53.8998 87.7542 46.699 83.0845 39.8028C83.0665 39.7764 83.0428 39.7544 83.0152 39.7386C82.9876 39.7229 82.9567 39.7137 82.9251 39.7118ZM50.2069 40.5064C46.1044 41.0131 42.0007 41.7155 37.9755 42.6232C37.9379 42.6314 37.9248 42.6539 37.9363 42.6908C39.1844 46.649 40.6153 50.5395 42.2288 54.3623C42.2509 54.414 42.275 54.4148 42.3011 54.3648C44.7459 49.6473 47.3939 45.0475 50.2449 40.5654C50.2744 40.5195 50.2617 40.4998 50.2069 40.5064ZM90.7843 40.5039C90.7344 40.4973 90.723 40.515 90.7499 40.5568C93.6035 45.0414 96.2526 49.644 98.6974 54.3648C98.7228 54.414 98.7461 54.4132 98.7673 54.3623C100.383 50.537 101.815 46.6437 103.062 42.6822C103.065 42.6751 103.066 42.6675 103.065 42.66C103.064 42.6524 103.062 42.6451 103.058 42.6385C103.054 42.6319 103.049 42.6262 103.043 42.6216C103.036 42.6171 103.029 42.6138 103.022 42.6121C98.9758 41.7175 94.8966 41.0148 90.7843 40.5039ZM133.17 63.281C134.56 58.1323 129.579 53.719 125.815 51.3033C120.666 47.9995 114.824 45.7462 108.95 44.125C108.912 44.1144 108.888 44.1275 108.876 44.1644C107.024 50.0536 104.804 55.7998 102.215 61.4028C102.201 61.4328 102.194 61.4655 102.194 61.4984C102.194 61.5313 102.201 61.5638 102.215 61.5935C104.804 67.1982 107.025 72.9456 108.878 78.8356C108.889 78.8717 108.913 78.8848 108.95 78.875C112.326 77.9435 115.622 76.7856 118.84 75.4015C122.637 73.768 126.397 71.677 129.465 68.8702C131.114 67.3597 132.577 65.4754 133.17 63.281ZM8.27966 58.425C4.85766 65.7693 14.6847 71.8431 19.8919 74.3572C23.7933 76.2403 27.9044 77.7163 32.0719 78.8848C32.0798 78.8871 32.0884 78.8863 32.0957 78.8824C32.1031 78.8784 32.1086 78.8718 32.1111 78.8639C33.9674 72.964 36.1911 67.2072 38.7823 61.5935C38.7961 61.5634 38.8033 61.5307 38.8033 61.4975C38.8033 61.4644 38.7961 61.4317 38.7823 61.4016C36.1936 55.7969 33.9723 50.0491 32.1185 44.1582C32.107 44.1213 32.0829 44.1082 32.0461 44.1189C25.7097 45.9208 19.2777 48.3451 13.8768 52.2024C11.6367 53.8027 9.45916 55.8912 8.27966 58.425ZM37.9914 80.3805C41.8536 81.2526 46.1498 82.0139 50.1971 82.4838C50.2543 82.4904 50.2674 82.469 50.2364 82.4198C47.3886 77.9426 44.7443 73.3478 42.3036 68.6352C42.2766 68.5828 42.2517 68.5836 42.2288 68.6377C40.6177 72.4556 39.1885 76.3404 37.9412 80.2919C37.9256 80.3395 37.9424 80.369 37.9914 80.3805ZM90.788 82.4875C94.8904 82.009 99.0003 81.2821 103.024 80.3805C103.031 80.3789 103.038 80.3759 103.044 80.3716C103.05 80.3673 103.055 80.3619 103.059 80.3556C103.062 80.3494 103.065 80.3425 103.066 80.3353C103.066 80.3281 103.066 80.3209 103.064 80.3141C101.809 76.3371 100.371 72.4286 98.7489 68.5885C98.7477 68.5859 98.7458 68.5836 98.7433 68.582C98.7409 68.5804 98.7381 68.5795 98.7352 68.5793C98.7323 68.5792 98.7294 68.5799 98.7269 68.5813C98.7243 68.5827 98.7222 68.5847 98.7207 68.5873C96.271 73.3219 93.6157 77.9373 90.7549 82.4334C90.7287 82.4752 90.7397 82.4932 90.788 82.4875ZM34.4321 95.678C33.911 99.6275 33.759 103.741 34.3769 107.688C35.0868 112.23 37.3379 117.058 42.7008 117.122C44.3896 117.142 46.035 116.881 47.6371 116.341C49.553 115.695 51.3881 114.868 53.1422 113.857C57.9619 111.081 62.3513 107.474 66.3018 103.568C66.3058 103.564 66.3081 103.558 66.3081 103.552C66.3081 103.547 66.3058 103.541 66.3018 103.536C62.1494 98.9912 58.3028 94.1975 54.7618 89.1553C54.6834 89.0434 54.5988 89.0003 54.47 88.9893C48.36 88.4374 42.3097 87.4961 36.319 86.1652C36.3108 86.1636 36.3022 86.1651 36.2951 86.1695C36.2881 86.1738 36.283 86.1806 36.281 86.1886C35.4718 89.3111 34.8555 92.4743 34.4321 95.678ZM104.664 86.1689C98.6509 87.5231 92.5474 88.4456 86.4072 89.0163C86.3875 89.0183 86.3685 89.0245 86.3514 89.0344C86.3342 89.0444 86.3194 89.0579 86.3078 89.0741C82.697 94.1196 78.8912 98.9535 74.7041 103.528C74.687 103.547 74.6874 103.565 74.7054 103.582C78.0575 106.846 81.6217 109.87 85.5305 112.443C90.4263 115.663 100.161 120.531 104.512 113.666C105.88 111.507 106.547 108.835 106.809 106.287C107.5 99.5919 106.362 92.6891 104.73 86.2082C104.726 86.1943 104.717 86.1824 104.705 86.1751C104.692 86.1677 104.678 86.1655 104.664 86.1689ZM78.4364 89.5698C73.1372 89.7937 67.8283 89.8048 62.5316 89.5637C62.5266 89.5636 62.5216 89.565 62.5173 89.5676C62.513 89.5702 62.5096 89.5739 62.5073 89.5784C62.505 89.5828 62.504 89.5879 62.5044 89.5929C62.5048 89.5979 62.5065 89.6027 62.5095 89.6067C65.0074 92.9245 67.6546 96.1175 70.4509 99.186C70.4835 99.2221 70.5163 99.2221 70.5489 99.186C73.3387 96.1266 75.9789 92.9421 78.4695 89.6326C78.503 89.5883 78.4919 89.5674 78.4364 89.5698Z" fill="#61DAFB"/>
<path id="Vector_2" d="M70.5 73.8172C77.2816 73.8172 82.7792 68.302 82.7792 61.4987C82.7792 54.6955 77.2816 49.1803 70.5 49.1803C63.7183 49.1803 58.2207 54.6955 58.2207 61.4987C58.2207 68.302 63.7183 73.8172 70.5 73.8172Z" fill="#61DAFB"/>
</g>
</svg>
