<svg width="150" height="113" viewBox="0 0 150 113" fill="none" xmlns="http://www.w3.org/2000/svg">
<g id="2560px-Sass_Logo_Color.svg-removebg-preview" clip-path="url(#clip0_3456_4351)">
<path id="Vector" d="M67.6222 0H68.3709C75.4497 0.284457 82.7886 1.37792 88.5624 5.89009C97.6482 12.9911 94.851 25.716 89.2227 33.8504C84.4238 40.7896 77.9246 45.795 70.0373 48.6422C65.2418 50.3733 60.2894 51.4537 55.1802 51.8834C51.3033 52.2105 47.7712 51.973 44.5841 51.171C40.6508 50.1845 35.7192 47.2747 34.6144 43.0287C34.3726 42.0997 35.0641 41.0923 35.857 41.9039C36.8735 42.9374 37.7366 43.8325 38.9428 44.5319C42.7955 46.758 47.4749 47.259 51.8319 46.7736C62.5893 45.581 73.1933 40.8209 80.4775 32.6421C85.9576 26.4885 90.9229 14.6717 79.6092 10.7024C71.3475 7.80561 61.7444 9.22529 53.4879 11.668C48.9679 13.0059 44.318 14.9049 39.5381 17.3649C32.2773 21.0994 25.1283 25.5359 19.2244 31.2355C14.8544 35.4554 11.5113 40.6748 11.2279 46.7136C10.9705 52.1601 13.9575 56.3826 17.7062 59.9265C23.1005 65.0285 29.5217 68.8648 34.6248 74.2851C34.7288 74.3947 34.8466 74.413 34.9783 74.3399C39.7357 71.7145 44.461 69.1179 49.1543 66.5499C49.5009 66.3586 49.799 66.0967 50.0485 65.7644C51.9584 63.2261 54.2513 61.0939 56.9272 59.3681C59.3371 57.8127 63.3536 56.0303 65.9974 58.1624C68.1889 59.9291 68.1265 64.2038 67.5416 66.6126C67.5332 66.645 67.5359 66.6793 67.5493 66.71C67.5627 66.7407 67.586 66.7659 67.6155 66.7816C67.645 66.7973 67.6789 66.8026 67.7117 66.7965C67.7445 66.7905 67.7744 66.7735 67.7964 66.7483C69.351 65.0311 73.305 66.2707 72.5953 68.836C71.4965 72.7993 70.4749 76.7817 69.5303 80.7832C68.9012 83.453 68.4749 85.4807 68.766 88.0356C68.7699 88.0686 68.7832 88.0998 68.8044 88.1254C68.8255 88.151 68.8536 88.1699 68.8852 88.1799C68.9168 88.1898 68.9506 88.1903 68.9825 88.1814C69.0144 88.1725 69.0431 88.1545 69.065 88.1296C69.3492 87.8112 69.604 87.4371 69.8293 87.0074C71.4809 83.8601 73.0295 80.6632 74.4749 77.4167C77.1248 71.4701 79.7435 65.5087 82.331 59.5325C83.2383 57.4343 83.8362 55.49 84.3276 53.3736C84.461 52.8012 84.7964 52.4289 85.3336 52.2566C87.1794 51.6599 89.1075 51.4389 91.1179 51.5938C92.1265 51.6721 94.0529 52.2253 93.5953 53.5641C92.753 56.0303 91.9056 58.3868 91.799 60.8556C91.6508 64.3239 92.4229 67.4138 94.2088 70.4802C94.2574 70.5602 94.3102 70.5637 94.3674 70.4906C94.5199 70.2923 94.6854 70.0409 94.864 69.7364C97.8822 64.5953 100.508 60.1327 102.725 55.0594C103.555 53.1648 103.893 50.9857 104.529 48.958C104.693 48.436 104.99 48.0185 105.476 47.8436C107.328 47.1755 109.325 46.9285 111.465 47.1025C112.162 47.1599 114.286 47.8671 113.938 48.8666C113.098 51.291 112.237 53.6528 112.058 56.239C111.963 57.61 112.075 59.1271 112.396 60.7903C112.877 63.2904 114.221 65.7279 115.448 67.9931C115.488 68.0662 115.546 68.0853 115.622 68.0505C121.991 65.0128 129.45 64.0212 136.352 65.8793C143.418 67.7791 149.836 73.3691 149.883 81.2269C149.909 85.7365 147.086 89.3509 142.89 90.8645C142.513 91.0002 141.304 91.0211 141.481 90.2199C141.514 90.0651 141.637 89.9172 141.85 89.7763C142.812 89.1413 143.529 88.6124 144 88.1896C147.512 85.0475 147.497 80.9685 145.131 77.2419C139.968 69.0996 125.192 68.4524 117.203 71.832C117.114 71.8703 117.088 71.9338 117.125 72.0225C118.568 75.6709 119.028 79.541 116.615 82.871C114.031 86.4411 110.168 88.5967 105.936 89.8989C102.72 90.888 100.508 88.9125 100.802 85.6608C101.283 80.384 105.333 75.4334 109.36 72.1217C109.421 72.0712 109.463 72.0006 109.477 71.9224C109.492 71.8441 109.479 71.7632 109.44 71.6937C108.813 70.5506 108.241 69.3719 107.724 68.1575C106.651 65.6287 105.975 62.8337 105.494 60.1144C105.454 59.89 105.383 59.8796 105.281 60.0831C102.693 65.3112 99.7574 70.334 96.4731 75.1515C96.4229 75.2229 96.4159 75.2985 96.4523 75.3786C99.0052 81.0912 99.052 87.1927 93.5277 91.2038C90.8761 93.1315 87.9281 94.3459 84.6837 94.8469C83.2591 95.0661 81.091 95.2384 79.812 94.4816C78.1664 93.5055 78.6447 91.4126 79.6144 90.1625C82.7886 86.0757 86.6802 81.8115 89.6439 77.6229C89.6897 77.5579 89.7174 77.4818 89.7243 77.4025C89.7311 77.3231 89.7168 77.2434 89.6829 77.1714C89.1161 75.9623 88.526 74.7218 87.9125 73.45C86.5893 70.702 85.8276 67.6147 85.279 64.6423C85.2288 64.3726 85.1543 64.3656 85.0555 64.6214C81.3328 74.199 76.857 83.4878 71.6283 92.4878C70.3258 94.7321 67.2296 98.5396 64.2218 96.6059C61.227 94.6799 61.8276 88.1687 62.2669 85.2302C62.2686 85.2163 62.2626 85.2084 62.2487 85.2067C62.2314 85.2032 62.2097 85.1997 62.1837 85.1963C62.182 85.1963 62.1802 85.1971 62.1785 85.1989C60.9359 88.1269 59.6725 90.9976 58.266 93.8526C56.8258 96.7729 55.1543 99.5548 51.3432 99.1712C48.8605 98.9233 47.4359 96.979 46.4116 94.7921C43.2348 88.0173 43.7366 80.6188 46.0503 73.664C46.1023 73.5074 46.0563 73.47 45.9125 73.5518L37.7964 78.2179C37.6768 78.2875 37.6473 78.3841 37.708 78.5076C40.3128 83.7166 39.9827 90.6244 38.2903 96.0343C34.7444 107.363 22.6716 115.059 10.9731 112.368C7.77556 111.633 5.88302 108.503 5.19411 105.494C4.02166 100.385 6.12218 94.7112 9.69931 90.9637C15.1222 85.285 22.3544 81.0547 29.3267 77.5994C29.3497 77.5878 29.3694 77.5705 29.3841 77.5492C29.3987 77.5278 29.4077 77.5031 29.4103 77.4774C29.4129 77.4516 29.4089 77.4257 29.3989 77.4018C29.3888 77.378 29.3729 77.3571 29.3527 77.3411C20.7764 70.642 10.7444 65.3991 4.08406 56.5157C1.93674 53.6502 0.57539 50.5046 0 47.079V45.2809C1.04506 36.6793 6.99567 29.0668 13.2426 23.4064C22.9159 14.6404 34.89 8.40323 47.1239 3.90672C52.6638 1.87115 58.3466 0.581963 64.175 0.216605C65.3258 0.143533 66.4749 0.0713318 67.6222 0ZM51.8969 81.2608C51.6317 83.6931 51.6135 86.6499 52.4376 88.8446C53.5373 91.7597 55.1984 88.8081 55.8146 87.6729C57.39 84.7735 58.7938 80.6449 60.1404 77.1636C61.6794 73.1864 63.2184 68.9326 63.9541 64.7232C64.0685 64.0707 63.9905 63.1443 63.1066 63.0895C61.0139 62.9538 58.6144 65.3651 57.5147 66.9284C54.4523 71.2813 52.4818 75.8327 51.8969 81.2608ZM106.185 85.3398C106.931 85.0388 107.616 84.6908 108.242 84.2959C111.162 82.45 112.422 79.7576 112.022 76.2189C111.968 75.7509 111.871 75.2933 111.731 74.8462C111.727 74.8341 111.72 74.8232 111.711 74.8143C111.702 74.8055 111.691 74.7991 111.679 74.7958C111.666 74.7924 111.654 74.7921 111.641 74.795C111.629 74.7979 111.618 74.8038 111.608 74.8123C108.672 77.382 106.743 80.5858 105.819 84.4238C105.739 84.7543 105.766 85.0284 105.899 85.2458C105.967 85.3572 106.062 85.3885 106.185 85.3398ZM14.1343 99.594C13.8847 101.087 14.2279 103.516 15.8735 104.171C19.5442 105.633 24.8007 102.561 27.4081 100.132C32.8466 95.0661 35.0537 87.9182 33.0286 80.6736C33.0246 80.6596 33.0174 80.6466 33.0077 80.6357C32.9979 80.6248 32.9859 80.6164 32.9725 80.6111C32.9591 80.6057 32.9447 80.6037 32.9305 80.605C32.9164 80.6064 32.9028 80.6111 32.8908 80.6188C28.6014 83.1894 24.5407 85.7965 20.6984 89.0221C17.2981 91.8797 14.8856 95.1079 14.1343 99.594ZM89.6231 87.0387C90.9489 85.5877 91.9185 83.7009 91.8614 81.7201C91.8562 81.5235 91.7938 81.5035 91.6742 81.6601C89.4558 84.5899 87.0754 87.3814 84.5329 90.0346C84.3579 90.2191 84.3926 90.3435 84.6369 90.4078C85.7678 90.7079 88.877 87.8555 89.6231 87.0387Z" fill="#CD6799"/>
</g>
<defs>
<clipPath id="clip0_3456_4351">
<rect width="150" height="113" fill="white"/>
</clipPath>
</defs>
</svg>
