<svg width="150" height="113" viewBox="0 0 150 113" fill="none" xmlns="http://www.w3.org/2000/svg">
<g id="typescript (1)" clip-path="url(#clip0_3456_4356)">
<path id="Vector" d="M117.28 68.33C117.109 68.2874 116.988 68.2482 116.916 68.2124C113.629 66.583 111.25 65.505 109.777 64.9784C107.074 64.0146 103.889 62.7491 101.252 61.297C97.714 59.3438 94.4093 57.0651 91.3378 54.4609C89.1341 52.5947 87.2713 50.6287 85.8722 48.3074C84.4526 45.9503 83.6198 44.3763 83.3738 43.5855C83.2303 43.1185 83.1065 42.7845 83.0023 42.5834C82.9647 42.5118 82.9425 42.4351 82.9356 42.3533C82.9126 42.0874 82.7409 41.8624 82.6768 41.663C82.5051 41.1364 82.3335 40.6634 82.254 40.1087C82.1037 39.0469 81.9653 37.9842 81.8389 36.9207C81.6391 35.2487 81.5007 33.4208 81.5237 31.8767C81.5528 29.6883 81.6792 27.8349 81.903 26.3163C82.0636 25.2323 82.4163 23.995 82.9613 22.6043C82.9899 22.5336 83.0022 22.4576 82.9971 22.3818C82.9937 22.3188 82.9997 22.2745 83.0151 22.2489C83.3713 21.6686 83.5788 20.917 83.7992 20.4415C87.3558 12.8103 94.136 7.12971 102.328 5.09984C103.758 4.74534 105.445 4.48884 107.389 4.33033C111.041 4.03378 114.696 4.09599 118.354 4.51696C120.919 4.81096 123.253 5.04871 125.792 6.08154C126.005 6.16591 126.318 6.21448 126.633 6.37298C127.031 6.57069 127.84 6.91241 129.059 7.39814C129.09 7.4103 129.118 7.42855 129.142 7.45181C129.166 7.47508 129.185 7.5029 129.198 7.53364C129.263 7.68703 129.383 7.74753 129.559 7.71515C129.644 7.69981 129.702 7.73305 129.731 7.81485C129.773 7.92904 129.856 7.98784 129.979 7.99125C130.063 7.99466 130.139 8.02023 130.207 8.06795C131.017 8.63805 131.952 9.1468 132.67 9.70156C133.28 10.172 133.876 10.6594 134.458 11.1639C137.538 13.8261 140.08 16.8922 142.082 20.3622C142.122 20.4311 142.135 20.5124 142.118 20.5903C142.101 20.6682 142.056 20.7372 141.992 20.784C137.008 24.4245 131.796 27.7889 126.553 31.0535C126.483 31.0975 126.4 31.1184 126.317 31.1133C126.234 31.1083 126.155 31.0776 126.089 31.0254C124.521 29.765 123.673 27.3517 121.877 25.9686C121.5 25.6772 121.154 25.309 120.793 25.0559C120.421 24.7969 120.04 24.5498 119.65 24.3146C119.65 24.3146 119.587 24.2583 119.46 24.1458C119.401 24.093 119.327 24.0691 119.24 24.0742C119.148 24.0794 119.074 24.0444 119.02 23.9694L118.958 23.88C118.905 23.805 118.835 23.7837 118.748 23.816C118.625 23.8604 118.546 23.8305 118.51 23.7266C118.479 23.6345 118.415 23.586 118.318 23.5808C117.938 23.5604 117.346 23.2511 116.808 23.0772C114.328 22.2873 111.294 22.3946 108.778 22.9596C108.427 23.0363 108.176 23.2715 107.837 23.3508C106.356 23.6984 104.78 25.102 103.93 26.2217C103.812 26.3802 103.784 26.6435 103.584 26.7969C103.515 26.8498 103.463 26.9145 103.427 26.9912C103.261 27.3594 103.076 27.6738 102.964 28.0701C102.789 28.6862 102.513 29.2256 102.466 29.8699C102.436 30.2994 102.397 30.7297 102.351 31.1609C102.013 34.3463 103.55 37.3272 105.99 39.3034C106.403 39.6374 107.028 40.0669 107.866 40.5918C109.777 41.7908 111.917 42.7495 113.951 43.721C113.963 43.7272 113.986 43.7339 114.019 43.7406C114.052 43.7473 114.093 43.7538 114.138 43.7594C114.587 43.8182 115.55 44.4164 116.301 44.759C116.344 44.7777 116.395 44.7879 116.455 44.7896C116.511 44.7896 116.603 44.7999 116.655 44.828C117.423 45.2856 118.359 45.6026 119.058 45.9298C119.516 46.1429 120.098 46.3977 120.803 46.6942C121.461 46.9703 122.389 47.4211 123.589 48.0466C123.696 48.1054 123.799 48.1029 123.917 48.1208C123.999 48.1327 124.063 48.1719 124.109 48.2384C124.169 48.3236 124.249 48.3653 124.35 48.3636C124.438 48.3636 124.522 48.3832 124.601 48.4224C125.738 48.99 126.876 49.5558 128.014 50.12C128.081 50.1523 128.139 50.1932 128.191 50.2427C128.25 50.3006 128.319 50.3441 128.396 50.3731C128.865 50.5546 129.351 50.9048 129.705 51.0838C133.351 52.95 136.941 55.2713 139.927 58.0835C142.158 60.1875 143.796 62.312 145.223 65.0295C145.351 65.2732 145.512 65.6507 145.705 66.162C145.905 66.6836 146.194 67.1821 146.366 67.6729C146.809 68.941 147.286 70.2678 147.596 71.5103C149.01 77.1482 148.966 82.7359 147.463 88.2733C147 89.9742 146.369 91.5499 145.572 93.0003C140.934 101.442 132.493 107.125 123.102 108.465C120.211 108.879 116.915 109.088 113.213 109.093C110.533 109.099 107.837 108.881 105.178 108.572C102.208 108.229 99.6965 107.539 96.373 106.378C95.4557 106.056 94.587 105.606 93.6927 105.231C89.3853 103.428 85.2982 100.509 81.9568 97.2722C81.7851 97.1035 81.5084 96.9168 81.2854 96.6714C79.4593 94.6415 77.8646 92.4446 76.5014 90.0807C76.0675 89.3274 75.6199 88.5801 75.1587 87.8387C75.1108 87.7637 75.1236 87.7006 75.1971 87.6495C76.7141 86.5962 78.3361 85.7884 79.8735 84.7913C80.2391 84.5544 80.6124 84.3286 80.9933 84.1138C84.7123 82.0141 88.4141 79.8837 92.0989 77.7226C92.1758 77.6783 92.2381 77.6919 92.2859 77.7635C92.8497 78.5935 93.4262 79.4039 94.0156 80.1947C95.7247 82.4854 98.0668 84.8936 100.386 86.6473C101.677 87.6256 102.987 88.3764 104.317 88.8996C110.938 91.5098 117.892 90.8681 123.853 87.1382C124.292 86.8638 124.676 86.5144 125.006 86.09C125.328 85.6776 125.644 85.2566 125.951 84.8271C126.366 84.2519 126.605 83.444 126.866 82.7794C127.071 82.2629 127.117 81.7363 127.227 81.202C127.483 79.98 127.327 78.5151 127.084 77.2982C127.022 76.9889 126.81 76.6949 126.743 76.3446C126.615 75.6774 126.002 74.7366 125.682 74.1102C125.482 73.7182 124.824 73.0535 123.706 72.1162C122.541 71.1379 121.024 70.2192 119.156 69.3602C119.097 69.3318 119.047 69.2876 119.012 69.2324C118.937 69.1114 118.829 69.0603 118.689 69.079C118.602 69.091 118.541 69.0577 118.505 68.9793C118.443 68.8447 118.336 68.7927 118.184 68.8234C118.104 68.8404 118.044 68.8131 118.005 68.7416L117.954 68.6521C117.901 68.5583 117.823 68.5285 117.721 68.5626C117.618 68.595 117.536 68.5643 117.475 68.4706C117.427 68.399 117.362 68.3521 117.28 68.33Z" fill="#007ACC"/>
<path id="Vector_2" d="M39.4359 23.9541V107.744C39.4359 107.829 39.3932 107.872 39.3078 107.872H18.6803C18.5948 107.872 18.5521 107.829 18.5521 107.744V23.9541C18.5521 23.8689 18.5094 23.8263 18.424 23.8263H-10.9798C-11.0618 23.8263 -11.1028 23.7845 -11.1028 23.701C-11.1114 19.7077 -11.1131 15.717 -11.108 11.7289C-11.1054 9.73479 -10.9721 7.69981 -10.8825 5.66739C-10.8722 5.43219 -10.7484 5.31118 -10.5109 5.30436C-7.00551 5.22 -3.42068 5.16631 0.166722 5.16631C23.0543 5.1612 45.9471 5.12285 68.827 5.29925C68.9158 5.29925 68.9611 5.34356 68.9628 5.43219L69.1293 23.5527C69.1297 23.5885 69.1229 23.624 69.1094 23.6572C69.0959 23.6904 69.0759 23.7206 69.0507 23.746C69.0254 23.7714 68.9954 23.7916 68.9622 23.8054C68.9291 23.8192 68.8936 23.8263 68.8577 23.8263H39.564C39.4786 23.8263 39.4359 23.8689 39.4359 23.9541Z" fill="#007ACC"/>
</g>
<defs>
<clipPath id="clip0_3456_4356">
<rect width="150" height="113" fill="white"/>
</clipPath>
</defs>
</svg>
